<?xml version="1.0" standalone="no"?>
<!DOCTYPE svg PUBLIC "-//W3C//DTD SVG 20010904//EN"
 "http://www.w3.org/TR/2001/REC-SVG-20010904/DTD/svg10.dtd">
<svg version="1.0" xmlns="http://www.w3.org/2000/svg"
 width="498.000000pt" height="220.000000pt" viewBox="0 0 498.000000 220.000000"
 preserveAspectRatio="xMidYMid meet" fill="current" stroke="current">

<g transform="translate(0.000000,220.000000) scale(0.100000,-0.100000)">
<path d="M542 2044 c-12 -8 -22 -21 -22 -27 0 -21 -78 -166 -125 -234 -25 -35
-45 -67 -45 -72 0 -4 25 -23 55 -42 30 -18 55 -37 55 -41 0 -4 -26 -15 -57
-24 -135 -39 -259 19 -224 104 22 52 95 120 162 152 l64 29 -41 1 c-155 1
-298 -168 -223 -264 29 -37 92 -67 154 -73 39 -4 82 2 176 26 347 90 463 93
576 17 21 -14 67 -54 102 -88 68 -67 69 -65 10 22 -106 158 -265 210 -472 155
-58 -15 -59 -15 -130 15 -40 17 -83 39 -95 48 l-24 19 37 74 c68 135 98 174
142 187 22 7 56 12 74 12 26 0 30 3 19 10 -25 16 -143 12 -168 -6z"/>
<path d="M671 2009 c-36 -8 -69 -34 -57 -46 4 -4 72 -7 151 -8 l143 0 39 -31
c41 -34 56 -79 47 -144 -4 -30 -4 -32 7 -16 7 11 14 49 17 86 4 65 4 67 -29
95 -60 50 -92 58 -203 50 -69 -4 -96 -3 -86 4 21 15 10 19 -29 10z"/>
<path d="M2971 1813 c-15 -54 -14 -73 7 -73 9 -1 31 -12 47 -25 27 -22 30 -30
28 -77 -2 -34 -8 -55 -18 -60 -8 -5 -15 -15 -15 -23 0 -8 -16 -21 -35 -29 -19
-8 -38 -22 -41 -31 -4 -8 -18 -15 -34 -15 -15 0 -33 -7 -40 -15 -7 -9 -20 -15
-29 -13 -9 1 -29 -2 -46 -7 -61 -17 -173 -22 -255 -10 -25 4 -63 9 -85 11 -22
3 -85 12 -140 20 -55 8 -118 17 -140 20 -22 3 -58 7 -80 10 -22 3 -59 7 -81 8
-23 2 -46 6 -52 10 -6 4 -28 7 -49 7 -21 0 -58 2 -83 5 -25 3 -86 7 -137 8
-50 2 -96 7 -101 10 -12 7 -211 -13 -229 -23 -6 -3 -25 -23 -42 -45 -42 -53
-42 -98 2 -149 55 -65 161 -78 507 -63 74 4 146 6 160 6 14 -1 32 -1 40 -1 57
2 302 12 385 16 216 12 270 11 290 -2 11 -7 30 -13 43 -13 13 0 30 -7 38 -15
9 -8 25 -15 36 -15 11 0 31 -9 45 -20 14 -11 31 -20 38 -20 6 0 20 -9 30 -20
10 -11 23 -20 30 -20 6 0 24 -13 40 -30 26 -28 34 -30 97 -30 54 0 68 3 68 15
0 27 -165 175 -195 175 -7 0 -20 9 -29 19 -10 11 -32 23 -49 27 -35 7 -23 18
34 28 21 4 48 15 62 26 14 11 31 20 37 20 20 0 110 100 116 129 3 14 13 41 21
60 12 26 13 39 4 58 -6 13 -11 37 -11 53 0 35 -68 112 -113 129 -50 19 -65 14
-76 -26z m104 -12 c3 -6 -9 -14 -27 -19 -18 -6 -41 -13 -50 -17 -12 -5 -18 -3
-18 7 0 23 83 47 95 29z m62 -78 c17 -22 10 -27 -15 -14 -12 6 -33 11 -47 11
-31 0 -68 18 -61 29 9 13 110 -9 123 -26z m-25 -55 c33 -36 49 -68 33 -68 -10
0 -85 86 -85 98 0 20 11 14 52 -30z m-14 -80 c18 -71 18 -73 8 -76 -11 -4 -44
98 -38 116 8 24 17 11 30 -40z m-42 -79 c-5 -60 -11 -79 -24 -79 -11 0 -1 113
10 128 17 20 19 14 14 -49z m-1556 13 c0 -16 -71 -92 -86 -92 -20 0 -19 1 28
53 40 45 58 57 58 39z m90 1 c0 -18 -76 -83 -97 -83 -30 0 -30 16 0 24 12 3
36 19 52 36 28 29 45 38 45 23z m90 -11 c0 -16 -79 -72 -100 -72 -27 0 -21 24
7 28 11 2 31 14 44 28 22 23 49 32 49 16z m90 -1 c0 -18 -71 -71 -95 -71 -28
0 -35 20 -7 20 9 1 33 14 52 30 35 31 50 37 50 21z m-381 -22 c-6 -12 -9 -37
-6 -56 7 -41 -13 -41 -27 0 -11 32 6 77 29 77 13 0 14 -4 4 -21z m471 12 c0
-19 -75 -72 -98 -69 -29 4 -30 22 0 26 12 2 36 15 53 28 32 25 45 30 45 15z
m1149 -7 c-8 -9 -23 -35 -34 -57 -21 -42 -49 -67 -61 -54 -4 4 5 16 19 28 15
11 27 28 27 38 0 24 28 61 47 61 13 0 13 -2 2 -16z m-1084 -29 c-42 -37 -77
-51 -95 -40 -15 9 -2 25 22 25 11 0 33 11 50 25 16 14 37 25 46 25 12 -1 4
-12 -23 -35z m113 13 c-9 -26 -85 -70 -107 -63 -24 7 -19 25 8 25 9 0 32 11
51 25 37 27 54 32 48 13z m92 -8 c0 -17 -83 -71 -105 -68 -26 4 -22 22 7 26
12 2 35 15 51 28 30 25 47 30 47 14z m94 -9 c8 -12 -89 -73 -109 -69 -24 5
-19 22 7 26 12 2 36 15 53 28 33 26 41 29 49 15z m696 -1 c0 -6 -9 -28 -20
-50 -19 -37 -45 -60 -69 -60 -18 0 -12 18 8 25 10 3 29 26 42 50 23 43 39 57
39 35z m-1573 -77 c9 -7 27 -10 40 -7 29 8 31 -12 2 -21 -55 -18 -104 30 -78
76 l14 24 3 -30 c2 -16 10 -36 19 -42z m963 60 c0 -5 -17 -20 -38 -34 -29 -19
-44 -24 -67 -18 -20 4 -23 7 -10 8 11 0 36 12 55 26 35 24 60 32 60 18z m-660
-19 c77 -3 106 -5 220 -17 19 -2 57 -4 84 -5 61 -2 52 -16 -12 -19 -26 -1 -90
-4 -142 -7 -238 -11 -390 -2 -390 23 0 13 47 30 68 24 11 -3 29 0 39 6 10 6
25 8 33 4 8 -3 53 -7 100 -9z m750 5 c0 -11 -69 -43 -77 -36 -4 5 57 47 70 47
4 0 7 -5 7 -11z m440 3 c0 -15 -51 -82 -71 -93 -16 -8 -24 -8 -32 0 -9 9 -6
13 10 17 12 3 33 24 47 45 24 36 46 51 46 31z m-350 -12 c0 -5 -7 -10 -15 -10
-8 0 -15 5 -15 10 0 6 7 10 15 10 8 0 15 -4 15 -10z m260 -6 c0 -10 -42 -68
-58 -81 -19 -15 -52 -17 -52 -3 0 6 6 10 14 10 8 0 29 18 46 40 28 36 50 51
50 34z m-90 -16 c0 -22 -68 -88 -89 -88 -28 0 -26 14 3 28 14 6 35 25 47 41
24 33 39 40 39 19z m-86 -5 c10 -10 -75 -93 -95 -93 -31 0 -30 18 0 28 16 6
39 24 52 41 23 32 31 36 43 24z m-94 -16 c0 -7 -15 -28 -34 -46 -26 -25 -40
-32 -62 -29 l-29 4 31 13 c17 6 41 25 53 41 23 32 41 39 41 17z m-266 -6 c9
-15 -72 -81 -99 -81 -14 0 -25 5 -25 10 0 6 8 10 18 10 10 0 33 16 52 35 35
36 45 41 54 26z m70 -26 c-15 -20 -35 -40 -45 -45 -23 -13 -59 -13 -59 0 0 6
8 10 18 10 10 0 33 16 52 35 45 47 70 46 34 0z m73 -11 c-26 -25 -54 -44 -63
-42 -21 4 -19 22 4 26 11 2 32 16 47 33 16 16 36 29 44 29 10 0 -2 -18 -32
-46z m-417 29 c0 -5 -16 -25 -35 -45 -32 -36 -85 -53 -85 -28 0 6 8 10 18 10
10 0 33 16 52 35 33 34 50 43 50 28z m90 -2 c0 -14 -78 -81 -94 -81 -30 0 -26
20 6 33 18 8 42 24 52 36 20 22 36 27 36 12z m90 0 c0 -14 -78 -81 -94 -81
-30 0 -25 20 8 34 19 8 39 24 46 35 11 21 40 29 40 12z m-630 -11 c0 -5 -20
-21 -44 -35 -38 -22 -47 -24 -70 -14 -36 17 -33 31 7 24 23 -4 41 0 62 15 33
22 45 25 45 10z m90 1 c0 -11 -77 -81 -89 -81 -17 0 -41 12 -41 21 0 5 10 9
23 9 12 0 38 13 57 30 36 30 50 36 50 21z m54 -42 c-37 -38 -76 -50 -89 -29
-3 6 3 10 15 10 11 0 37 15 58 34 50 46 63 34 16 -15z m126 44 c0 -18 -76 -83
-97 -83 -31 0 -29 16 2 24 13 3 35 20 47 36 20 27 48 41 48 23z m90 -2 c0 -14
-78 -81 -94 -81 -26 0 -28 20 -4 29 13 5 34 21 47 35 24 25 51 35 51 17z m990
-20 c0 -13 -84 -44 -106 -39 -9 1 -19 9 -22 17 -3 9 1 11 16 7 12 -4 33 -1 49
8 32 17 63 21 63 7z m90 -31 c0 -15 -71 -41 -104 -38 -16 2 -31 9 -34 16 -3 9
3 11 20 7 13 -3 39 1 58 9 41 18 60 20 60 6z m80 -49 c0 -16 -90 -36 -120 -26
-35 11 -22 24 28 28 26 2 57 4 70 5 12 1 22 -2 22 -7z m73 -61 c4 -4 -18 -10
-49 -14 -49 -6 -61 -4 -77 13 -19 19 -18 19 49 14 38 -3 73 -9 77 -13z m-47
-39 c5 -6 31 -11 58 -13 31 -2 51 -8 54 -17 3 -10 -7 -12 -52 -8 -54 5 -86 19
-86 38 0 12 14 11 26 0z"/>
<path d="M4187 1813 c-68 -23 -113 -76 -128 -152 -9 -48 -15 -60 -34 -65 -13
-3 -37 -22 -54 -41 -24 -27 -31 -45 -31 -76 0 -87 40 -133 128 -145 49 -6 50
-7 61 -50 6 -23 11 -54 11 -68 0 -31 4 -32 38 -8 71 48 228 89 302 78 31 -4
33 -3 17 8 -43 33 -164 27 -267 -14 -50 -20 -60 -18 -60 9 0 9 -8 31 -18 50
-16 30 -22 33 -69 35 -39 1 -58 7 -77 25 -50 47 -26 147 39 165 16 5 25 -2 39
-29 11 -19 23 -35 28 -35 5 0 1 11 -8 25 -21 32 -22 121 -1 161 45 86 160 128
251 90 38 -16 81 -67 91 -109 7 -25 10 -27 39 -21 42 9 103 6 126 -6 23 -13
50 -61 50 -90 0 -33 -26 -75 -55 -88 -36 -17 -58 -15 -51 3 3 8 1 25 -3 37 -9
22 -9 22 -16 -7 -4 -16 -21 -47 -37 -67 -21 -27 -25 -38 -14 -38 8 0 18 5 21
10 10 16 25 12 25 -7 1 -10 7 -31 14 -48 l14 -30 -2 45 c-1 44 0 45 40 58 23
7 54 27 70 43 25 26 29 38 29 88 -1 98 -47 144 -148 147 -59 1 -62 3 -84 37
-12 19 -39 48 -59 63 -30 24 -48 29 -103 31 -42 2 -84 -3 -114 -14z"/>
<path d="M3518 1579 c-135 -21 -243 -140 -283 -311 -19 -81 -19 -272 0 -361
27 -129 100 -234 194 -278 70 -33 172 -36 245 -9 73 28 152 96 135 116 -9 11
-17 9 -43 -13 -96 -81 -218 -70 -283 26 -55 82 -82 268 -64 451 12 129 35 211
74 268 30 43 50 57 94 66 47 11 68 -16 76 -95 7 -65 22 -89 57 -89 28 0 59 30
71 69 31 105 -108 187 -273 160z"/>
<path d="M480 1540 l-35 -7 45 -3 c25 -1 59 -4 75 -6 17 -2 62 -9 100 -14 106
-16 285 -60 328 -81 51 -26 155 -52 175 -44 13 5 6 10 -25 20 -24 7 -67 29
-97 49 -31 20 -75 44 -98 52 -99 35 -370 55 -468 34z"/>
<path d="M420 1459 c-107 -9 -196 -36 -248 -75 -90 -69 -95 -223 -8 -259 45
-19 70 -19 105 0 34 17 54 66 41 99 -12 31 -36 39 -65 20 -13 -8 -34 -14 -47
-12 -19 2 -24 10 -26 41 -4 50 16 79 71 106 56 27 113 28 127 2 6 -13 10 -147
10 -369 l0 -349 26 -24 c24 -23 32 -24 152 -24 109 0 135 4 185 24 108 43 195
130 239 241 19 46 22 75 22 180 1 107 -3 133 -22 181 -70 175 -251 245 -562
218z m291 -70 c76 -54 103 -156 96 -368 -5 -184 -20 -244 -76 -303 -32 -35
-45 -41 -87 -45 -87 -9 -84 -22 -84 357 0 182 4 340 9 354 6 13 18 27 28 29
30 8 85 -3 114 -24z"/>
<path d="M3815 1353 l-30 -17 25 -6 25 -6 5 -274 5 -274 32 -9 c25 -8 38 -6
58 7 25 16 25 18 25 154 0 150 11 186 53 180 39 -6 48 -42 44 -183 -3 -135
-11 -164 -51 -198 -21 -19 -21 -19 17 -13 53 7 105 50 130 105 25 57 34 183
18 257 -23 103 -107 126 -188 51 l-23 -20 0 115 c0 99 -3 117 -18 131 -24 22
-88 21 -127 0z"/>
<path d="M4731 1352 c-50 -25 -74 -63 -79 -127 -4 -55 -5 -55 -38 -55 -24 0
-34 -5 -34 -15 0 -11 11 -15 36 -15 l36 0 -4 -217 c-3 -185 -6 -223 -21 -250
-31 -59 -91 -71 -126 -27 -24 31 -54 26 -49 -8 10 -70 172 -62 249 12 57 54
69 110 69 317 l0 173 40 0 c29 0 40 4 40 15 0 11 -11 15 -40 15 l-40 0 0 70
c0 57 4 74 20 90 32 32 62 22 90 -30 6 -11 17 -17 24 -14 16 6 27 37 17 51
-23 36 -133 45 -190 15z"/>
<path d="M2450 1224 c0 -25 -64 -83 -99 -90 -37 -8 -42 -34 -6 -34 l25 0 0
-161 c0 -89 4 -169 10 -179 14 -26 71 -41 115 -29 19 6 43 23 56 40 22 31 22
51 -1 24 -7 -8 -23 -15 -36 -15 l-24 0 0 161 0 162 46 -7 c25 -3 50 -9 56 -12
19 -12 75 -145 117 -278 l41 -130 -27 -29 c-31 -32 -53 -45 -94 -57 -24 -7
-35 -4 -60 18 -30 25 -32 25 -45 7 -19 -25 -18 -31 8 -49 34 -24 88 -19 156
15 131 65 225 231 248 436 9 83 1 113 -31 113 -33 0 -37 -11 -24 -67 12 -53
-3 -159 -33 -233 l-15 -35 -22 75 c-36 120 -81 218 -108 240 -14 11 -41 20
-59 20 -27 0 -34 4 -34 19 0 27 -27 48 -43 32 -9 -9 -9 -16 1 -31 11 -19 9
-20 -33 -20 l-45 0 0 55 c0 48 -2 55 -20 55 -12 0 -20 -7 -20 -16z"/>
<path d="M4352 1149 c-141 -70 -151 -300 -15 -364 71 -34 170 -16 224 41 25
27 17 31 -21 9 -36 -20 -87 -18 -120 5 -35 25 -67 99 -48 112 7 4 48 29 91 55
43 25 82 55 86 67 30 80 -93 126 -197 75z m102 -62 c11 -42 7 -49 -58 -87
l-39 -24 6 58 c6 64 29 99 61 94 15 -2 24 -14 30 -41z"/>
<path d="M1210 1108 c-69 -37 -104 -94 -108 -177 -7 -127 59 -204 174 -203 53
0 118 26 144 57 19 23 5 30 -22 11 -32 -23 -90 -20 -123 6 -25 19 -55 73 -55
97 0 5 33 28 73 51 93 55 117 77 117 110 0 41 -32 63 -98 68 -46 3 -66 -1
-102 -20z m98 -51 c19 -39 8 -62 -43 -91 l-45 -25 0 40 c0 22 7 56 15 75 11
28 19 35 37 32 13 -2 28 -15 36 -31z"/>
<path d="M1470 1112 l-35 -17 27 -3 28 -3 2 -267 3 -266 27 -15 c20 -12 34
-13 55 -5 l28 9 3 108 3 107 25 -17 c33 -21 105 -21 139 1 94 62 91 321 -4
370 -40 21 -89 20 -128 -3 -31 -19 -31 -19 -49 0 -22 24 -76 25 -124 1z m235
-62 c22 -43 21 -194 -3 -240 -21 -43 -53 -51 -76 -18 -24 33 -23 244 1 270 25
28 60 23 78 -12z"/>
<path d="M1908 1109 c-33 -24 -36 -39 -8 -32 19 5 20 0 20 -131 0 -136 11
-193 40 -211 29 -18 88 -7 133 24 45 31 46 31 49 9 4 -33 51 -53 90 -39 18 6
40 19 50 28 21 19 25 41 5 24 -8 -6 -17 -8 -20 -4 -4 3 -7 74 -7 157 0 178 -6
196 -70 196 -30 0 -48 -7 -72 -30 -32 -29 -33 -30 -8 -27 l25 2 3 -119 c2
-112 1 -120 -20 -143 -15 -16 -31 -23 -48 -21 l-25 3 -5 158 c-4 125 -8 160
-20 167 -26 16 -84 10 -112 -11z"/>
<path d="M1902 602 c-7 -5 -24 -7 -37 -4 -19 3 -35 -7 -73 -44 -68 -69 -74
-82 -66 -161 7 -65 9 -70 60 -120 29 -29 65 -55 81 -59 15 -3 42 -12 60 -20
41 -18 102 -18 109 0 3 8 6 36 7 63 2 44 0 48 -23 49 -14 1 -36 6 -50 11 -14
6 -30 8 -36 6 -6 -2 -19 6 -29 17 -10 11 -24 20 -32 20 -7 0 -13 9 -13 19 0
11 -4 22 -9 25 -15 10 19 66 39 66 10 0 21 4 24 8 12 19 268 -8 336 -35 14 -6
30 -8 37 -6 6 2 23 -3 37 -13 15 -9 37 -14 51 -12 14 3 33 -1 42 -8 10 -7 33
-14 51 -14 18 0 44 -7 57 -16 14 -9 35 -14 47 -11 13 3 32 -1 42 -9 11 -8 36
-14 55 -14 20 0 45 -7 55 -15 11 -8 29 -12 42 -9 12 3 33 -1 47 -10 13 -9 38
-15 55 -14 16 1 37 -4 46 -11 10 -9 29 -12 50 -8 20 3 39 0 45 -6 7 -7 31 -13
54 -15 23 -2 67 -5 97 -8 174 -17 387 2 444 39 14 9 35 17 46 17 12 0 32 11
45 24 13 13 35 26 49 30 14 3 34 19 43 34 10 15 30 37 45 50 15 13 30 33 34
45 4 12 18 35 31 51 30 35 27 70 -5 74 -21 3 -23 1 -17 -20 11 -35 11 -40 -2
-45 -6 -2 -16 12 -23 31 -18 56 -32 45 -32 -24 0 -3 3 -26 6 -51 5 -36 4 -48
-8 -52 -20 -8 -35 117 -17 145 9 14 8 18 -4 18 -8 0 -18 -12 -21 -27 -4 -16
-19 -40 -33 -55 -14 -14 -30 -31 -36 -37 -25 -27 -74 -60 -98 -66 -14 -4 -31
-13 -38 -21 -6 -8 -26 -14 -45 -14 -18 0 -36 -4 -39 -10 -7 -11 -22 -12 -200
-10 -160 2 -203 4 -211 13 -4 4 -27 7 -50 7 -24 0 -46 4 -49 10 -3 5 -22 10
-41 10 -20 0 -44 5 -55 11 -11 6 -35 11 -52 11 -18 0 -38 5 -45 11 -7 6 -33
14 -58 19 -114 21 -131 25 -152 37 -13 7 -34 10 -45 7 -12 -2 -31 2 -41 10
-11 8 -32 14 -47 14 -14 0 -43 7 -63 15 -20 9 -41 13 -46 10 -5 -3 -23 1 -39
10 -17 8 -42 15 -56 15 -15 0 -35 5 -46 10 -24 13 -270 23 -287 12z m76 -14
c-3 -7 -14 -15 -25 -18 -22 -5 -55 -41 -66 -73 -4 -10 -11 -16 -16 -12 -14 8
6 58 34 89 25 27 80 37 73 14z m102 -3 c11 -13 8 -15 -14 -15 -16 0 -42 -14
-66 -37 -27 -24 -44 -33 -51 -26 -13 13 73 93 100 93 10 0 24 -7 31 -15z
m-210 -15 c0 -5 -9 -14 -19 -20 -26 -13 -34 -41 -21 -75 13 -34 2 -55 -17 -30
-7 11 -13 38 -13 61 0 33 5 46 22 58 25 18 48 21 48 6z m315 -5 c0 -5 -12 -10
-26 -10 -15 -1 -43 -13 -62 -28 -20 -15 -40 -27 -46 -27 -22 0 -10 19 32 50
41 30 102 39 102 15z m89 -11 c27 -10 18 -24 -17 -24 -18 0 -48 -11 -68 -24
-20 -14 -41 -21 -48 -17 -8 5 4 18 36 39 48 32 68 37 97 26z m102 -29 c19 -14
11 -20 -24 -16 -7 1 -34 -10 -59 -24 -30 -18 -48 -24 -55 -17 -7 7 7 20 43 41
62 35 68 36 95 16z m1383 -69 c-10 -72 -15 -86 -29 -86 -15 0 1 123 18 143 8
9 17 16 18 14 2 -1 -1 -33 -7 -71z m-1281 37 c2 -9 -7 -13 -27 -13 -17 0 -45
-9 -63 -20 -18 -11 -39 -20 -45 -20 -25 0 -12 18 30 44 44 27 97 31 105 9z
m-703 -27 c-6 -27 -2 -39 14 -55 12 -12 28 -21 36 -21 8 0 15 -7 15 -16 0 -11
-5 -14 -16 -10 -9 3 -20 6 -25 6 -17 0 -59 52 -59 72 0 25 18 58 31 58 6 0 7
-14 4 -34z m789 18 c25 -10 19 -24 -10 -24 -14 0 -46 -12 -70 -26 -31 -18 -49
-23 -55 -17 -7 7 7 21 43 42 55 32 66 35 92 25z m104 -39 c-2 -6 -11 -9 -21
-7 -10 1 -39 -10 -63 -24 -32 -19 -48 -24 -56 -16 -7 7 -2 15 18 25 16 9 42
22 58 30 29 16 70 10 64 -8z m1042 6 c0 -6 -4 -12 -9 -16 -5 -3 -17 -30 -26
-60 -10 -35 -21 -55 -30 -55 -19 0 -19 0 1 63 16 48 36 77 56 77 4 0 8 -4 8
-9z m-946 -17 c23 -9 9 -24 -21 -24 -15 0 -45 -11 -69 -25 -28 -16 -45 -21
-49 -14 -8 12 -11 9 45 42 46 27 66 32 94 21z m90 -20 c26 -10 18 -24 -12 -24
-15 0 -44 -11 -64 -25 -39 -27 -58 -31 -58 -15 0 11 89 70 107 70 6 0 18 -3
27 -6z m776 -12 c0 -5 -8 -16 -19 -26 -10 -9 -26 -34 -36 -56 -10 -22 -24 -40
-32 -40 -7 0 -13 2 -13 5 0 11 43 90 58 108 16 18 42 23 42 9z m-668 -27 c-1
-5 -14 -11 -28 -12 -13 -1 -40 -11 -58 -22 -36 -23 -56 -27 -56 -12 0 19 84
61 115 59 17 -2 29 -7 27 -13z m103 -15 c3 -4 -11 -10 -30 -13 -19 -3 -49 -17
-68 -31 -21 -16 -37 -22 -46 -17 -10 6 -1 17 30 38 24 17 51 32 59 35 17 6 48
-1 55 -12z m480 10 c3 -5 -4 -15 -17 -21 -13 -6 -35 -28 -50 -50 -15 -21 -35
-39 -43 -39 -21 0 -6 27 44 80 38 41 55 48 66 30z m-1760 -25 c21 -22 31 -25
59 -19 19 3 40 3 46 -1 20 -12 -10 -25 -59 -25 -48 0 -81 21 -81 52 0 24 4 23
35 -7z m1373 3 c-3 -7 -15 -15 -28 -16 -13 -2 -38 -15 -56 -29 -18 -13 -41
-23 -50 -21 -28 5 73 78 108 78 19 0 28 -4 26 -12z m292 -3 c0 -8 -7 -15 -16
-15 -8 0 -32 -18 -51 -40 -20 -22 -42 -40 -50 -40 -19 0 -16 9 19 49 48 55 98
79 98 46z m-192 -7 c-2 -6 -12 -12 -22 -14 -11 -1 -39 -17 -63 -35 -62 -44
-76 -24 -15 24 46 35 109 52 100 25z m100 0 c-3 -7 -13 -15 -24 -17 -10 -2
-36 -18 -58 -37 -21 -18 -43 -31 -48 -28 -14 9 -7 19 40 58 43 35 98 50 90 24z
m-1374 -47 c6 -9 -87 -61 -109 -61 -6 0 -21 7 -34 16 -29 21 -13 42 17 23 18
-11 27 -10 64 8 50 25 55 26 62 14z m47 -43 c-4 -13 -20 -30 -34 -38 -22 -12
-29 -12 -54 0 l-28 15 36 3 c20 2 45 12 54 23 24 26 36 24 26 -3z"/>
</g>
</svg>
