<?xml version="1.0" standalone="no"?>
<!DOCTYPE svg PUBLIC "-//W3C//DTD SVG 20010904//EN"
 "http://www.w3.org/TR/2001/REC-SVG-20010904/DTD/svg10.dtd">
<svg version="1.0" xmlns="http://www.w3.org/2000/svg"
 width="500.000000pt" height="500.000000pt" viewBox="0 0 500.000000 500.000000"
 preserveAspectRatio="xMidYMid meet" fill="current" stroke="current">

<g transform="translate(0.000000,500.000000) scale(0.100000,-0.100000)">
<path d="M2305 4676 c-15 -10 -23 -11 -37 -2 -14 9 -25 7 -48 -6 -17 -10 -32
-13 -35 -7 -10 15 -44 10 -65 -11 -11 -11 -22 -15 -25 -10 -9 15 -51 12 -65
-5 -8 -9 -22 -12 -41 -8 -18 3 -35 0 -45 -8 -9 -8 -28 -12 -41 -11 -15 2 -34
-5 -48 -18 -15 -14 -25 -18 -30 -11 -9 16 -19 14 -51 -11 -15 -13 -37 -21 -49
-20 -12 2 -29 -6 -39 -17 -13 -14 -26 -19 -41 -15 -16 4 -28 -1 -41 -18 -13
-16 -27 -22 -46 -20 -17 2 -31 -4 -40 -17 -7 -10 -27 -21 -43 -23 -20 -2 -33
-11 -40 -26 -7 -16 -16 -21 -29 -18 -11 3 -28 -5 -45 -22 -14 -15 -32 -25 -39
-24 -17 4 -52 -26 -52 -45 0 -9 -7 -12 -17 -9 -22 7 -36 -2 -52 -31 -6 -13
-21 -23 -32 -23 -12 0 -27 -12 -37 -30 -9 -16 -25 -30 -35 -30 -10 0 -26 -13
-35 -30 -9 -16 -24 -30 -32 -30 -21 0 -40 -20 -40 -41 0 -11 -9 -19 -22 -21
-14 -2 -29 -15 -38 -35 -8 -17 -23 -34 -33 -37 -10 -2 -23 -18 -29 -34 -6 -16
-21 -33 -32 -38 -12 -5 -22 -20 -24 -36 -2 -19 -10 -28 -25 -30 -15 -2 -25
-13 -32 -35 -5 -18 -12 -33 -16 -33 -16 0 -39 -32 -39 -53 0 -13 -9 -26 -22
-32 -16 -7 -24 -20 -26 -42 -2 -20 -9 -33 -17 -33 -15 0 -31 -44 -27 -67 2 -7
-4 -13 -12 -13 -20 0 -39 -37 -33 -61 3 -12 0 -19 -9 -19 -17 0 -37 -37 -31
-59 2 -11 -4 -23 -15 -30 -15 -9 -19 -21 -16 -47 3 -22 0 -34 -8 -34 -15 0
-24 -23 -24 -61 0 -16 -4 -29 -9 -29 -5 0 -11 -7 -15 -15 -4 -12 -2 -13 14 -3
14 9 22 9 34 -1 20 -17 20 -2 1 23 -18 23 -20 62 -4 72 16 9 48 -26 64 -72 12
-32 14 -35 15 -14 0 14 7 34 15 44 8 11 15 29 15 40 0 12 7 30 15 40 8 11 15
30 15 41 0 12 9 30 20 40 11 10 20 28 20 40 0 12 9 30 20 40 11 10 20 26 20
37 0 10 9 27 20 38 11 11 20 29 20 40 0 10 9 24 20 30 11 6 23 23 27 38 3 15
17 35 30 45 13 10 23 25 23 34 0 8 11 24 25 35 14 11 25 25 25 33 0 7 11 20
25 29 14 9 27 27 31 41 3 14 12 25 20 25 7 0 21 12 31 28 16 24 50 60 109 114
11 9 24 22 31 28 46 45 73 67 96 77 15 7 27 17 27 23 0 5 16 16 35 24 19 8 38
22 41 31 3 8 12 15 19 15 8 0 27 11 43 25 17 14 34 25 40 25 5 0 20 9 34 19
13 11 36 23 51 26 14 4 31 13 38 21 6 8 19 14 29 14 9 0 29 9 44 21 14 11 26
18 26 15 0 -3 14 0 30 5 17 6 30 15 30 20 0 5 10 9 23 9 13 0 32 7 43 15 10 8
33 15 50 15 17 0 37 7 44 15 7 9 20 13 29 10 9 -2 29 2 45 10 15 8 43 15 60
15 18 0 36 3 40 7 4 4 20 8 36 9 16 1 37 5 47 9 10 4 30 7 45 6 15 -1 33 1 40
5 28 17 438 17 466 0 6 -4 26 -6 44 -5 18 2 43 -3 56 -10 12 -7 32 -9 43 -6
11 4 25 2 32 -3 7 -5 28 -12 47 -15 19 -3 55 -11 80 -17 25 -6 59 -14 77 -17
18 -3 38 -11 44 -19 6 -8 21 -14 33 -14 19 0 53 -14 138 -57 14 -7 31 -13 38
-13 6 0 23 -9 37 -20 14 -11 33 -20 43 -20 9 0 25 -9 35 -20 10 -11 28 -20 41
-20 13 0 28 -9 34 -19 5 -11 20 -23 32 -27 24 -7 55 -29 110 -76 18 -16 36
-28 41 -28 5 0 18 -11 29 -25 11 -14 25 -25 32 -25 7 0 22 -13 34 -30 13 -16
28 -30 35 -30 7 0 20 -14 29 -30 9 -17 23 -30 31 -30 8 0 19 -11 25 -24 6 -14
23 -32 37 -42 14 -9 25 -21 25 -27 0 -6 11 -23 25 -37 52 -52 85 -93 85 -106
0 -7 8 -19 18 -26 10 -7 24 -28 31 -45 7 -18 17 -33 22 -33 5 0 15 -15 22 -32
8 -18 21 -39 30 -47 10 -7 17 -22 17 -32 0 -11 9 -28 20 -39 11 -11 20 -28 20
-38 0 -10 7 -27 15 -38 8 -10 15 -26 15 -35 0 -9 9 -28 20 -42 11 -14 20 -36
20 -50 0 -13 7 -30 15 -37 8 -7 15 -25 15 -41 0 -15 4 -30 8 -33 5 -3 6 8 4
24 l-4 28 43 -15 c24 -8 52 -22 62 -30 11 -11 17 -12 17 -4 0 6 -7 14 -15 17
-10 4 -12 15 -8 34 4 21 0 33 -16 46 -14 12 -19 25 -15 40 4 15 -1 29 -16 44
-13 13 -19 28 -15 40 4 13 -2 28 -19 45 -14 14 -23 32 -20 40 3 8 -6 26 -20
40 -14 14 -23 32 -20 40 3 8 -7 26 -22 42 -16 15 -27 35 -26 44 2 9 -9 26 -23
38 -15 11 -24 25 -20 31 4 6 -7 23 -24 39 -17 16 -31 36 -31 45 0 10 -14 25
-30 34 -17 9 -28 23 -25 30 5 13 -28 52 -44 52 -5 0 -12 12 -15 26 -4 14 -18
30 -34 37 -15 7 -27 18 -28 25 -2 26 -5 30 -33 42 -17 7 -32 22 -35 36 -5 17
-16 26 -36 30 -20 4 -30 13 -32 28 -2 14 -15 25 -38 33 -19 7 -31 12 -27 12
17 2 -15 41 -38 47 -14 3 -25 12 -25 20 0 16 -31 34 -61 34 -12 0 -19 3 -16 7
11 10 -24 43 -46 43 -10 0 -28 11 -39 25 -11 14 -29 25 -41 25 -12 0 -28 9
-35 20 -8 13 -23 20 -41 20 -21 0 -32 6 -36 20 -6 20 -50 38 -62 26 -3 -3 -12
3 -20 14 -9 13 -26 20 -46 20 -22 0 -36 7 -45 21 -10 16 -21 20 -43 17 -22 -4
-33 0 -40 15 -8 14 -18 18 -41 15 -21 -4 -37 1 -50 14 -12 12 -26 16 -43 12
-16 -4 -30 0 -41 11 -12 12 -26 15 -51 10 -19 -3 -33 -2 -33 4 0 15 -37 23
-59 12 -14 -8 -22 -7 -32 5 -9 12 -24 15 -51 11 -21 -3 -38 -1 -38 3 0 15 -39
21 -60 10 -16 -9 -24 -8 -36 5 -16 15 -48 13 -68 -6 -5 -5 -15 -1 -22 9 -11
15 -17 15 -44 5 -24 -9 -36 -9 -50 -1 -14 9 -25 9 -46 -1 -19 -8 -30 -9 -38
-1 -14 14 -39 13 -61 -4z m51 -11 c12 -30 -45 -95 -82 -95 -29 0 -29 3 -7 38
41 66 77 89 89 57z m92 -6 c5 -28 -46 -79 -79 -79 -32 0 -37 11 -14 30 8 7 15
18 15 26 0 17 41 45 60 42 8 -2 16 -10 18 -19z m90 -2 c5 -27 -51 -77 -87 -77
l-30 0 30 44 c16 25 35 47 42 50 21 9 42 1 45 -17z m-272 -2 c9 -22 -34 -84
-62 -91 -34 -9 -40 1 -24 34 31 61 74 90 86 57z m364 -2 c0 -30 -51 -73 -87
-73 -18 0 -33 2 -33 4 0 2 16 23 37 45 38 43 83 56 83 24z m90 -14 c0 -35 -90
-85 -113 -63 -8 9 39 65 66 80 26 15 47 7 47 -17z m-542 0 c5 -27 -42 -84 -71
-87 -32 -4 -31 -5 -12 41 23 55 75 84 83 46z m632 -8 c0 -24 -59 -71 -88 -71
-35 0 -35 18 2 55 40 40 86 48 86 16z m-722 -12 c5 -26 -41 -84 -71 -87 l-27
-3 16 38 c9 21 23 46 32 56 18 21 45 19 50 -4z m801 12 c33 -21 -28 -81 -83
-81 -36 0 -33 12 14 54 43 39 48 40 69 27z m-893 -26 c10 -25 -29 -88 -59 -96
-26 -7 -46 4 -28 15 5 3 12 18 16 33 13 52 58 82 71 48z m991 -2 c8 -20 -51
-73 -82 -73 -41 0 -47 15 -18 42 53 48 89 60 100 31z m-1079 -35 c2 -17 -7
-35 -27 -56 -32 -35 -68 -44 -56 -14 4 9 11 32 16 49 16 54 61 68 67 21z
m1168 10 c12 -19 -56 -68 -90 -66 -41 4 -41 19 1 51 38 28 77 35 89 15z
m-1262 -67 c-11 -27 -26 -46 -42 -52 -14 -5 -26 -8 -28 -6 -10 10 12 81 33
103 22 24 26 25 39 12 13 -13 13 -20 -2 -57z m1344 37 c6 -33 -104 -78 -122
-50 -8 13 77 73 99 70 11 -2 21 -11 23 -20z m-1424 -46 c-2 -42 -29 -82 -55
-82 -18 0 -19 4 -13 38 8 49 31 84 52 80 12 -3 17 -13 16 -36z m1504 26 c18
-18 15 -27 -20 -48 -60 -37 -126 -18 -77 22 46 36 78 45 97 26z m-1590 -82
c-11 -35 -52 -76 -64 -64 -11 11 10 92 29 111 16 16 21 17 33 5 11 -11 11 -21
2 -52z m1680 32 c4 -22 -50 -50 -90 -46 -42 4 -44 19 -5 45 38 26 90 27 95 1z
m-1761 -55 c-3 -32 -12 -53 -27 -65 -34 -27 -41 -22 -34 25 8 51 29 87 51 87
13 0 15 -8 10 -47z m1839 32 c19 -15 19 -15 -4 -35 -31 -26 -88 -36 -108 -20
-17 15 -13 21 41 49 47 25 46 25 71 6z m-1918 -77 c-4 -34 -12 -56 -24 -65
-33 -24 -42 -16 -37 30 6 50 27 87 50 87 13 0 15 -9 11 -52z m2006 27 c13 -34
-98 -71 -123 -41 -8 9 -12 17 -10 19 70 40 122 49 133 22z m-2084 -70 c0 -32
-6 -51 -20 -65 -30 -30 -40 -25 -40 20 0 50 18 90 42 90 15 0 18 -8 18 -45z
m2144 39 c9 -3 16 -14 16 -25 0 -22 -66 -45 -104 -35 -37 9 -32 28 12 48 42
18 54 20 76 12z m-2219 -102 c-7 -41 -18 -58 -44 -64 -21 -4 -15 91 7 115 14
15 18 16 30 3 10 -10 12 -25 7 -54z m2299 52 c27 -10 18 -34 -19 -50 -45 -18
-64 -18 -87 3 -17 16 -17 17 19 34 41 19 63 22 87 13z m-2378 -45 c13 -21 5
-91 -12 -110 -29 -32 -39 -23 -39 35 1 66 30 109 51 75z m2462 -11 c20 -20 14
-26 -37 -43 -38 -12 -55 -14 -70 -5 -29 15 -26 24 12 43 39 19 79 21 95 5z
m-2530 -90 c2 -38 -1 -50 -20 -68 l-23 -21 -8 43 c-10 53 5 101 31 96 13 -2
18 -15 20 -50z m2583 42 c30 -17 22 -38 -18 -49 -50 -14 -54 -14 -82 6 l-24
16 44 18 c55 21 56 21 80 9z m-2653 -107 c3 -44 0 -53 -20 -67 -23 -16 -23
-16 -31 28 -9 54 5 99 31 94 13 -2 18 -15 20 -55z m2736 34 c8 -14 8 -20 -4
-27 -25 -16 -97 -12 -116 7 -16 16 -15 18 17 29 45 17 89 13 103 -9z m-2804
-61 c13 -34 5 -75 -18 -98 l-20 -21 -7 46 c-9 56 0 97 20 97 9 0 20 -11 25
-24z m2861 14 c23 -13 25 -36 3 -44 -48 -19 -144 9 -117 34 20 19 86 24 114
10z m-2921 -120 c0 -30 -5 -52 -15 -60 -18 -15 -17 -16 -33 31 -12 36 -9 61
11 87 18 23 37 -7 37 -58z m2994 50 c5 -5 6 -16 3 -24 -5 -12 -20 -16 -55 -16
-49 0 -72 12 -72 39 0 8 3 12 6 9 3 -3 17 -2 32 2 29 9 71 4 86 -10z m-3067
-62 c6 -7 13 -29 17 -49 5 -28 2 -42 -13 -60 -24 -30 -30 -24 -38 39 -8 71 8
103 34 70z m3123 -3 c22 -26 4 -45 -41 -45 -60 0 -106 43 -56 53 48 9 85 6 97
-8z m-3172 -80 c20 -44 9 -115 -17 -115 -21 0 -42 116 -24 133 13 14 30 6 41
-18z m3226 12 c12 -9 17 -20 13 -31 -13 -34 -127 -10 -127 27 0 18 91 21 114
4z m-3275 -106 c11 -35 11 -47 1 -67 -20 -36 -34 -29 -49 22 -10 35 -11 51 -2
70 16 35 33 26 50 -25z m3336 33 c24 -24 13 -39 -31 -42 -39 -3 -94 25 -94 49
0 16 107 10 125 -7z m-3384 -116 c8 -33 7 -44 -7 -66 l-17 -27 -18 40 c-21 47
-24 86 -7 103 17 17 36 -2 49 -50z m3427 46 c38 -25 28 -44 -25 -44 -47 0 -83
20 -83 45 0 18 80 17 108 -1z m55 -83 c29 -28 13 -44 -36 -37 -53 9 -77 23
-77 45 0 16 7 18 47 15 29 -2 54 -11 66 -23z m-3534 -28 c12 -33 12 -47 3 -67
-16 -36 -24 -33 -44 17 -21 50 -22 69 -6 85 19 19 32 9 47 -35z m3569 -39 c25
-17 29 -42 8 -50 -36 -14 -116 27 -116 60 0 13 87 5 108 -10z m-3624 -16 c21
-34 28 -76 16 -98 -15 -28 -24 -25 -43 15 -34 72 -11 143 27 83z m3676 -73
c16 -14 17 -21 8 -32 -23 -28 -118 9 -118 46 0 16 6 17 45 11 25 -4 54 -15 65
-25z m-3719 -6 c21 -40 29 -81 18 -100 -15 -28 -22 -24 -47 31 -18 39 -21 54
-12 70 14 26 26 25 41 -1z m3747 -65 c12 -8 22 -24 22 -36 0 -18 -4 -20 -36
-15 -47 8 -84 33 -84 57 0 16 5 18 38 13 20 -3 47 -12 60 -19z m-3778 -34 c23
-45 25 -71 8 -88 -23 -23 -75 76 -58 109 16 28 27 24 50 -21z m3810 -50 c14
-9 26 -25 28 -34 4 -21 -35 -22 -83 -2 -27 12 -35 21 -35 40 0 23 3 25 33 20
17 -3 43 -14 57 -24z m-3840 -40 c23 -46 25 -63 7 -79 -28 -23 -82 84 -57 114
16 19 26 12 50 -35z m3888 -54 c17 -17 9 -46 -13 -46 -20 0 -77 29 -87 44 -4
6 -8 19 -8 28 0 16 4 16 47 3 25 -8 53 -21 61 -29z"/>
<path d="M3130 3696 c-141 -41 -217 -127 -226 -256 -2 -30 -7 -56 -12 -58 -5
-1 -30 -16 -55 -32 -75 -47 -103 -125 -81 -223 17 -80 86 -127 183 -127 61 0
61 0 77 -37 9 -21 21 -68 27 -105 l10 -67 36 28 c89 70 230 117 391 130 81 7
84 8 55 20 -83 36 -231 20 -361 -39 -37 -16 -70 -30 -74 -30 -4 0 -12 19 -19
43 -7 23 -22 58 -33 78 l-20 37 -62 -5 c-75 -5 -123 16 -148 67 -36 70 -13
149 54 190 18 11 35 20 38 20 3 0 18 -20 33 -44 15 -24 40 -52 55 -62 l27 -17
-22 24 c-87 95 -66 283 40 360 111 80 271 77 351 -7 31 -33 66 -96 66 -119 0
-18 18 -19 57 -4 49 19 149 13 182 -10 37 -27 61 -78 61 -134 0 -66 -38 -104
-128 -132 -22 -6 -23 -5 -18 27 3 19 0 46 -8 63 l-14 30 -1 -35 c-2 -48 -34
-115 -73 -150 -38 -35 -29 -38 24 -10 l37 19 15 -52 c26 -85 34 -88 33 -12
l-2 68 48 13 c123 32 174 131 131 257 -33 96 -129 148 -240 129 l-54 -9 -25
42 c-27 47 -79 96 -128 122 -41 21 -167 27 -227 9z"/>
<path d="M1335 3601 c-68 -24 -95 -42 -100 -66 -2 -11 -13 -73 -24 -137 -12
-65 -37 -164 -57 -220 -20 -57 -38 -112 -41 -124 -5 -23 7 -30 112 -60 33 -10
64 -21 68 -25 12 -9 -85 -67 -160 -95 -96 -36 -163 -31 -215 18 -29 27 -30 32
-25 82 10 95 73 195 174 273 74 58 73 56 38 48 -61 -14 -151 -64 -193 -106
-24 -24 -56 -70 -72 -103 -84 -167 15 -298 214 -283 85 6 130 25 331 139 310
176 414 218 543 218 109 0 239 -45 352 -122 65 -45 65 -40 -1 25 -124 120
-252 173 -398 164 -100 -6 -150 -21 -286 -89 l-100 -50 -74 6 c-68 7 -150 24
-193 41 -24 9 -23 21 11 155 52 207 60 228 95 255 38 29 97 55 146 65 29 6 24
8 -30 8 -39 1 -85 -6 -115 -17z"/>
<path d="M1695 3609 c-22 -4 -60 -16 -85 -27 -62 -28 -150 -53 -150 -43 0 5
10 16 23 25 22 15 21 15 -8 5 -65 -23 -129 -78 -111 -96 12 -13 205 29 268 59
78 36 132 36 211 -1 39 -18 52 -30 68 -67 10 -25 22 -71 26 -102 5 -48 7 -53
16 -31 11 31 1 150 -17 194 -9 20 -28 41 -48 51 -46 25 -146 41 -193 33z"/>
<path d="M1752 2968 c-99 -12 -279 -58 -380 -98 -46 -17 -82 -33 -80 -35 2 -1
59 8 128 21 236 43 544 59 684 34 80 -15 171 -9 212 14 29 15 29 15 -36 16
-45 0 -95 10 -158 30 -80 26 -107 30 -195 29 -56 -1 -135 -6 -175 -11z"/>
<path d="M3670 2788 c-43 -21 -44 -22 -17 -26 15 -2 28 -4 29 -5 1 -1 5 -141
8 -312 l5 -310 37 -9 c29 -7 42 -6 62 8 l26 16 0 158 c0 145 2 160 20 180 28
30 56 28 77 -5 15 -22 18 -49 18 -148 -1 -141 -17 -217 -51 -244 -29 -23 -30
-31 -4 -31 28 0 90 33 117 62 89 95 99 372 17 437 -47 37 -109 26 -166 -27
l-28 -26 0 132 c0 119 -2 134 -20 152 -26 26 -73 25 -130 -2z"/>
<path d="M4707 2796 c-74 -27 -107 -78 -107 -166 l0 -50 -40 0 c-54 0 -56 -27
-2 -32 l37 -3 -1 -225 c-1 -242 -8 -295 -49 -336 -36 -36 -87 -33 -118 7 -30
39 -60 34 -55 -8 4 -40 40 -54 124 -51 94 4 154 39 198 118 l31 55 3 223 4
222 50 0 c65 0 61 24 -5 28 l-47 3 0 69 c0 38 5 80 12 94 21 48 75 45 105 -5
21 -35 41 -37 52 -6 12 32 -4 55 -47 67 -50 13 -99 12 -145 -4z"/>
<path d="M253 2770 c-54 -11 -112 -42 -142 -74 -18 -19 -26 -41 -29 -80 -4
-48 -1 -57 21 -80 51 -51 137 -26 137 40 0 41 -20 53 -55 34 -33 -18 -55 -6
-55 28 0 53 74 102 137 90 17 -3 18 -21 23 -286 5 -265 6 -285 24 -298 50 -36
198 -30 281 11 63 30 129 99 157 162 29 66 36 192 14 267 -21 72 -77 135 -149
167 -45 19 -71 23 -187 25 -74 2 -154 -1 -177 -6z m311 -64 c39 -41 57 -97 63
-201 10 -154 -27 -289 -87 -320 -41 -21 -87 -19 -100 4 -13 25 -14 490 0 525
8 22 16 26 51 26 34 0 47 -6 73 -34z"/>
<path d="M3355 2762 c-56 -26 -118 -98 -146 -168 -20 -51 -23 -77 -24 -189 0
-151 16 -218 68 -287 49 -65 107 -92 192 -92 76 -1 130 20 173 67 33 35 12 43
-33 13 -99 -67 -192 -28 -231 97 -22 71 -30 247 -15 332 24 136 70 205 137
205 36 0 36 0 49 -81 8 -51 29 -67 63 -49 54 31 49 100 -11 144 -40 30 -166
34 -222 8z"/>
<path d="M2360 2671 c-21 -42 -57 -72 -104 -88 -38 -12 -46 -33 -12 -33 l25 0
3 -184 c3 -177 4 -185 26 -209 45 -48 130 -41 176 14 33 39 34 60 2 30 -17
-16 -31 -21 -45 -16 -20 6 -21 13 -21 186 l0 179 35 0 c19 0 35 -4 35 -8 0 -5
10 -8 23 -8 18 1 29 -13 59 -70 37 -70 138 -358 138 -393 0 -33 -106 -101
-159 -101 -20 0 -35 8 -49 27 -17 23 -22 25 -36 14 -23 -19 -20 -58 6 -72 13
-7 44 -9 81 -6 194 18 374 293 365 558 -3 80 -4 84 -27 87 -38 6 -44 -9 -30
-76 11 -50 10 -73 -3 -138 -9 -44 -23 -97 -32 -119 l-17 -39 -45 134 c-47 143
-82 213 -114 230 -10 5 -37 10 -59 10 -39 0 -41 2 -41 29 0 29 -14 42 -37 34
-15 -5 -17 -43 -3 -43 6 0 10 -4 10 -10 0 -5 -22 -10 -50 -10 l-50 0 0 65 c0
78 -18 87 -50 26z"/>
<path d="M972 2555 c-63 -32 -108 -93 -122 -164 -30 -158 79 -285 228 -264 51
7 135 59 140 86 3 17 1 17 -28 -4 -59 -44 -139 -25 -180 44 -37 59 -29 77 58
126 134 76 156 112 108 167 -20 24 -32 28 -87 32 -54 3 -72 -1 -117 -23z m103
-39 c9 -14 15 -39 13 -57 -2 -27 -11 -38 -52 -61 -27 -16 -51 -27 -53 -24 -12
12 10 117 28 140 26 32 44 33 64 2z"/>
<path d="M1274 2566 c-43 -19 -51 -35 -17 -33 l28 2 3 -299 c1 -201 6 -304 13
-313 14 -16 91 -17 107 -1 8 8 12 50 12 125 0 102 7 132 25 103 12 -20 83 -31
125 -20 51 14 85 58 106 140 29 115 -2 249 -68 290 -43 27 -129 23 -159 -7
l-21 -20 -23 23 c-28 28 -81 31 -131 10z m241 -60 c29 -29 40 -92 32 -191 -7
-94 -27 -135 -67 -135 -50 0 -60 27 -60 171 0 113 2 129 21 153 25 32 43 33
74 2z"/>
<path d="M1764 2561 c-18 -11 -35 -25 -39 -31 -11 -17 3 -24 20 -10 22 18 23
7 27 -170 2 -130 6 -160 21 -183 37 -57 95 -58 176 -2 l49 34 5 -28 c11 -54
87 -64 149 -20 34 24 36 40 6 36 l-23 -2 -3 180 c-2 169 -3 181 -23 198 -38
31 -121 16 -151 -27 -14 -19 -8 -29 8 -15 27 22 34 -7 34 -147 0 -140 -1 -144
-58 -173 -46 -24 -52 -5 -52 175 0 151 -2 166 -20 184 -26 26 -85 26 -126 1z"/>
<path d="M4262 2555 c-63 -32 -108 -93 -122 -164 -30 -158 79 -285 228 -264
51 7 135 59 140 86 3 17 1 17 -28 -4 -59 -44 -139 -25 -180 44 -37 59 -29 77
58 126 134 76 156 112 108 167 -20 24 -32 28 -87 32 -54 3 -72 -1 -117 -23z
m103 -39 c9 -14 15 -39 13 -57 -2 -27 -11 -38 -52 -61 -27 -16 -51 -27 -53
-24 -12 12 10 117 28 140 26 32 44 33 64 2z"/>
<path d="M467 1876 c4 -6 6 -23 4 -38 -1 -18 4 -31 18 -40 14 -8 19 -19 15
-34 -4 -15 2 -30 17 -45 13 -13 22 -33 21 -45 -2 -13 6 -29 20 -40 14 -12 22
-27 20 -40 -2 -14 6 -29 23 -42 16 -12 23 -26 19 -36 -4 -9 4 -25 20 -39 14
-13 26 -34 26 -45 0 -12 11 -29 25 -38 14 -9 22 -20 19 -25 -8 -14 14 -47 36
-54 13 -4 20 -15 20 -32 0 -18 8 -28 30 -36 21 -8 30 -18 30 -34 0 -15 10 -28
30 -38 19 -10 30 -23 30 -36 0 -14 10 -25 30 -32 17 -6 30 -20 32 -31 2 -11
14 -26 27 -33 14 -6 31 -23 38 -36 7 -14 23 -27 36 -31 13 -3 29 -16 35 -30 6
-15 23 -27 42 -31 17 -4 29 -9 26 -13 -10 -9 26 -42 46 -42 11 0 23 -11 28
-25 7 -18 17 -25 37 -25 20 0 31 -7 38 -22 7 -16 20 -24 43 -26 19 -2 32 -9
32 -17 0 -17 31 -35 59 -35 12 0 21 -6 21 -14 0 -16 21 -26 56 -26 14 0 24 -6
24 -14 0 -16 21 -26 53 -26 12 0 28 -10 35 -21 11 -17 20 -20 48 -16 24 4 34
2 34 -8 0 -16 22 -25 60 -25 16 0 30 -7 34 -16 4 -10 16 -14 35 -12 16 1 36
-3 44 -11 9 -7 29 -11 45 -10 17 2 36 -3 46 -14 20 -20 18 -20 50 -8 18 8 28
6 37 -5 10 -12 23 -14 51 -10 21 4 38 2 38 -3 0 -15 29 -21 56 -11 19 8 29 6
40 -5 18 -18 29 -19 54 -5 14 8 25 7 40 -2 14 -9 27 -10 48 -2 20 8 33 8 45 0
12 -7 25 -7 45 0 20 8 33 8 45 0 12 -7 25 -7 45 0 20 8 33 8 45 0 13 -8 24 -7
45 5 20 11 34 13 50 6 15 -7 28 -6 44 5 13 9 36 13 54 11 20 -3 35 1 43 11 10
12 18 13 33 5 16 -9 26 -7 47 9 21 15 32 17 45 10 14 -8 25 -5 46 10 17 13 36
19 49 15 14 -3 29 2 42 13 12 10 31 17 44 16 14 -2 32 5 44 17 12 12 27 18 36
15 8 -4 27 2 43 12 15 10 37 17 48 16 13 -2 29 6 40 20 12 14 27 22 40 20 14
-2 29 6 42 23 12 15 26 24 31 20 15 -9 49 12 56 34 3 12 12 18 20 15 19 -8 52
12 60 36 4 11 11 18 16 14 16 -10 46 6 57 31 7 15 17 22 26 19 9 -3 23 6 36
25 13 16 33 32 47 36 13 3 28 17 33 30 6 16 17 25 31 25 14 0 24 10 32 30 6
17 19 30 28 30 20 0 49 31 49 54 0 10 5 14 11 11 14 -9 49 24 49 47 0 10 6 18
13 18 18 0 47 32 47 51 0 8 10 19 23 24 12 6 27 26 34 45 7 19 12 31 12 26 2
-19 41 28 41 48 0 12 9 25 23 31 14 7 23 20 25 40 2 20 11 34 25 40 15 7 23
20 25 43 2 18 9 32 17 32 14 0 25 21 25 48 0 10 9 23 20 30 12 7 20 23 20 40
0 16 9 35 21 46 15 12 20 26 17 47 -3 18 0 29 8 29 14 0 24 23 24 57 0 14 7
31 15 37 12 9 8 11 -19 12 -33 0 -34 -1 -20 -20 16 -24 19 -62 4 -71 -16 -10
-41 15 -61 60 -12 27 -19 33 -19 20 0 -11 -7 -29 -15 -39 -8 -11 -15 -30 -15
-42 0 -12 -7 -27 -15 -34 -8 -7 -15 -21 -15 -32 0 -10 -9 -28 -20 -40 -11 -12
-20 -30 -20 -40 0 -10 -9 -27 -20 -38 -11 -11 -20 -28 -20 -38 0 -10 -11 -29
-25 -42 -14 -13 -25 -31 -25 -41 0 -9 -7 -20 -15 -23 -9 -3 -22 -20 -30 -39
-7 -18 -23 -41 -34 -51 -12 -11 -21 -23 -21 -29 0 -5 -11 -18 -25 -29 -14 -11
-25 -27 -25 -37 0 -10 -11 -23 -25 -29 -14 -6 -25 -16 -25 -21 0 -5 -37 -46
-82 -90 -46 -43 -95 -91 -109 -105 -15 -14 -31 -26 -37 -26 -6 0 -19 -11 -29
-24 -10 -13 -29 -26 -41 -30 -12 -4 -27 -16 -32 -27 -6 -10 -17 -19 -26 -19
-8 0 -26 -11 -39 -24 -13 -13 -35 -26 -49 -30 -14 -3 -30 -15 -36 -26 -6 -11
-20 -20 -30 -20 -11 0 -29 -9 -40 -20 -11 -11 -28 -20 -38 -20 -10 0 -27 -7
-38 -15 -10 -8 -26 -15 -35 -15 -9 0 -27 -8 -40 -18 -13 -10 -35 -19 -48 -20
-13 0 -31 -8 -40 -16 -10 -9 -29 -16 -43 -16 -14 0 -31 -7 -38 -15 -7 -9 -20
-13 -28 -10 -7 3 -28 -1 -45 -9 -30 -14 -53 -19 -137 -33 -19 -3 -40 -10 -47
-15 -6 -5 -20 -8 -30 -7 -10 2 -31 0 -48 -4 -78 -18 -442 -27 -478 -12 -10 4
-31 5 -47 2 -16 -4 -32 -2 -36 4 -3 6 -20 9 -38 8 -17 -1 -44 3 -60 10 -16 6
-36 9 -44 6 -8 -3 -20 -1 -26 4 -7 6 -27 12 -46 14 -19 3 -47 9 -61 15 -15 6
-29 8 -32 5 -3 -3 -16 2 -29 11 -12 9 -34 16 -48 16 -14 0 -34 7 -44 15 -11 8
-29 15 -40 15 -11 0 -27 7 -36 15 -9 8 -27 16 -40 17 -13 2 -32 11 -42 20 -10
10 -29 18 -43 18 -14 0 -25 4 -25 10 0 5 -13 16 -30 25 -16 9 -30 12 -30 9 0
-4 -10 2 -22 14 -13 11 -34 26 -48 32 -14 6 -43 24 -65 41 -22 16 -56 40 -75
53 -19 13 -41 31 -49 40 -7 9 -17 16 -21 16 -5 0 -22 12 -38 28 -16 15 -36 32
-43 39 -8 7 -19 18 -26 25 -6 7 -33 35 -60 61 -26 27 -61 64 -78 83 -16 20
-42 48 -57 64 -16 15 -28 32 -28 38 0 5 -7 16 -17 23 -9 8 -22 29 -30 47 -7
18 -20 35 -28 39 -8 3 -15 11 -15 18 0 8 -11 27 -25 43 -14 17 -25 36 -25 44
0 8 -9 24 -20 36 -11 12 -20 27 -20 35 0 8 -9 26 -20 40 -11 14 -20 34 -20 44
0 11 -8 28 -17 39 -10 10 -19 30 -21 43 -1 14 -9 32 -17 41 -8 9 -15 27 -16
41 -1 23 -1 23 -7 3 -7 -21 -8 -21 -59 -4 -30 10 -49 12 -46 6z m103 -45 c14
-10 26 -27 28 -39 3 -19 1 -20 -40 -10 -52 13 -83 40 -74 63 7 21 47 14 86
-14z m3809 -22 c31 -41 34 -94 6 -94 -26 0 -59 66 -51 100 8 33 17 31 45 -6z
m-3785 -53 c29 -12 56 -49 44 -61 -9 -9 -93 15 -110 33 -38 38 2 55 66 28z
m3754 -36 c24 -42 29 -85 11 -96 -26 -16 -67 74 -54 116 9 29 17 25 43 -20z
m-3724 -40 c23 -8 63 -56 55 -64 -8 -9 -104 15 -118 28 -33 33 9 57 63 36z
m3704 -99 c-2 -18 -9 -26 -23 -26 -30 0 -54 73 -36 111 l12 28 25 -44 c14 -24
24 -55 22 -69z m-3666 19 c33 -10 58 -33 58 -56 0 -13 -102 3 -117 19 -17 17
-11 47 9 47 7 0 30 -5 50 -10z m3608 -36 c24 -56 25 -68 4 -84 -22 -19 -44 6
-51 59 -5 35 7 71 23 71 2 0 12 -21 24 -46z m-3551 -45 c27 -10 51 -34 51 -54
0 -3 -23 -3 -52 -1 -55 5 -84 25 -75 50 7 19 32 20 76 5z m3505 -32 c20 -53
20 -71 1 -87 -20 -17 -33 -5 -46 42 -7 29 -8 48 0 65 15 33 26 29 45 -20z
m-36 -137 c-2 -17 -10 -26 -24 -28 -18 -3 -23 5 -33 44 -10 40 -9 50 5 72 l17
26 19 -44 c10 -24 18 -56 16 -70z m-3414 90 c14 -5 30 -18 36 -30 10 -19 8
-20 -39 -20 -52 0 -100 27 -87 48 9 14 55 16 90 2z m68 -86 c29 -27 22 -34
-36 -34 -56 0 -83 17 -73 44 7 19 84 12 109 -10z m3284 -19 c14 -43 10 -81
-11 -89 -18 -7 -32 12 -40 55 -7 39 8 83 27 77 5 -2 16 -21 24 -43z m-3222
-58 l18 -22 -57 -3 c-57 -3 -85 8 -85 33 0 32 95 25 124 -8z m3165 -13 c20
-67 -11 -126 -39 -75 -21 40 -8 121 20 121 3 0 12 -21 19 -46z m-3115 -45 c35
-28 25 -39 -38 -39 -51 0 -76 12 -76 36 0 28 79 30 114 3z m3055 -10 c16 -45
14 -75 -6 -94 -16 -16 -17 -16 -30 1 -25 34 -12 124 18 124 4 0 12 -14 18 -31z
m-54 -91 c7 -40 -7 -78 -29 -78 -30 0 -36 92 -9 122 20 22 29 12 38 -44z
m-2933 30 l23 -23 -40 -7 c-58 -10 -69 -9 -90 6 -11 8 -16 19 -12 30 10 26 91
22 119 -6z m2867 -109 c1 -40 -22 -70 -41 -51 -14 14 -18 73 -5 97 25 49 44
31 46 -46z m-2808 52 c31 -25 23 -31 -43 -38 -42 -4 -56 -2 -67 11 -17 20 -7
32 29 39 48 8 58 7 81 -12z m2742 -73 c6 -48 -10 -93 -33 -93 -23 0 -26 92 -4
116 25 28 31 24 37 -23z m-2665 4 c11 -15 7 -18 -38 -30 -57 -14 -94 -3 -88
26 6 34 101 37 126 4z m2594 -54 c3 -60 -1 -83 -18 -95 -25 -18 -34 -7 -34 44
0 70 48 116 52 51z m-2531 3 l24 -19 -43 -12 c-56 -15 -96 -10 -100 13 -7 35
81 49 119 18z m2448 -147 c-15 -19 -35 -18 -43 2 -11 28 6 94 28 110 21 14 21
13 24 -42 2 -32 -2 -62 -9 -70z m-2394 104 c14 -6 25 -16 25 -22 0 -16 -84
-39 -110 -31 -42 13 -14 45 57 64 1 1 14 -4 28 -11z m2320 -144 c-23 -35 -39
-25 -43 24 -3 35 2 46 25 69 l28 28 3 -48 c2 -33 -2 -57 -13 -73z m-2215 71
c0 -11 -78 -36 -105 -33 -22 2 -30 8 -30 23 0 29 70 48 108 28 15 -7 27 -16
27 -18z m2153 -57 c-7 -60 -17 -78 -46 -78 -18 0 -19 4 -13 48 4 30 13 53 27
65 33 27 38 21 32 -35z m-2100 28 c24 -18 22 -21 -21 -40 -77 -35 -135 0 -62
36 41 21 59 22 83 4z m2027 -61 c0 -59 -33 -107 -62 -89 -14 9 -1 84 19 106
26 29 43 22 43 -17z m-1940 11 c9 -12 4 -18 -34 -35 -52 -24 -67 -26 -84 -9
-18 18 -15 26 16 42 35 19 86 20 102 2z m1860 -51 c0 -61 -37 -112 -63 -86
-14 14 1 79 24 102 28 28 39 24 39 -16z m-1781 11 c9 -11 4 -18 -29 -35 -64
-33 -121 -23 -89 16 27 32 98 44 118 19z m1707 -23 c-2 -10 -7 -32 -11 -49 -8
-40 -41 -72 -56 -57 -16 16 -2 80 22 104 24 24 52 25 45 2z m-1641 -5 c14 -6
25 -14 25 -17 0 -3 -18 -16 -40 -28 -41 -24 -85 -30 -95 -13 -12 19 18 43 82
69 1 1 14 -4 28 -11z m1561 -34 c-3 -9 -9 -28 -12 -42 -12 -48 -52 -79 -69
-52 -8 14 12 76 32 95 20 21 57 20 49 -1z m-1466 -4 c13 -9 11 -13 -10 -30
-55 -43 -110 -50 -110 -15 0 18 57 55 85 55 11 0 27 -5 35 -10z m1376 -50
c-22 -73 -76 -111 -76 -52 0 41 35 92 64 92 23 0 24 -1 12 -40z m-1302 24 c9
-3 16 -10 16 -14 0 -13 -76 -60 -97 -60 -46 0 -39 38 10 63 36 18 48 20 71 11z
m1220 -41 c-9 -40 -38 -78 -63 -81 -27 -4 -27 16 -1 68 16 31 26 40 45 40 22
0 25 -3 19 -27z m-1130 11 c22 -9 -60 -76 -88 -72 -34 5 -31 35 6 58 34 21 55
24 82 14z m1056 -11 c0 -5 -11 -28 -24 -53 -17 -35 -29 -46 -51 -48 -26 -3
-27 -2 -21 24 12 45 45 84 72 84 13 0 24 -3 24 -7z m-966 -12 c10 -16 -63 -71
-94 -71 -39 0 -38 18 2 52 32 27 81 37 92 19z m76 -11 c18 -10 17 -13 -17 -45
-24 -23 -47 -35 -65 -35 -38 0 -36 21 7 59 39 34 47 36 75 21z m800 6 c0 -23
-43 -96 -59 -101 -46 -14 -52 14 -16 68 18 26 33 37 50 37 14 0 25 -2 25 -4z
m-705 -27 c10 -14 -60 -79 -85 -79 -37 0 -37 31 0 62 35 28 74 37 85 17z m615
7 c0 -2 -7 -20 -15 -40 -16 -38 -57 -72 -75 -61 -16 10 -12 27 15 68 18 26 33
37 50 37 14 0 25 -2 25 -4z m-525 -17 c11 -16 -60 -79 -90 -79 -35 0 -32 25 7
61 33 29 71 38 83 18z m355 -8 c-1 -3 -13 -24 -28 -46 -29 -41 -56 -55 -75
-36 -13 13 36 88 61 94 20 4 42 -2 42 -12z m90 14 c0 -15 -53 -86 -71 -95 -47
-26 -50 23 -4 73 22 23 75 39 75 22z m-357 -11 c9 -9 -35 -64 -64 -79 -54 -28
-64 24 -12 65 25 19 63 26 76 14z m91 -3 c9 -14 -69 -91 -92 -91 -32 0 -28 28
10 67 30 31 71 43 82 24z m86 -4 c0 -25 -62 -88 -83 -85 -32 5 -31 23 4 62 31
36 79 50 79 23z"/>
<path d="M1780 1852 c0 -10 -5 -23 -12 -30 -9 -9 -9 -12 -1 -12 7 0 13 -20 15
-47 3 -43 6 -48 28 -51 22 -2 23 -1 8 8 -12 7 -18 24 -18 50 0 32 4 39 23 43
l22 4 -22 2 c-17 1 -23 7 -23 26 0 14 -4 25 -10 25 -5 0 -10 -8 -10 -18z"/>
<path d="M2580 1790 c0 -47 4 -80 10 -80 6 0 10 33 10 80 0 47 -4 80 -10 80
-6 0 -10 -33 -10 -80z"/>
<path d="M2930 1790 c0 -47 4 -80 10 -80 6 0 10 33 10 80 0 47 -4 80 -10 80
-6 0 -10 -33 -10 -80z"/>
<path d="M1016 1847 c-29 -22 -16 -50 32 -67 27 -9 42 -20 42 -31 0 -22 -16
-28 -59 -21 -24 4 -32 2 -27 -6 9 -16 79 -15 94 0 25 25 13 48 -33 68 -58 25
-61 50 -4 50 24 0 38 4 34 10 -9 14 -58 12 -79 -3z"/>
<path d="M1980 1785 c0 -82 17 -104 22 -27 l3 47 24 -38 24 -38 26 43 26 43 3
-52 c5 -81 22 -63 22 22 0 41 -3 75 -8 75 -4 0 -21 -23 -38 -51 l-31 -51 -32
51 c-18 28 -35 51 -37 51 -2 0 -4 -34 -4 -75z"/>
<path d="M2750 1785 c0 -43 4 -75 10 -75 6 0 10 11 10 25 0 22 4 25 33 25 40
0 57 15 57 52 0 33 -24 48 -74 48 l-36 0 0 -75z m88 26 c4 -26 -12 -41 -45
-41 -20 0 -23 5 -23 36 0 34 1 35 33 32 25 -2 33 -8 35 -27z"/>
<path d="M1213 1823 c-21 -4 -23 -10 -21 -61 l1 -57 6 50 c5 43 9 50 30 53 29
5 41 -12 41 -60 0 -21 5 -38 11 -38 6 0 9 18 8 47 -3 39 0 48 14 51 29 6 47
-17 47 -59 0 -22 5 -39 10 -39 6 0 10 18 10 40 0 47 -31 86 -58 74 -20 -8 -41
-9 -62 -2 -8 3 -25 3 -37 1z"/>
<path d="M1470 1817 c-31 -16 -39 -61 -14 -88 12 -14 28 -18 56 -17 l38 3 0
53 c0 38 -4 52 -14 52 -8 0 -20 2 -28 5 -7 3 -24 -1 -38 -8z m58 -16 c8 -5 12
-21 10 -37 -3 -26 -7 -29 -38 -29 -31 0 -35 3 -38 29 -4 29 10 46 38 46 8 0
21 -4 28 -9z"/>
<path d="M1671 1821 c-8 -5 -20 -7 -28 -4 -10 4 -13 -8 -13 -51 0 -65 17 -76
22 -13 2 32 8 44 26 52 12 5 22 13 22 17 0 10 -12 10 -29 -1z"/>
<path d="M2225 1805 c-29 -28 -31 -42 -9 -73 18 -26 65 -30 84 -7 14 17 7 19
-20 5 -14 -7 -24 -5 -42 10 l-23 19 48 1 c40 0 47 3 47 19 0 18 -34 51 -53 51
-4 0 -19 -11 -32 -25z m65 -10 c11 -13 7 -15 -30 -15 -37 0 -41 2 -30 15 7 8
20 15 30 15 10 0 23 -7 30 -15z"/>
<path d="M2405 1806 c-30 -30 -32 -49 -5 -76 14 -14 32 -19 60 -18 l40 1 0 54
c0 46 -3 53 -19 53 -11 0 -26 3 -35 6 -9 3 -26 -5 -41 -20z m73 -37 c2 -29 -1
-37 -17 -42 -11 -2 -29 2 -40 10 -39 27 -19 76 29 71 21 -3 26 -9 28 -39z"/>
<path d="M3060 1817 c-31 -16 -39 -61 -14 -88 12 -14 28 -18 56 -17 l38 3 0
53 c0 38 -4 52 -14 52 -8 0 -20 2 -28 5 -7 3 -24 -1 -38 -8z m58 -16 c8 -5 12
-21 10 -37 -3 -26 -7 -29 -38 -29 -31 0 -35 3 -38 29 -4 29 10 46 38 46 8 0
21 -4 28 -9z"/>
<path d="M3248 1823 c-27 -4 -28 -7 -28 -59 0 -30 5 -54 10 -54 6 0 10 20 10
45 0 33 5 47 16 52 28 11 49 -11 52 -56 2 -22 8 -41 14 -41 18 0 3 92 -18 107
-10 7 -20 12 -23 12 -3 -1 -18 -4 -33 -6z"/>
<path d="M3428 1823 c-27 -4 -28 -7 -28 -59 0 -66 18 -72 22 -6 3 45 4 47 33
47 29 0 30 -2 33 -47 4 -61 22 -63 22 -4 0 35 -5 48 -22 60 -12 9 -25 15 -28
15 -3 -1 -17 -4 -32 -6z"/>
<path d="M3620 1823 c-65 -23 -43 -119 26 -111 41 5 39 23 -3 23 -20 0 -38 6
-40 13 -3 8 9 12 41 12 39 0 46 3 46 19 0 11 -10 27 -22 35 -24 17 -25 17 -48
9z m48 -30 c2 -9 -8 -13 -33 -13 -33 0 -36 2 -25 15 15 18 51 16 58 -2z"/>
<path d="M3800 1821 c-8 -6 -18 -7 -22 -5 -4 3 -7 -21 -7 -53 1 -54 2 -55 8
-18 8 48 17 65 37 65 8 0 14 5 14 10 0 12 -10 13 -30 1z"/>
<path d="M2429 1518 l-33 -67 -50 -6 c-94 -12 -94 -11 -38 -69 l50 -51 -13
-67 c-8 -46 -9 -68 -2 -68 6 0 34 14 64 30 l53 30 61 -31 c34 -16 63 -28 66
-26 2 3 -1 33 -8 67 l-12 61 53 54 c58 59 59 58 -38 70 l-53 7 -33 66 -34 67
-33 -67z"/>
<path d="M2001 1358 c-15 -51 -28 -68 -50 -68 -9 -1 -29 -7 -46 -13 l-29 -13
44 -31 c44 -30 44 -30 41 -86 -1 -32 1 -57 4 -57 4 0 26 14 50 31 l43 31 46
-17 c26 -10 49 -16 51 -13 3 2 -2 26 -11 52 l-16 47 31 44 c17 24 31 46 31 49
0 3 -24 6 -54 6 -52 0 -56 2 -83 40 -15 22 -31 40 -34 40 -3 0 -12 -19 -18
-42z"/>
<path d="M2872 1358 c-28 -41 -30 -42 -81 -39 -59 3 -63 -5 -26 -53 29 -38 30
-49 10 -105 -16 -47 -16 -47 48 -25 l47 16 42 -32 43 -31 3 56 c3 52 5 58 42
83 22 15 38 31 37 36 -2 5 -24 15 -49 23 -43 12 -48 17 -63 63 -9 28 -18 50
-20 50 -2 0 -17 -19 -33 -42z"/>
</g>
</svg>
