<svg version="1.1" id="Layer_1" xmlns="http://www.w3.org/2000/svg" xmlns:xlink="http://www.w3.org/1999/xlink" x="0px" y="0px"
	 width="100%" viewBox="0 0 800 832" enable-background="new 0 0 800 832" xml:space="preserve">
<path fill="current" stroke="current" 
	d="
M288.974243,480.720642 
	C288.559875,471.386993 286.660370,462.759460 283.884979,454.395599 
	C279.534668,441.285828 277.956635,427.798340 277.707336,414.125702 
	C277.309601,392.312378 277.592743,370.495422 278.957916,348.718231 
	C280.258148,327.977325 282.250671,307.266266 281.738831,286.456055 
	C281.421967,273.571716 277.325439,261.285675 275.222107,248.681137 
	C272.067719,229.778229 269.321503,210.790878 274.283386,191.791718 
	C281.317932,164.856323 297.212067,143.622192 317.998260,125.805412 
	C338.621643,108.128136 362.466400,96.690666 388.931152,90.829262 
	C393.298828,89.861916 395.087982,88.257324 394.895691,83.640045 
	C394.606476,76.694908 394.894012,76.667625 401.623352,76.663757 
	C418.121887,76.654289 434.622589,76.807396 451.117584,76.566078 
	C455.766663,76.498062 458.234436,77.669571 457.322662,82.626869 
	C456.295227,88.212784 459.048615,89.831673 464.130219,91.036568 
	C509.593872,101.816376 545.296570,126.292709 568.580322,167.355896 
	C576.115295,180.644470 580.683533,194.956131 580.437195,210.655441 
	C580.047607,235.480164 580.818298,260.333313 579.997864,285.138062 
	C579.262512,307.371704 577.071655,329.558319 575.467712,351.761688 
	C574.485962,365.352631 573.048462,378.920441 572.444946,392.526550 
	C571.572693,412.188965 567.981018,431.453583 564.857544,450.798309 
	C563.561279,458.826569 562.283691,466.858917 560.859253,474.864807 
	C560.396240,477.466797 561.260559,479.804108 561.806458,482.187164 
	C564.440491,493.686676 567.252625,505.145477 569.870544,516.648499 
	C570.343506,518.726379 570.326294,520.943542 570.328552,523.096558 
	C570.356689,549.760864 570.344055,576.425171 570.347656,603.089478 
	C570.348572,609.620300 570.358093,609.635742 577.086304,609.650391 
	C584.418945,609.666321 591.756470,609.492249 599.082214,609.716858 
	C602.504089,609.821899 604.442505,608.671326 606.217529,605.667725 
	C616.961792,587.487305 632.992737,578.448669 654.169250,578.822266 
	C680.690308,579.290222 702.540466,602.399597 703.572876,628.864502 
	C704.587036,654.862122 686.036804,676.100830 664.366516,681.306335 
	C633.286804,688.772034 603.706055,668.095703 599.948547,636.029663 
	C599.510681,632.292542 598.283447,631.213074 594.762024,631.312378 
	C587.934753,631.505005 581.098206,631.386414 574.265625,631.362244 
	C572.005066,631.354248 570.038208,631.863708 570.408569,634.622559 
	C571.793213,644.938660 566.171814,653.247009 562.521057,662.046936 
	C554.738892,680.805359 546.537292,699.389404 538.666565,718.111755 
	C537.344238,721.257080 535.297424,722.608032 532.123596,723.420837 
	C502.329010,731.050171 472.217896,735.843933 441.325317,734.223206 
	C437.835205,734.040161 434.288086,733.858948 430.834442,734.257507 
	C417.623474,735.782288 405.536316,731.679932 393.440033,727.324219 
	C390.637451,726.315002 389.533295,724.701172 389.618408,721.768982 
	C389.767517,716.631897 389.660004,711.487427 389.660004,706.122681 
	C386.424103,705.758301 384.178741,707.320190 381.872253,708.369568 
	C357.160095,719.612305 331.259674,726.615723 304.420593,730.382019 
	C286.453735,732.903076 268.410736,734.580139 250.272293,734.133301 
	C225.765167,733.529663 201.660461,729.499268 177.789169,724.184814 
	C149.958374,717.988953 122.636589,710.104248 97.088013,697.116394 
	C85.625038,691.289062 74.783905,684.487732 66.139450,674.659912 
	C54.912743,661.896423 53.970547,647.725464 60.606861,632.790588 
	C67.191032,617.972961 79.161819,610.231934 95.159103,609.774658 
	C113.642334,609.246277 132.152328,609.640747 150.650650,609.668579 
	C153.183823,609.672363 155.515259,609.497620 157.703445,607.839722 
	C165.529144,601.910583 174.289917,598.342224 184.226593,599.736877 
	C196.041397,601.395142 204.896439,597.504700 212.488007,588.251648 
	C219.606964,579.574707 229.101242,573.454712 239.110413,568.287476 
	C247.468704,563.972412 254.700409,558.126831 261.495483,551.661743 
	C263.664978,549.597595 264.669098,547.564575 263.645325,544.665649 
	C262.672241,541.910278 262.762787,539.146973 263.637238,536.349487 
	C266.424347,527.433167 270.094818,518.861023 274.294586,510.556274 
	C276.538269,506.119507 280.664215,503.260406 285.461426,501.853790 
	C288.551483,500.947754 289.880219,499.282227 289.667328,496.100647 
	C289.334839,491.131714 290.248169,486.108734 288.974243,480.720642 
M546.706238,515.511719 
	C547.379395,511.729279 545.341309,508.425873 544.833496,504.856720 
	C544.247742,500.739624 542.197937,499.900757 538.198792,500.754578 
	C523.397583,503.914825 508.507477,506.656769 493.688629,509.738068 
	C490.609222,510.378418 489.015198,510.028442 488.546844,506.549622 
	C488.016754,502.611816 487.003784,498.737213 486.161835,494.843567 
	C484.958160,489.277191 485.356171,488.765106 491.029907,487.664154 
	C505.066132,484.940582 519.077209,482.086090 533.124023,479.419464 
	C536.503967,478.777893 538.190430,477.323212 538.730042,473.688385 
	C543.191345,443.640259 549.645691,413.895355 551.098816,383.399139 
	C552.055115,363.330322 554.213196,343.321228 555.626709,323.270874 
	C556.573730,309.837067 556.409607,296.282471 558.103455,282.954895 
	C560.047974,267.655884 556.753784,253.736908 549.488037,240.700165 
	C530.282532,206.240234 500.846375,184.954025 463.020844,174.757248 
	C458.963409,173.663452 457.223328,174.514374 457.279266,179.115295 
	C457.467682,194.611832 457.359985,210.112076 457.344299,225.610886 
	C457.337646,232.164551 457.311707,232.073776 450.584198,232.212799 
	C434.775696,232.539459 437.471802,228.919235 437.177063,246.551453 
	C437.121277,249.887939 438.603912,250.947250 441.705994,250.846375 
	C445.534393,250.721924 449.372955,250.927719 453.203186,250.832642 
	C456.159698,250.759232 457.440857,251.975586 457.363708,254.977798 
	C457.243866,259.640991 457.248901,264.311462 457.360718,268.975006 
	C457.430756,271.896332 456.333649,273.301971 453.290894,273.191315 
	C450.128876,273.076355 446.958984,273.163788 443.792694,273.184692 
	C437.209869,273.228119 437.203125,273.234100 437.203308,279.873230 
	C437.205109,346.534821 437.209320,413.196411 437.213226,479.858002 
	C437.213287,480.857910 437.271759,481.861084 437.210388,482.857056 
	C437.037689,485.660339 438.377350,486.732758 441.110138,486.665497 
	C445.107086,486.567078 449.111023,486.746002 453.107666,486.641296 
	C455.967194,486.566437 457.457336,487.509949 457.365295,490.630157 
	C457.227783,495.292358 457.248962,499.963135 457.349731,504.627045 
	C457.411469,507.483643 456.055115,508.430115 453.387115,508.362396 
	C449.723358,508.269348 446.043060,508.544922 442.391998,508.313385 
	C438.563019,508.070648 436.855530,509.359161 437.133484,513.398560 
	C437.395935,517.212891 437.119751,521.061401 437.184021,524.893188 
	C437.232635,527.790466 436.015808,529.213806 433.026794,529.163147 
	C428.695099,529.089722 424.358887,529.055664 420.029175,529.173035 
	C416.796753,529.260681 415.532288,527.825378 415.634125,524.664001 
	C415.757385,520.835144 415.471954,516.988525 415.694214,513.168884 
	C415.915131,509.373108 414.262360,508.136230 410.670959,508.314178 
	C406.847839,508.503571 403.002808,508.221832 399.175507,508.364563 
	C395.907959,508.486450 394.687958,507.018616 394.777283,503.886261 
	C394.896027,499.722961 394.985718,495.548004 394.806732,491.390198 
	C394.643005,487.587494 396.389099,486.389099 399.931488,486.614929 
	C402.918945,486.805389 405.928497,486.651733 408.928253,486.646484 
	C415.641296,486.634766 415.649506,486.633789 415.649719,479.713104 
	C415.651764,413.384796 415.650909,347.056519 415.650543,280.728210 
	C415.650543,279.894958 415.548279,279.048157 415.660828,278.230713 
	C416.227386,274.116669 414.165070,272.934570 410.420349,273.158752 
	C407.265503,273.347656 404.066498,272.943237 400.928864,273.241547 
	C395.979950,273.712097 394.335358,271.530701 394.767120,266.852997 
	C395.026428,264.044006 394.797424,261.191132 394.812622,258.358093 
	C394.852936,250.842270 394.859894,250.934616 402.218109,250.804489 
	C418.180725,250.522186 415.339813,253.248001 415.644165,236.863052 
	C415.650360,236.529953 415.617554,236.195267 415.637482,235.863419 
	C415.789673,233.329544 414.571869,232.208557 412.067871,232.228104 
	C408.401978,232.256714 404.718414,231.966385 401.073303,232.233765 
	C396.314911,232.582825 394.654510,230.785294 394.733490,225.937973 
	C394.985901,210.443268 394.853088,194.941879 394.819885,179.443176 
	C394.808716,174.219650 394.048096,173.701614 388.866821,174.995651 
	C376.520538,178.079208 364.741302,182.637833 353.711365,188.980728 
	C329.485016,202.912399 310.829681,222.000748 299.648407,247.927170 
	C298.698151,250.130524 298.472870,252.186432 299.046356,254.655167 
	C302.173218,268.115509 304.564911,281.716522 304.088318,295.605713 
	C303.746521,305.566376 302.893372,315.508423 302.372833,325.464203 
	C301.331299,345.384521 300.000641,365.298706 299.454865,385.233643 
	C298.798645,409.202606 298.968628,433.154938 307.226532,456.223633 
	C308.303955,459.233459 309.658203,460.899811 312.700470,461.840240 
	C320.486938,464.247284 328.197296,466.909637 335.894073,469.596039 
	C350.572021,474.719116 360.279999,488.402069 360.330780,503.915192 
	C360.343872,507.913727 359.940308,511.948059 360.342804,515.903442 
	C361.090637,523.253174 363.021912,529.694397 371.571533,532.173645 
	C377.926025,534.016296 383.884491,537.211182 390.042419,539.747742 
	C408.482361,547.343628 426.833984,555.136292 444.672943,564.079834 
	C446.100189,564.795349 447.601898,564.799133 449.070709,564.507996 
	C485.891724,557.210632 517.888000,540.218689 546.706238,515.511719 
M266.918030,576.455688 
	C261.302887,580.928284 255.442459,585.074890 248.996109,588.231934 
	C239.854172,592.709045 232.505585,599.378174 225.407837,606.467163 
	C223.377609,608.494873 223.317963,610.227295 224.577377,612.632019 
	C227.899200,618.974792 231.042114,625.411682 234.221237,631.828430 
	C235.103195,633.608582 236.351486,635.574646 233.682648,636.931091 
	C228.086609,639.775208 222.444672,642.529053 216.378830,645.539673 
	C212.710648,638.328430 209.252106,631.719849 205.988815,625.016174 
	C204.755722,622.483215 203.209427,621.207703 200.230896,621.299561 
	C194.072144,621.489746 187.901489,621.259033 181.739151,621.378296 
	C173.693985,621.533936 170.346542,624.992676 170.339310,632.877441 
	C170.338242,634.043762 170.338776,635.210022 170.339661,636.376343 
	C170.352142,652.829712 170.355103,652.725464 153.893921,652.264099 
	C149.888809,652.151794 148.616074,650.527588 148.785782,646.793823 
	C148.959564,642.970337 148.750824,639.131104 148.801422,635.299927 
	C148.836411,632.649170 147.843491,631.344604 144.988541,631.356323 
	C129.160706,631.421448 113.326187,631.119385 97.506950,631.493164 
	C89.526909,631.681763 83.266075,635.212830 80.041183,643.297791 
	C76.752670,651.542297 79.459534,657.802551 85.391228,663.418091 
	C92.005135,669.679504 99.781906,674.264160 107.897156,678.102295 
	C127.200539,687.231995 147.378220,694.018188 168.060715,699.289246 
	C192.579041,705.538086 217.322662,710.614624 242.672852,711.727112 
	C266.349670,712.766174 289.901917,711.031372 313.177856,706.573669 
	C341.302704,701.187378 368.335724,692.565063 392.856842,677.360168 
	C398.560242,673.823547 403.883331,670.086365 411.034027,670.297485 
	C414.310028,670.394165 415.918213,668.560852 415.736755,664.847351 
	C415.419983,658.365051 415.769501,651.853027 415.608215,645.359192 
	C415.525452,642.027222 416.535461,640.429932 420.130951,640.617371 
	C424.284851,640.833862 428.465057,640.804138 432.622284,640.620361 
	C436.150513,640.464417 437.346100,642.021484 437.244019,645.380493 
	C437.097290,650.207581 437.217773,655.042786 437.227875,659.874573 
	C437.243073,667.144104 437.450867,667.132263 444.504150,666.157043 
	C456.348633,664.519165 468.232910,663.166748 480.104340,661.726318 
	C499.721100,659.345947 519.340027,656.982788 538.961609,654.643311 
	C540.375000,654.474792 541.706787,654.107544 542.286133,652.792114 
	C544.496460,647.773438 547.342102,642.964783 548.501160,637.573059 
	C549.595886,632.480652 548.478882,631.380737 543.223083,631.374939 
	C523.562744,631.353271 503.897461,631.090210 484.243713,631.449829 
	C469.443848,631.720642 455.932800,628.066528 443.504944,620.220398 
	C441.514099,618.963501 439.785583,618.452148 437.493652,619.282776 
	C426.664093,623.207581 416.557709,621.561951 407.132538,615.087952 
	C406.315063,614.526428 405.431854,613.983215 404.498535,613.679443 
	C390.710938,609.193054 377.641754,602.930420 364.282379,597.393433 
	C337.993835,586.497681 311.762360,575.463501 285.549652,564.386292 
	C282.856964,563.248352 281.010620,563.507568 278.911407,565.590759 
	C275.254211,569.220154 271.297455,572.547668 266.918030,576.455688 
M488.785187,576.416870 
	C481.819519,579.187256 474.688080,581.448486 467.446991,583.374939 
	C464.401672,584.185120 460.699554,584.211731 458.488525,586.038269 
	C455.833282,588.231689 457.834320,592.330261 457.269531,595.544495 
	C457.154449,596.199402 457.164124,596.907959 456.906708,597.500854 
	C455.286621,601.231873 457.306305,603.091187 460.375061,604.480835 
	C467.115997,607.533264 474.146973,609.569092 481.565094,609.608948 
	C502.063965,609.719177 522.564880,609.540405 543.062378,609.742554 
	C547.504761,609.786316 548.781250,608.303101 548.736633,603.981750 
	C548.545288,585.484253 548.672241,566.983521 548.619080,548.484192 
	C548.615173,547.126160 549.290344,545.481750 547.271301,544.094910 
	C529.307678,556.887085 510.263245,568.085693 488.785187,576.416870 
M518.796326,175.651566 
	C534.087280,185.193085 546.624207,197.804550 558.385620,212.307678 
	C558.799377,204.386261 556.930298,194.884186 553.283813,187.102524 
	C534.894775,147.860535 503.675629,124.375671 462.428986,113.135559 
	C457.942047,111.912834 457.254852,113.635864 457.308960,117.455711 
	C457.445679,127.108284 457.476379,136.766541 457.286804,146.417358 
	C457.218781,149.878983 458.286682,151.284805 461.835236,152.025620 
	C482.045197,156.244843 500.954468,163.764954 518.796326,175.651566 
M298.258301,189.690430 
	C295.779358,196.429718 293.388977,203.182114 294.672119,211.199783 
	C295.730835,210.196503 296.268982,209.796219 296.672241,209.288712 
	C321.176117,178.451843 352.941956,159.545151 391.417419,151.753387 
	C394.297333,151.170181 394.777252,149.581467 394.774323,147.198761 
	C394.761475,136.709625 394.788483,126.220428 394.777283,115.731277 
	C394.776062,114.583008 394.820251,113.350403 393.507294,112.726547 
	C356.099762,119.461838 314.990448,148.488831 298.258301,189.690430 
M504.580994,706.790344 
	C508.965424,705.852417 513.350586,704.917786 517.733948,703.974792 
	C519.210938,703.656921 520.724426,703.353699 521.412170,701.755981 
	C524.731384,694.045288 528.035339,686.328125 531.713989,677.752441 
	C514.607544,679.837097 498.628784,681.766907 482.654755,683.735413 
	C462.380249,686.233826 442.127106,688.918335 421.830017,691.215759 
	C411.377960,692.398926 411.343933,692.098267 411.347931,702.371704 
	C411.351166,710.683167 412.354279,711.778870 420.774994,711.820618 
	C434.771667,711.890015 448.773529,711.610901 462.764771,711.893738 
	C476.691132,712.175232 490.235809,709.831848 504.580994,706.790344 
M381.717163,580.662720 
	C385.911377,582.066467 389.635406,584.800476 394.663361,585.355042 
	C396.005157,579.461365 398.756409,574.249023 401.823059,568.711060 
	C365.268188,553.393494 329.297119,538.320557 292.813843,523.033020 
	C290.262604,529.017944 287.951538,534.439575 285.616913,539.916382 
	C286.546021,540.518127 287.054596,540.965393 287.646576,541.213989 
	C318.761322,554.280640 349.883087,567.330505 381.717163,580.662720 
M626.560730,646.875916 
	C635.559021,659.367615 647.981079,663.582642 661.958862,658.887268 
	C673.926453,654.867126 681.954590,642.852356 681.644409,629.426147 
	C681.353638,616.835510 672.313049,605.381042 659.229736,602.026489 
	C651.239807,599.977844 643.331970,600.666382 635.611023,606.064270 
	C640.937012,607.650024 645.440918,608.904602 648.870422,612.339355 
	C654.165649,617.642822 659.440430,622.967834 664.799805,628.205933 
	C666.707581,630.070557 667.050842,631.634277 664.942566,633.628418 
	C661.434448,636.946655 658.033508,640.383057 654.687073,643.865417 
	C652.637573,645.998230 650.914551,646.031067 648.835449,643.842102 
	C645.165710,639.978516 641.059509,636.502441 637.627197,632.448303 
	C634.441467,628.685425 630.663086,627.848022 626.097656,628.148132 
	C623.406006,628.324951 622.253967,629.275452 622.176941,632.049866 
	C622.032776,637.242432 623.514343,641.887329 626.560730,646.875916 
M417.461243,98.843903 
	C415.696960,100.449120 416.380676,102.575256 416.375000,104.485756 
	C416.325104,121.272507 416.347595,138.059464 416.348969,154.846375 
	C416.350220,170.339493 416.344788,170.278168 432.038300,168.842819 
	C434.813171,168.589035 435.806152,167.467529 435.801117,164.813492 
	C435.761688,144.037857 435.751099,123.262047 435.807526,102.486504 
	C435.815521,99.544533 434.736847,98.227737 431.703339,98.344666 
	C427.222717,98.517372 422.733765,98.474533 417.461243,98.843903 
M331.493774,491.920105 
	C325.315674,488.674103 318.578003,487.134094 311.346710,484.651215 
	C311.346710,489.587097 311.359436,493.698730 311.344147,497.810242 
	C311.310669,506.797638 311.258270,506.916687 319.836334,510.271820 
	C325.595215,512.524353 331.019928,515.766235 337.414764,516.994324 
	C338.239685,507.865509 340.668396,498.908966 331.493774,491.920105 
M427.432434,191.178207 
	C416.345795,191.236450 416.344757,191.236450 416.350189,202.262589 
	C416.350922,203.756210 416.384033,205.249954 416.373840,206.743439 
	C416.359619,208.822311 417.459290,209.756119 419.451141,209.790314 
	C421.110291,209.818832 422.769623,209.850983 424.428894,209.851242 
	C435.768951,209.852936 435.768982,209.850342 435.791046,198.528824 
	C435.805206,191.257294 435.805176,191.257294 427.432434,191.178207 
M433.929108,584.680664 
	C431.200134,581.370850 427.974792,579.334656 423.513245,580.901917 
	C418.265503,582.745422 415.699036,588.315430 417.636841,593.476990 
	C419.245331,597.761353 424.844452,600.283875 429.112122,598.646851 
	C434.857574,596.442993 436.816895,591.448608 433.929108,584.680664 
z"/>
<path fill="#000000" opacity="1.000000" stroke="none" 
	d="
M373.798706,328.814026 
	C375.398224,306.370178 367.011627,288.777649 350.325958,274.832611 
	C349.435059,274.088043 348.486145,273.406281 347.520447,272.760803 
	C347.128815,272.499054 346.619843,272.412872 346.137848,272.237183 
	C344.747803,273.458038 345.267517,275.059235 345.243500,276.465912 
	C345.163788,281.128418 345.658203,285.844757 345.125214,290.446991 
	C343.716156,302.614014 345.988708,313.088989 356.868134,320.392242 
	C359.416870,322.103149 359.612549,324.199036 357.092194,326.499084 
	C353.650452,329.639984 350.390747,332.987976 347.161865,336.351654 
	C345.092621,338.507294 343.364594,338.438599 341.293976,336.304840 
	C335.959106,330.807312 330.517212,325.413177 325.086395,320.009583 
	C323.444427,318.375824 322.802673,316.476837 322.806824,314.169952 
	C322.851105,289.684631 322.839050,265.199188 322.860931,240.713821 
	C322.862244,239.255646 322.709198,237.718781 324.147430,236.076431 
	C333.081482,238.906403 341.780304,242.445496 349.893311,247.350479 
	C372.805969,261.203094 389.565857,279.985413 394.608673,306.946198 
	C398.546936,328.001617 396.923706,348.489655 382.569336,366.042999 
	C377.708221,371.987488 371.922729,377.078979 365.970245,381.863220 
	C350.696960,394.139038 354.054230,415.545502 361.413635,426.804962 
	C364.612549,431.699097 368.579620,435.876251 373.838837,438.843109 
	C375.182953,437.002747 374.608368,435.120697 374.618713,433.383881 
	C374.684296,422.390778 374.875641,411.390778 374.556854,400.406647 
	C374.419098,395.659821 376.158112,394.206177 380.597656,394.598724 
	C383.738068,394.876373 386.943298,394.886627 390.082336,394.603363 
	C394.651794,394.191010 396.225494,395.986176 396.181763,400.562714 
	C396.016174,417.883881 396.154816,435.207916 396.175415,452.530884 
	C396.180389,456.695068 396.212585,460.859955 396.143555,465.023041 
	C396.116974,466.627167 396.523132,468.381348 395.145935,469.701935 
	C363.480286,466.805756 333.591614,441.561493 333.405579,407.241241 
	C333.303802,388.466095 340.218719,374.144928 354.312531,362.526733 
	C363.014648,355.353149 370.983429,347.564514 372.989441,335.695923 
	C373.347809,333.575653 373.529358,331.425476 373.798706,328.814026 
z"/>
<path fill="#000000" opacity="1.000000" stroke="none" 
	d="
M481.511292,263.510803 
	C494.983551,250.389465 515.748474,238.475754 528.438782,236.505051 
	C529.812500,237.833862 529.320007,239.591034 529.322388,241.169815 
	C529.358459,265.334473 529.308777,289.499359 529.395691,313.663727 
	C529.406677,316.716919 528.591858,319.050018 526.349792,321.183624 
	C521.401794,325.892212 516.544495,330.707947 511.863617,335.680847 
	C509.176697,338.535400 507.142548,338.522186 504.553741,335.566559 
	C501.705444,332.314728 498.546356,329.320831 495.382294,326.364807 
	C493.146820,324.276337 493.029114,322.311279 495.525116,320.640625 
	C506.884552,313.037415 509.327545,302.132355 507.731964,289.401184 
	C507.044037,283.912048 508.084778,278.249146 507.005127,271.487579 
	C500.257751,275.565704 495.717743,280.350769 491.670258,285.495819 
	C479.747559,300.651489 475.879242,317.914551 479.564545,336.726044 
	C481.438782,346.292908 487.547577,353.392822 494.760925,359.612061 
	C502.980469,366.698853 511.063721,373.866486 515.349304,384.294983 
	C524.830933,407.367310 517.012329,437.269836 497.246307,453.043091 
	C485.059875,462.767792 468.765045,469.573181 457.414062,469.676636 
	C456.375244,468.188110 456.668732,466.473846 456.667267,464.837189 
	C456.647980,443.338928 456.750366,421.839905 456.577118,400.343048 
	C456.542969,396.105225 457.599304,394.149994 462.153229,394.587646 
	C465.620880,394.920898 469.169281,394.905884 472.640289,394.589966 
	C477.203308,394.174713 478.320587,396.203735 478.252960,400.412720 
	C478.050079,413.034454 478.179932,425.661499 478.179932,439.288391 
	C489.256165,431.892883 495.275848,422.633087 496.811432,410.331207 
	C498.479828,396.965515 493.566803,386.751038 482.994720,378.648956 
	C470.340851,368.951477 460.725311,356.835724 457.933838,340.762115 
	C452.821075,311.322205 459.800049,285.282562 481.511292,263.510803 
z"/>
</svg>