<svg version="1.1" id="Layer_1" xmlns="http://www.w3.org/2000/svg" xmlns:xlink="http://www.w3.org/1999/xlink" x="0px" y="0px"
	 width="100%" viewBox="0 0 864 736" enable-background="new 0 0 864 736" xml:space="preserve">
<path fill="current" stroke="current" 
	d="
M533.422363,204.450317 
	C558.978699,218.846359 577.500793,239.733826 592.145142,264.227661 
	C610.171936,294.378937 620.149902,327.238342 624.528625,362.029114 
	C626.027954,373.941315 625.488464,385.937042 627.246216,397.784424 
	C627.335815,398.388000 627.555725,398.972260 627.876465,400.167053 
	C636.690674,394.058167 645.119629,388.181030 653.584656,382.356323 
	C674.723816,367.810577 695.851868,353.228210 719.124451,342.180695 
	C729.850891,337.088898 740.832214,333.130829 753.108582,333.559692 
	C766.429565,334.024994 777.107544,342.051270 779.207031,355.232269 
	C785.426331,394.280151 769.472351,427.961884 731.301636,444.274994 
	C717.227539,450.289856 702.474915,452.993958 687.140259,453.476257 
	C674.597046,453.870758 662.651611,457.936035 650.725342,461.533173 
	C606.936401,474.740479 563.446716,488.960205 518.931091,499.673737 
	C481.729156,508.627106 444.178192,515.664551 406.170441,520.004761 
	C384.871552,522.437012 363.483002,523.930725 342.011902,524.544128 
	C330.532471,524.872070 319.039642,525.423340 307.585541,525.037842 
	C272.689789,523.863464 238.298492,519.476624 205.575470,506.379272 
	C180.118469,496.190094 157.402084,482.007019 140.785217,459.614624 
	C130.793716,446.150299 124.311020,431.327820 123.488831,414.138489 
	C122.822021,400.197418 129.186371,390.959503 140.729218,384.585541 
	C150.237793,379.334869 160.737427,377.601624 171.419876,376.653839 
	C195.616959,374.506989 219.108841,378.460663 242.364960,384.636475 
	C243.762238,385.007538 245.137680,385.919189 247.000397,385.194641 
	C248.943924,382.195374 248.833298,378.421326 249.621368,374.930176 
	C260.580322,326.382233 276.855225,279.912323 303.773438,237.698090 
	C311.397888,225.741165 320.266327,214.736801 331.817139,206.114685 
	C349.141235,193.183121 366.022888,192.054565 384.879059,202.944916 
	C392.515839,207.355545 399.884338,212.398499 408.598022,214.490936 
	C421.681335,217.632660 434.330963,215.473770 446.760742,210.913773 
	C457.382477,207.017059 467.730713,202.412766 478.596710,199.136551 
	C497.513733,193.432892 515.702148,194.368515 533.422363,204.450317 
M397.242676,409.647491 
	C407.355621,409.030609 417.461823,408.249359 427.583069,407.835114 
	C443.043213,407.202332 458.406403,405.473755 473.691925,403.338135 
	C500.667114,399.569336 527.498962,394.829407 554.232300,389.611023 
	C568.081238,386.907684 582.052673,384.367462 594.827820,377.908936 
	C602.280273,374.141327 603.739258,371.063293 602.530640,363.103821 
	C599.957153,346.155884 596.494934,329.428162 590.694641,313.238373 
	C579.236816,281.257416 561.794434,253.493027 534.918335,232.028229 
	C518.000916,218.516968 499.987152,213.452286 479.269287,222.197754 
	C472.682495,224.978180 465.903473,227.299637 459.250305,229.927155 
	C437.394867,238.558395 415.378967,241.995178 392.851593,232.337723 
	C385.480316,229.177673 378.656433,225.003067 371.678833,221.122665 
	C362.305237,215.909821 353.592957,216.956039 345.198730,223.246857 
	C334.177826,231.506165 326.303650,242.465332 319.364532,254.068909 
	C296.704041,291.961823 281.793060,332.950348 271.662994,375.762238 
	C269.947449,383.012451 268.816864,390.433502 268.364960,397.911743 
	C268.211426,400.452240 268.602295,402.292084 271.889648,402.733459 
	C292.484314,405.498322 313.169708,407.402191 333.897125,408.533112 
	C354.665100,409.666229 375.477905,410.009064 397.242676,409.647491 
M344.182404,502.632721 
	C346.159393,502.382690 348.129822,502.000244 350.114319,501.902313 
	C385.490234,500.156677 420.077179,493.670685 454.194519,484.467010 
	C462.476715,482.232758 470.612457,479.455719 478.815552,476.928284 
	C472.018585,477.054352 465.396667,477.598602 458.819519,478.477814 
	C435.220032,481.632446 411.459991,482.425446 387.714142,483.095612 
	C367.757690,483.658875 347.816833,482.547577 327.874268,481.452271 
	C302.452637,480.056091 277.214722,477.313385 252.095703,473.254242 
	C248.199036,472.624542 246.500153,471.118896 246.561615,466.803955 
	C246.806061,449.643158 246.486832,432.473999 246.766418,415.314270 
	C246.842255,410.659576 245.419952,408.572571 240.913239,407.228760 
	C226.362137,402.889801 211.578735,399.681366 196.476562,398.597046 
	C182.875198,397.620575 169.164871,397.295593 155.956833,401.980835 
	C146.055695,405.493042 143.989288,409.084839 146.131805,419.300903 
	C146.607925,421.571198 147.074280,423.866425 147.829758,426.051758 
	C154.997452,446.785645 169.707581,461.178009 187.758713,472.440735 
	C221.529678,493.511627 259.344757,500.371643 298.256714,502.514618 
	C313.206421,503.337952 328.239624,502.644989 344.182404,502.632721 
M488.127411,452.551849 
	C506.945160,449.263245 525.805176,446.194794 544.562622,442.592285 
	C553.803772,440.817413 563.521240,440.430939 571.950684,435.635529 
	C581.790222,430.037842 591.424438,424.078613 601.133484,418.252411 
	C602.694458,417.315643 604.518738,416.430328 604.613281,414.310150 
	C604.839783,409.232117 605.093140,404.138367 604.519592,399.775330 
	C493.957672,429.501068 382.499725,440.195953 268.205048,424.468323 
	C268.205048,433.001160 268.309753,440.934479 268.154541,448.862762 
	C268.090698,452.121613 269.083191,453.412689 272.546600,453.930206 
	C298.719330,457.841003 325.091431,459.562286 351.475769,460.486603 
	C371.582977,461.191101 391.727722,460.951050 411.883270,459.992645 
	C437.159912,458.790771 462.250610,456.293365 488.127411,452.551849 
M654.974976,408.535187 
	C627.900330,427.537506 600.589844,446.171051 571.334045,461.873840 
	C573.709778,461.747864 575.919067,461.298798 578.064392,460.640991 
	C594.590210,455.573669 611.102173,450.461182 627.621277,445.371796 
	C650.477783,438.329956 673.264954,431.437256 697.527588,430.388977 
	C710.538879,429.826813 722.817627,425.042023 733.937744,417.836914 
	C754.694397,404.388031 760.849854,380.148102 758.020996,361.906586 
	C757.226318,356.782257 754.156616,354.868591 749.251770,355.249817 
	C743.166992,355.722809 737.602539,357.946503 732.184021,360.508240 
	C704.823486,373.443451 680.299194,390.956055 654.974976,408.535187 
z"/>
</svg>