<?xml version="1.0" standalone="no"?>
<!DOCTYPE svg PUBLIC "-//W3C//DTD SVG 20010904//EN"
 "http://www.w3.org/TR/2001/REC-SVG-20010904/DTD/svg10.dtd">
<svg version="1.0" xmlns="http://www.w3.org/2000/svg"
 width="772.000000pt" height="889.000000pt" viewBox="0 0 772.000000 889.000000"
 preserveAspectRatio="xMidYMid meet">

<g transform="translate(0.000000,889.000000) scale(0.100000,-0.100000)"
fill="current" stroke="current">
<path d="M1668 7691 c-42 -14 -91 -56 -113 -98 -11 -21 -43 -81 -71 -133 -104
-193 -205 -399 -210 -427 -4 -27 -50 -154 -80 -221 -7 -18 -14 -37 -14 -43 0
-6 -7 -25 -15 -42 -53 -115 -212 -669 -249 -867 -3 -14 -7 -36 -11 -50 -3 -14
-10 -47 -15 -75 -6 -27 -12 -61 -15 -75 -6 -30 -33 -191 -39 -240 -3 -19 -7
-51 -10 -70 -9 -66 -19 -135 -22 -152 -1 -9 -6 -52 -10 -95 -3 -43 -8 -91 -9
-108 -28 -286 -28 -895 -1 -1055 3 -14 7 -45 10 -70 3 -25 10 -70 16 -100 5
-30 12 -71 15 -90 16 -101 113 -451 144 -525 5 -11 15 -36 22 -55 12 -34 22
-58 70 -170 132 -308 360 -641 614 -895 164 -165 260 -244 445 -365 76 -50
166 -120 205 -158 41 -41 90 -78 118 -91 50 -21 275 -100 305 -106 9 -2 46
-13 82 -24 36 -11 99 -27 140 -36 41 -9 84 -18 95 -21 11 -2 36 -7 55 -10 19
-3 38 -8 41 -10 4 -2 38 -8 75 -14 38 -5 80 -12 94 -14 46 -8 99 -16 152 -21
29 -3 67 -8 83 -10 171 -25 799 -26 990 -1 17 2 59 7 95 11 73 7 156 19 283
41 64 10 183 36 237 50 30 9 87 23 125 34 39 10 114 32 168 50 236 77 322 122
366 194 12 18 49 50 83 71 545 331 949 823 1177 1433 26 70 52 145 59 167 35
119 55 192 58 215 3 14 11 48 19 75 12 43 36 178 61 345 24 165 29 260 29 610
0 347 -7 505 -29 685 -3 22 -7 69 -11 105 -3 36 -8 76 -10 90 -2 14 -7 45 -10
70 -3 25 -13 83 -21 130 -8 47 -16 99 -19 115 -3 17 -10 50 -15 75 -5 25 -12
59 -15 77 -3 18 -12 63 -20 100 -9 37 -18 79 -21 92 -3 14 -14 57 -25 97 -11
40 -22 82 -24 93 -4 21 -28 105 -53 186 -9 28 -17 55 -18 60 -3 13 -85 250
-114 330 -12 33 -39 101 -60 150 -21 50 -40 104 -43 122 -5 34 -27 79 -147
308 -40 77 -89 171 -108 209 -61 120 -130 166 -229 152 -52 -7 -1068 -513
-1099 -547 -43 -48 -56 -79 -58 -132 -1 -45 7 -68 51 -157 116 -234 236 -456
259 -480 20 -22 63 -153 79 -243 3 -12 9 -40 14 -62 19 -77 50 -210 55 -240 9
-48 15 -75 20 -93 3 -9 7 -33 10 -52 3 -19 7 -44 10 -55 5 -28 19 -107 21
-125 3 -20 14 -91 19 -115 6 -31 15 -95 21 -145 3 -25 7 -61 10 -80 28 -220
39 -375 39 -600 1 -213 -2 -248 -29 -365 -54 -231 -144 -425 -284 -610 -98
-129 -292 -302 -432 -386 -185 -110 -412 -201 -564 -225 -16 -3 -46 -9 -65
-14 -19 -5 -55 -11 -80 -15 -25 -3 -58 -8 -75 -12 -36 -7 -375 -6 -413 1 -15
3 -47 8 -72 11 -25 3 -52 8 -60 10 -8 2 -28 7 -45 10 -186 32 -446 134 -617
241 -270 169 -501 439 -621 724 -32 76 -75 214 -83 270 -3 19 -8 38 -10 41
-26 43 -25 473 1 734 2 22 7 68 10 102 3 34 7 70 9 80 2 10 6 45 10 78 4 33
11 83 16 110 5 28 11 64 14 80 2 17 9 62 16 100 6 39 13 84 16 100 2 17 7 44
11 60 4 17 7 32 8 35 1 3 4 19 8 35 4 17 9 46 12 65 3 19 10 51 15 70 5 19 11
49 14 65 3 17 13 57 21 89 9 33 18 76 21 95 3 20 8 39 10 43 3 4 13 42 24 85
12 46 30 87 44 103 13 14 50 77 83 140 244 466 227 430 226 492 0 58 -12 87
-57 137 -11 13 -255 140 -540 283 -545 272 -572 283 -648 259z m755 -545 c152
-76 277 -139 277 -140 0 -3 -241 -479 -245 -484 -2 -2 -221 106 -488 240 -309
154 -483 246 -478 253 5 5 61 114 126 242 l118 232 206 -103 c113 -57 331
-165 484 -240z m3979 224 c31 -58 84 -159 118 -225 35 -66 67 -125 71 -131 6
-7 -66 -48 -204 -117 -117 -59 -326 -165 -466 -237 -139 -71 -262 -132 -271
-135 -15 -5 -36 28 -116 182 -54 103 -110 213 -125 243 l-27 55 191 96 c106
53 320 162 477 242 157 80 288 142 291 139 4 -4 31 -54 61 -112z m-4510 -809
c258 -128 465 -237 462 -242 -3 -5 -7 -17 -9 -26 -3 -10 -12 -47 -20 -83 -43
-174 -89 -382 -110 -495 -13 -70 -43 -254 -50 -300 -10 -77 -16 -118 -20 -140
-12 -75 -15 -97 -20 -155 -3 -36 -8 -87 -11 -115 -11 -109 -13 -149 -18 -380
-3 -132 -1 -267 4 -300 5 -33 12 -76 14 -95 10 -73 49 -218 83 -308 160 -429
485 -778 918 -988 116 -56 282 -119 342 -130 12 -2 34 -9 48 -14 14 -5 25 -7
25 -4 0 2 8 1 18 -5 9 -5 37 -12 62 -15 25 -3 56 -8 70 -11 14 -3 50 -8 80
-12 30 -3 62 -7 70 -9 8 -1 34 -3 57 -3 l42 -1 3 -245 c2 -158 -1 -245 -7
-246 -17 -2 -166 10 -198 17 -12 2 -39 6 -62 9 -22 4 -52 8 -67 11 -16 2 -43
6 -60 9 -18 3 -51 9 -73 14 -50 12 -173 40 -202 46 -80 17 -257 65 -295 80
-21 8 -38 13 -38 11 0 -3 -23 3 -50 13 -118 42 -256 17 -345 -61 -54 -48 -78
-87 -149 -244 -66 -146 -137 -298 -141 -302 -4 -5 -102 64 -198 139 -114 90
-319 295 -417 419 -151 190 -297 433 -391 652 -42 97 -117 305 -125 347 -3 14
-7 28 -10 33 -3 4 -7 18 -9 29 -3 12 -11 45 -19 73 -8 28 -17 62 -20 76 -3 14
-8 36 -11 50 -3 14 -8 39 -10 55 -3 17 -8 37 -10 45 -4 16 -9 49 -21 135 -3
28 -8 58 -10 68 -27 142 -27 766 0 1012 2 17 7 64 10 105 4 41 9 84 11 95 2
11 7 45 10 76 3 31 7 66 10 77 2 11 6 37 9 58 6 35 31 182 41 244 3 14 7 36
10 50 3 14 7 35 10 48 11 63 41 189 67 292 81 310 84 321 149 510 33 96 68
196 77 222 8 26 18 46 21 44 3 -1 216 -107 473 -235z m4887 -68 c34 -100 64
-191 66 -202 2 -12 16 -61 30 -109 26 -84 31 -101 41 -152 3 -14 16 -68 29
-120 13 -52 27 -111 30 -130 3 -19 13 -64 21 -100 8 -35 21 -112 29 -170 9
-58 17 -116 20 -130 3 -14 8 -47 11 -75 3 -27 7 -61 9 -75 2 -14 6 -54 10 -90
3 -36 8 -78 10 -95 27 -204 27 -952 1 -1092 -3 -11 -7 -44 -11 -73 -4 -29 -9
-62 -11 -74 -2 -12 -11 -61 -20 -111 -8 -49 -20 -103 -24 -120 -5 -16 -12 -46
-15 -65 -3 -19 -10 -48 -15 -65 -54 -179 -87 -280 -108 -330 -13 -33 -28 -69
-32 -80 -5 -11 -38 -83 -75 -160 -184 -384 -453 -711 -789 -962 -99 -73 -101
-74 -110 -51 -5 13 -30 66 -54 118 -24 52 -52 113 -62 135 -100 221 -131 265
-232 320 -74 41 -191 45 -290 11 -38 -13 -68 -22 -68 -20 0 2 -12 -1 -27 -7
-16 -6 -36 -12 -46 -14 -10 -2 -52 -14 -95 -25 -42 -12 -85 -24 -94 -26 -10
-2 -26 -6 -35 -9 -39 -10 -100 -24 -128 -29 -16 -3 -41 -8 -55 -11 -80 -16
-139 -27 -170 -31 -19 -2 -42 -7 -50 -9 -8 -2 -42 -7 -74 -11 -33 -3 -67 -7
-77 -9 -10 -2 -53 -5 -96 -6 l-78 -2 4 244 c2 134 4 245 5 246 0 0 39 4 85 8
47 4 94 9 105 11 12 2 32 6 46 8 14 3 41 8 60 10 19 3 50 10 68 15 17 5 32 8
32 6 0 -3 11 0 25 5 14 5 36 12 48 14 112 20 396 147 544 242 220 142 418 336
549 541 120 187 224 454 250 643 2 19 9 62 14 95 9 57 5 501 -5 595 -3 25 -7
68 -10 95 -2 28 -7 68 -9 90 -3 22 -8 63 -10 90 -3 28 -8 61 -10 75 -5 29 -13
78 -26 172 -16 114 -41 262 -45 268 -2 3 -6 24 -9 46 -4 23 -11 55 -16 73 -5
17 -9 34 -9 36 0 3 -5 31 -11 63 -10 53 -23 108 -65 282 -9 36 -18 73 -20 83
-2 9 -6 21 -9 26 -3 5 207 115 466 245 l472 235 26 -62 c15 -34 55 -144 89
-244z m-3921 -4257 c81 -25 251 -71 337 -91 6 -2 48 -12 95 -23 47 -11 101
-23 120 -26 19 -3 46 -8 60 -11 14 -3 39 -8 55 -10 17 -3 37 -8 45 -10 8 -2
40 -7 70 -10 30 -3 66 -8 80 -10 149 -26 530 -27 690 0 14 2 48 6 75 10 78 9
226 35 270 47 22 6 54 12 70 15 17 2 48 9 70 15 58 16 58 16 83 22 12 3 31 8
42 11 11 3 28 7 38 9 31 7 125 33 215 60 102 30 134 32 167 9 36 -24 50 -46
98 -153 71 -156 112 -243 129 -274 20 -37 22 -102 3 -141 -8 -16 -33 -39 -55
-51 -79 -44 -464 -162 -610 -188 -16 -3 -41 -8 -55 -11 -14 -3 -38 -8 -55 -10
-16 -3 -37 -8 -45 -10 -8 -2 -35 -6 -60 -9 -25 -3 -54 -8 -66 -10 -20 -4 -52
-8 -198 -22 -128 -12 -159 -13 -456 -14 -271 0 -353 2 -465 15 -22 3 -67 7
-100 11 -33 3 -71 7 -85 10 -14 2 -54 9 -90 14 -240 39 -583 128 -751 196 -98
40 -141 90 -132 157 2 15 24 71 49 125 25 53 58 123 72 156 66 144 88 182 121
204 43 28 73 28 169 -2z"/>
<path d="M1549 6046 c-125 -48 -187 -130 -223 -291 -8 -38 -22 -101 -31 -138
-8 -37 -17 -80 -20 -95 -2 -15 -14 -72 -25 -127 -11 -55 -25 -131 -31 -170 -5
-38 -11 -81 -14 -95 -2 -14 -6 -47 -10 -75 -3 -27 -7 -66 -10 -85 -28 -219
-28 -699 0 -840 3 -14 8 -47 11 -75 3 -27 10 -68 16 -90 6 -22 14 -58 18 -80
5 -22 15 -65 23 -95 8 -30 17 -77 18 -105 4 -62 16 -98 50 -151 15 -23 46 -86
70 -140 125 -288 264 -509 466 -746 97 -113 129 -140 198 -163 49 -16 155 -23
205 -12 53 10 120 50 160 94 133 143 107 357 -56 469 -112 77 -284 334 -397
594 -16 36 -33 74 -38 85 -35 81 -105 339 -124 460 -28 175 -28 553 0 750 3
17 7 46 9 65 2 19 7 51 10 70 3 19 8 49 11 65 7 43 34 196 39 220 28 142 45
197 73 244 36 61 48 117 40 200 -9 102 -75 194 -171 241 -61 29 -210 38 -267
16z m169 -207 c44 -15 66 -52 59 -103 -13 -94 -126 -117 -176 -36 -24 41 -13
96 26 127 32 26 47 28 91 12z m-84 -396 l38 -6 -6 -41 c-3 -23 -8 -52 -11 -66
-15 -78 -25 -130 -30 -170 -3 -25 -7 -56 -10 -70 -3 -14 -6 -37 -7 -53 -2 -20
-6 -26 -18 -22 -35 14 -108 23 -144 18 l-38 -5 6 59 c7 62 8 70 32 203 19 101
20 106 29 145 16 69 11 66 68 39 29 -13 69 -27 91 -31z m-119 -627 c39 -16 55
-42 57 -89 2 -65 -47 -109 -112 -99 -60 9 -98 89 -69 143 10 19 65 59 82 59 4
0 23 -6 42 -14z m-63 -403 c25 -3 60 -1 77 5 17 6 33 7 35 3 3 -4 8 -37 11
-72 11 -123 17 -174 26 -224 24 -123 25 -115 -19 -115 -22 0 -67 -8 -100 -19
l-60 -18 -7 51 c-4 28 -9 58 -10 66 -4 20 -16 108 -21 145 -2 17 -6 68 -9 114
-6 78 -5 83 12 77 10 -4 39 -10 65 -13z m186 -638 c55 -46 51 -123 -7 -158
-37 -21 -65 -22 -101 0 -59 34 -66 99 -16 149 42 42 82 45 124 9z m217 -402
c31 -60 88 -154 126 -210 38 -57 69 -105 69 -107 0 -2 -18 -16 -40 -31 -22
-15 -53 -47 -69 -71 l-29 -44 -80 119 c-87 128 -192 314 -195 345 -2 14 9 22
43 32 25 7 61 27 80 43 19 17 36 30 37 31 1 0 27 -48 58 -107z m394 -515 c25
-15 46 -65 42 -98 -1 -14 -15 -38 -30 -53 -41 -42 -95 -40 -133 2 -78 88 22
211 121 149z"/>
<path d="M6300 6045 c-66 -22 -131 -75 -169 -139 -58 -97 -55 -228 8 -329 23
-36 48 -124 67 -237 3 -14 7 -32 9 -40 3 -8 7 -33 10 -55 3 -22 8 -49 10 -61
3 -12 7 -39 10 -60 4 -21 8 -46 10 -54 2 -8 7 -37 10 -65 3 -27 8 -63 10 -80
15 -114 20 -206 20 -390 0 -225 -6 -298 -36 -445 -25 -120 -86 -324 -120 -397
-10 -24 -19 -46 -19 -49 0 -4 -29 -65 -65 -136 -111 -219 -246 -408 -338 -471
-127 -88 -177 -250 -117 -383 37 -84 133 -163 220 -181 51 -11 161 -4 212 13
62 20 141 95 259 244 168 211 290 416 399 665 24 55 54 114 66 131 31 40 50
97 53 159 2 28 9 75 17 105 9 30 17 64 20 75 2 11 6 31 10 45 12 51 22 106 28
150 3 25 8 56 11 70 15 73 20 179 20 400 0 217 -5 320 -20 440 -3 19 -7 58
-10 85 -4 28 -8 61 -10 75 -2 14 -6 45 -10 70 -3 25 -13 77 -20 115 -8 39 -16
84 -19 100 -33 186 -93 428 -117 477 -30 60 -73 102 -136 134 -49 24 -71 29
-143 31 -54 2 -101 -3 -130 -12z m140 -210 c95 -49 55 -185 -55 -185 -33 0
-85 55 -85 90 0 44 21 81 55 96 39 17 50 17 85 -1z m165 -400 c5 -22 9 -44 11
-50 1 -5 5 -26 8 -45 4 -19 11 -57 16 -85 15 -80 19 -106 26 -169 l6 -58 -39
5 c-22 3 -65 0 -96 -7 -55 -13 -57 -13 -62 8 -8 34 -15 78 -21 131 -3 28 -10
66 -14 85 -5 19 -11 53 -15 76 -3 22 -10 55 -15 73 -6 23 -6 33 3 35 7 2 32 9
57 16 25 7 61 20 80 30 40 20 43 18 55 -45z m35 -620 c65 -34 80 -103 33 -155
-48 -53 -138 -38 -160 27 -18 52 4 108 52 129 38 17 40 17 75 -1z m-8 -401
c27 4 55 9 64 13 13 5 15 -5 10 -73 -10 -141 -39 -355 -51 -374 -3 -5 -28 0
-55 11 -28 10 -71 19 -96 19 -50 0 -47 -9 -30 90 14 83 17 98 22 150 3 30 7
69 9 85 2 17 4 44 4 62 1 31 1 31 38 21 20 -5 59 -7 85 -4z m-74 -639 c36 -30
48 -75 33 -114 -13 -31 -58 -61 -91 -61 -59 0 -108 62 -95 119 8 39 58 81 95
81 16 0 42 -11 58 -25z m-207 -348 c15 -8 42 -20 60 -25 25 -6 33 -14 32 -28
-3 -31 -97 -197 -190 -337 l-85 -127 -29 44 c-16 24 -47 56 -69 71 -22 15 -40
29 -40 31 0 2 31 50 69 106 68 103 104 165 155 267 l27 53 22 -19 c12 -11 34
-27 48 -36z m-413 -569 c56 -43 59 -109 7 -158 -50 -47 -144 -12 -158 58 -16
81 88 149 151 100z"/>
<path d="M2713 1873 c-24 -78 -28 -100 -17 -106 22 -13 224 -76 325 -102 99
-25 129 -31 189 -41 19 -3 51 -9 70 -14 19 -5 57 -11 84 -15 27 -3 52 -8 56
-10 3 -2 47 -7 96 -11 49 -3 92 -8 95 -10 15 -8 265 -19 454 -19 328 0 509 15
820 69 67 12 177 37 202 47 15 6 29 10 31 10 15 -6 310 84 325 99 5 4 -6 50
-23 102 l-32 95 -62 -19 c-33 -11 -99 -31 -146 -44 -47 -13 -98 -28 -115 -34
-16 -5 -43 -12 -60 -14 -16 -3 -45 -10 -63 -15 -18 -5 -33 -10 -35 -9 -1 0
-20 -3 -42 -7 -22 -4 -49 -9 -59 -11 -11 -2 -56 -8 -100 -14 -45 -6 -92 -13
-106 -15 -14 -3 -56 -7 -95 -11 -38 -3 -86 -8 -105 -10 -52 -5 -641 -5 -670 0
-14 3 -60 8 -104 11 -43 3 -81 7 -85 9 -3 2 -36 6 -72 10 -37 3 -73 8 -80 10
-8 3 -32 8 -54 11 -123 17 -317 66 -478 119 -59 20 -108 36 -110 36 -2 0 -17
-44 -34 -97z"/>
</g>
</svg>
