<?xml version="1.0" standalone="no"?>
<!DOCTYPE svg PUBLIC "-//W3C//DTD SVG 20010904//EN"
 "http://www.w3.org/TR/2001/REC-SVG-20010904/DTD/svg10.dtd">
<svg version="1.0" xmlns="http://www.w3.org/2000/svg"
 width="785.000000pt" height="757.000000pt" viewBox="0 0 785.000000 757.000000"
 preserveAspectRatio="xMidYMid meet">

<g transform="translate(0.000000,757.000000) scale(0.100000,-0.100000)"
fill="current" stroke="current">
<path d="M4939 6896 c-2 -3 -40 -7 -84 -10 -83 -6 -138 -12 -209 -21 -77 -10
-101 -13 -196 -30 -52 -9 -108 -19 -125 -22 -135 -20 -575 -144 -780 -219
-542 -200 -1022 -492 -1308 -797 -281 -299 -425 -590 -469 -947 -2 -14 -21
-48 -43 -76 -22 -28 -44 -59 -50 -68 -7 -10 -30 -17 -71 -21 -59 -5 -81 -9
-134 -20 -14 -3 -34 -7 -45 -9 -135 -27 -311 -105 -417 -186 -115 -86 -219
-213 -288 -350 -37 -72 -105 -265 -115 -326 -4 -21 -8 -43 -9 -49 -9 -34 -22
-116 -33 -215 -10 -84 -10 -501 0 -560 4 -25 9 -58 12 -75 18 -101 81 -257
148 -363 40 -63 160 -185 236 -241 171 -126 395 -209 661 -247 19 -2 44 -6 55
-9 25 -5 131 -15 210 -20 79 -6 519 -6 665 -1 63 3 214 7 335 11 121 3 238 8
260 10 22 3 76 7 120 10 44 3 98 7 120 10 22 3 79 7 127 10 49 4 96 8 105 9
10 2 54 7 98 10 44 4 96 9 115 11 38 5 97 11 200 20 36 3 83 8 105 10 22 2 87
7 145 10 58 3 143 8 190 11 87 6 606 5 715 -1 169 -9 290 -17 306 -20 10 -2
46 -6 81 -10 35 -4 79 -8 98 -10 19 -2 105 -16 190 -30 85 -15 169 -29 185
-32 121 -20 355 -115 408 -165 l40 -37 -6 -83 c-2 -46 -11 -96 -18 -111 -25
-56 -214 -138 -397 -173 -181 -34 -326 -26 -632 36 -25 5 -63 12 -85 15 -22 3
-69 10 -105 15 -36 5 -81 12 -101 15 -42 7 -83 11 -199 22 -166 16 -607 8
-680 -12 -8 -2 -31 -6 -50 -9 -305 -46 -641 -181 -834 -336 -174 -139 -276
-286 -338 -490 -25 -80 -30 -118 -35 -241 l-6 -146 24 -6 c38 -10 167 -8 174
3 3 5 8 43 11 82 10 163 15 192 50 290 35 98 120 224 202 298 86 78 224 164
332 207 47 19 94 38 105 43 19 8 146 46 188 55 10 2 26 6 35 9 9 3 35 8 57 11
22 3 60 10 85 15 88 18 137 21 355 25 144 2 258 -1 330 -10 61 -7 130 -16 155
-19 96 -11 136 -17 165 -22 17 -3 39 -7 50 -9 60 -10 262 -46 275 -50 93 -27
381 -25 524 4 180 36 346 101 446 175 86 63 133 193 129 360 -3 150 -66 232
-243 319 -80 40 -267 104 -351 121 -16 3 -39 8 -50 11 -54 13 -81 18 -225 40
-85 13 -180 26 -210 29 -30 3 -80 8 -110 11 -304 29 -902 38 -1170 16 -74 -6
-171 -13 -215 -16 -44 -3 -96 -7 -115 -10 -33 -4 -135 -15 -190 -20 -14 -1
-63 -6 -110 -10 -47 -4 -98 -9 -115 -11 -16 -1 -61 -6 -100 -9 -38 -3 -88 -8
-110 -10 -22 -2 -83 -7 -135 -10 -52 -4 -113 -9 -135 -11 -103 -10 -457 -17
-830 -18 -405 -1 -507 4 -655 29 -332 56 -568 180 -718 375 -54 70 -125 248
-139 346 -16 116 -8 532 12 636 3 13 8 39 11 58 3 19 17 78 31 130 89 333 285
550 575 634 52 15 70 19 153 34 52 9 432 9 515 -1 93 -10 130 -16 149 -21 9
-3 39 -8 66 -11 64 -7 105 -47 105 -101 0 -56 -58 -104 -113 -95 -4 1 -23 3
-42 6 -19 3 -52 7 -72 11 -21 3 -51 7 -68 9 -74 11 -217 20 -300 19 -188 -2
-279 -17 -405 -66 -202 -80 -330 -254 -385 -523 -8 -38 -16 -79 -18 -90 -7
-30 -20 -144 -23 -195 -5 -87 -4 -335 1 -360 3 -14 10 -47 15 -74 25 -124 135
-269 261 -343 102 -61 298 -120 489 -148 303 -44 495 -54 955 -49 215 2 410 5
435 8 25 2 88 8 140 11 52 4 106 8 120 10 14 1 63 6 110 10 47 3 99 8 115 10
17 1 63 6 104 10 41 3 87 8 103 10 16 2 63 6 106 10 42 3 88 8 102 10 14 2 54
7 90 10 36 3 85 8 110 10 25 2 104 6 175 10 72 3 147 8 168 11 45 5 748 5 822
-1 65 -5 204 -17 230 -20 58 -6 154 -17 180 -21 85 -13 150 -25 215 -39 60
-13 71 -15 90 -20 11 -3 30 -8 43 -11 12 -3 27 -6 32 -8 69 -17 236 -76 303
-107 312 -144 434 -318 419 -596 -3 -54 -8 -111 -12 -128 -14 -68 -54 -166
-90 -220 -78 -116 -304 -251 -510 -305 -98 -25 -130 -32 -225 -46 -38 -6 -280
-5 -341 1 -48 5 -105 14 -134 21 -11 2 -113 21 -160 29 -16 3 -66 12 -110 20
-96 17 -118 20 -265 42 -143 21 -594 25 -680 6 -30 -7 -71 -15 -90 -18 -60
-10 -212 -53 -284 -80 -295 -111 -479 -266 -550 -463 -21 -59 -26 -91 -26
-167 0 -75 3 -94 16 -99 22 -8 167 -7 180 2 6 4 10 24 9 44 -5 73 20 166 61
226 116 168 373 289 741 349 60 10 406 10 492 0 36 -4 87 -10 115 -13 28 -3
62 -8 76 -10 14 -2 59 -9 100 -15 41 -5 89 -14 105 -19 17 -5 50 -11 75 -15
73 -10 94 -14 170 -30 25 -5 80 -13 155 -20 54 -6 324 -7 355 -2 14 3 52 8 85
12 33 3 81 13 108 20 26 8 48 14 50 13 1 0 22 5 47 12 79 20 202 70 286 116
270 146 392 308 453 599 8 42 8 312 -1 357 -13 62 -55 164 -93 223 -170 267
-582 460 -1150 541 -27 4 -57 9 -65 10 -8 2 -43 6 -77 9 -34 3 -72 8 -84 10
-21 4 -152 14 -269 21 -87 4 -870 5 -878 0 -4 -2 -59 -7 -122 -11 -63 -4 -128
-8 -144 -10 -16 -2 -69 -7 -119 -10 -49 -4 -97 -8 -106 -10 -10 -2 -53 -6 -97
-10 -43 -3 -90 -8 -104 -10 -14 -2 -61 -6 -105 -10 -44 -3 -91 -8 -105 -10
-14 -2 -61 -6 -105 -10 -44 -3 -91 -8 -105 -10 -25 -4 -82 -8 -285 -22 -224
-15 -913 -7 -1090 13 -22 2 -62 7 -90 10 -27 3 -61 7 -75 9 -14 2 -56 9 -94
15 -38 6 -105 20 -150 31 -87 21 -90 22 -121 33 -11 5 -33 13 -50 19 -46 16
-134 74 -167 110 -64 68 -80 134 -78 325 2 179 3 199 26 357 34 237 131 391
282 449 40 15 89 30 110 33 37 4 37 4 74 -64 49 -93 114 -171 190 -228 299
-225 711 -193 960 73 32 34 54 50 67 47 16 -3 141 -36 416 -111 242 -66 258
-70 296 -79 12 -2 46 -11 76 -20 48 -14 130 -34 333 -81 36 -8 74 -17 85 -19
23 -5 55 -13 88 -20 12 -3 38 -8 57 -11 19 -3 51 -9 70 -14 38 -10 49 -12 190
-36 52 -9 104 -18 115 -20 11 -2 40 -7 65 -10 25 -3 56 -7 70 -9 14 -3 50 -7
80 -11 30 -3 71 -7 90 -10 215 -27 716 -26 845 1 11 3 34 6 50 9 531 80 932
358 1133 786 52 111 103 254 118 334 4 22 10 52 19 96 24 124 30 212 29 450 0
210 -3 251 -24 375 -25 152 -66 282 -139 445 -132 295 -386 562 -691 727 -95
51 -284 127 -370 149 -122 31 -278 62 -345 70 -22 3 -56 7 -75 10 -44 7 -515
15 -521 10z m492 -220 c8 -3 43 -7 79 -11 103 -10 339 -71 462 -121 216 -86
382 -197 529 -351 198 -209 314 -445 374 -763 28 -144 27 -586 0 -690 -2 -8
-6 -32 -9 -52 -12 -76 -45 -191 -84 -288 -145 -358 -410 -591 -798 -700 -109
-30 -118 -33 -184 -44 -19 -3 -48 -8 -65 -11 -194 -34 -684 -26 -940 15 -33 5
-78 12 -100 14 -114 14 -396 67 -560 106 -44 10 -91 21 -105 24 -14 2 -99 23
-190 46 -91 23 -173 44 -182 46 -10 2 -26 6 -35 8 -10 2 -53 14 -95 26 -43 11
-86 23 -97 25 -10 2 -70 18 -132 35 -113 32 -165 46 -204 55 -90 22 -120 33
-118 46 1 8 9 53 19 100 l17 85 46 -14 c25 -7 62 -17 81 -22 19 -5 67 -18 105
-29 39 -10 115 -31 170 -46 55 -14 129 -35 165 -45 36 -10 76 -21 90 -24 35
-7 49 -11 180 -44 177 -46 462 -111 553 -126 15 -3 35 -7 45 -10 9 -3 35 -7
57 -11 36 -5 67 -10 129 -21 11 -2 54 -8 96 -14 42 -6 86 -12 97 -14 41 -8
118 -16 298 -32 78 -6 384 -6 445 0 141 16 152 17 205 29 17 4 41 9 55 12 115
23 179 44 284 94 196 91 333 220 439 411 29 52 81 187 91 235 2 6 8 28 14 50
27 101 37 212 37 435 0 242 -6 292 -50 460 -56 208 -154 377 -307 526 -102
100 -216 180 -348 242 -92 43 -244 97 -300 107 -19 3 -51 10 -70 15 -47 12
-150 29 -230 38 -133 14 -552 6 -649 -13 -10 -2 -42 -6 -72 -10 -46 -5 -153
-23 -239 -39 -31 -6 -128 -25 -155 -30 -180 -36 -545 -149 -735 -227 -52 -22
-113 -47 -135 -57 -71 -29 -308 -152 -385 -200 -195 -120 -338 -232 -471 -369
-142 -146 -225 -264 -295 -420 -24 -55 -32 -63 -55 -63 -14 0 -45 -7 -68 -15
-22 -8 -41 -12 -41 -9 0 2 -16 -3 -37 -11 -20 -8 -38 -14 -39 -12 -4 3 26 94
56 177 8 19 27 60 43 90 234 436 731 819 1417 1091 153 61 451 157 573 185 9
2 27 6 40 10 12 3 33 7 47 10 13 3 60 13 105 24 44 10 96 21 115 24 19 3 58
10 85 15 50 10 95 16 190 27 28 3 56 7 64 10 7 2 77 7 155 10 77 4 143 9 146
11 6 6 360 -4 381 -11z m-21 -409 c14 -2 50 -7 80 -11 30 -5 91 -17 135 -28
453 -114 722 -362 824 -761 30 -118 36 -176 36 -377 0 -229 -13 -334 -55 -461
-87 -257 -218 -402 -451 -500 -41 -17 -78 -32 -84 -33 -5 -2 -30 -8 -55 -15
-54 -16 -75 -20 -167 -36 -95 -16 -431 -23 -558 -11 -92 8 -176 17 -198 22
-12 2 -53 6 -92 10 -38 3 -73 8 -76 10 -4 2 -24 6 -45 9 -22 4 -46 8 -54 10
-8 2 -35 7 -60 10 -53 7 -145 25 -325 66 -71 16 -141 32 -155 34 -14 3 -97 23
-185 45 -88 23 -167 43 -175 45 -16 3 -160 42 -305 81 -49 14 -98 27 -107 29
-27 7 -43 12 -168 45 -63 18 -126 34 -140 36 -31 6 -33 9 -50 64 -37 118 -123
249 -221 332 -65 56 -186 122 -252 139 -29 7 -47 17 -47 26 0 20 67 133 126
213 192 262 636 559 1069 715 28 10 55 22 60 25 16 12 363 122 425 136 11 2
29 6 40 9 11 3 28 7 38 9 9 2 35 9 57 15 22 5 54 13 70 15 17 3 41 8 55 11 14
3 39 8 55 10 17 3 37 8 45 10 8 2 33 7 55 10 23 3 52 8 65 10 14 3 50 7 80 10
30 3 66 8 80 10 14 3 59 7 100 11 41 3 77 8 80 11 5 6 408 -3 450 -10z m-3040
-1431 c147 -16 309 -134 375 -273 41 -86 52 -131 54 -219 9 -347 -337 -602
-668 -493 -81 27 -178 95 -232 163 -36 44 -50 74 -31 63 4 -3 45 -7 92 -11 47
-3 99 -8 115 -11 17 -3 44 -7 60 -10 101 -17 126 -19 176 -18 156 3 289 143
289 306 0 162 -114 289 -280 312 -30 4 -62 8 -70 10 -54 11 -170 25 -255 30
-16 1 -38 3 -48 4 -29 2 55 68 133 105 64 30 172 55 220 50 14 -1 45 -5 70 -8z"/>
</g>
</svg>
