<?xml version="1.0" standalone="no"?>
<!DOCTYPE svg PUBLIC "-//W3C//DTD SVG 20010904//EN"
 "http://www.w3.org/TR/2001/REC-SVG-20010904/DTD/svg10.dtd">
<svg version="1.0" xmlns="http://www.w3.org/2000/svg"
 width="867.000000pt" height="902.000000pt" viewBox="0 0 867.000000 902.000000"
 preserveAspectRatio="xMidYMid meet">

<g transform="translate(0.000000,902.000000) scale(0.100000,-0.100000)"
fill="current" stroke="current">
<path d="M3710 7556 c0 -55 -5 -64 -38 -71 -10 -1 -48 -17 -84 -34 -114 -54
-230 -190 -258 -304 -7 -26 -15 -47 -19 -47 -3 0 -237 0 -518 -1 l-513 0 0
-309 0 -310 -515 0 -515 0 3 -1075 2 -1075 -237 0 -237 0 -150 -303 c-83 -166
-151 -306 -151 -310 0 -3 59 -8 130 -9 l131 -3 2 -712 2 -713 -52 0 -53 0 0
-155 0 -155 -50 0 -50 0 0 -105 0 -105 50 0 50 0 0 -102 0 -103 3180 0 3180 0
0 103 0 102 55 0 54 0 -2 102 -2 103 -52 3 -53 3 0 155 0 154 -52 0 -53 0 2
713 2 712 131 3 c71 1 130 6 130 10 0 4 -68 143 -151 310 l-150 302 -237 0
-237 0 2 1075 2 1075 -515 0 -514 0 0 310 0 311 -507 -1 c-280 0 -513 -1 -519
0 -7 0 -15 16 -18 35 -16 82 -103 208 -185 267 -46 33 -161 92 -161 82 0 -2
-9 0 -20 6 -16 9 -20 21 -20 65 l0 55 -110 0 -110 0 0 -54z m-2 -372 l-3 -86
-79 -1 c-44 0 -81 4 -83 9 -7 20 59 104 104 133 26 17 50 31 55 31 5 0 7 -39
6 -86z m288 54 c44 -31 107 -113 101 -131 -2 -8 -154 -13 -162 -5 -3 3 -9 133
-6 156 2 19 20 14 67 -20z m1154 -555 l0 -203 -106 0 -105 0 2 -102 2 -103
613 -5 614 -5 3 -968 2 -967 -2355 0 -2355 0 0 970 0 970 617 0 616 0 -1 103
-2 102 -102 3 -103 3 0 199 0 199 33 3 c17 2 616 3 1330 3 l1297 0 0 -202z
m1627 -2663 l49 -100 -3003 0 c-1652 0 -3003 2 -3003 5 0 3 21 48 47 100 l48
95 2906 0 2907 0 49 -100z m-5627 -1025 l0 -716 -95 3 -95 3 -2 713 -3 712 98
0 97 0 0 -715z m1640 703 c0 -7 1 -329 3 -715 l2 -703 -715 0 -715 0 2 702 c2
387 3 709 3 716 0 9 149 12 710 12 561 0 710 -3 710 -12z m1850 -753 l0 -765
-77 -1 c-43 0 -88 -2 -100 -3 -17 -2 -23 3 -23 18 0 12 -1 311 -3 666 l-2 645
-618 3 -618 2 1 -662 c1 -539 -1 -663 -12 -665 -41 -7 -178 -7 -178 -1 0 5 0
341 0 748 0 407 0 749 0 760 0 20 7 20 815 20 l815 0 0 -765z m1640 50 l0
-715 -715 0 -715 0 0 715 0 715 715 0 715 0 0 -715z m410 0 l0 -715 -100 0
-100 0 0 715 0 715 100 0 100 0 0 -715z m-2460 156 l0 -149 -32 -3 c-18 -2
-202 -2 -408 1 l-375 5 0 148 0 147 408 0 407 0 0 -149z m-517 -371 c4 0 5
-39 2 -87 -2 -49 -5 -92 -5 -98 0 -6 -54 -9 -147 -7 l-148 3 3 87 c2 48 5 92
6 97 3 8 152 11 289 5z m515 -94 c1 -53 -1 -96 -5 -96 -21 -1 -260 -1 -278 -1
-19 1 -20 7 -17 89 2 48 4 92 6 97 2 6 59 10 147 9 l144 -1 3 -97z m0 -409
l-3 -97 -403 -3 c-352 -2 -402 0 -402 13 -1 8 -2 52 -3 98 -2 46 -2 84 -1 85
1 1 185 2 409 2 l406 0 -3 -98z m-1434 -360 l-1 -152 -949 -3 c-522 -1 -959 0
-971 3 -23 5 -23 8 -23 155 l0 150 973 0 972 0 -1 -153z m3996 4 c0 -121 -3
-150 -15 -154 -20 -8 -1888 -9 -1909 -1 -14 5 -16 26 -16 155 l0 149 970 0
970 0 0 -149z m-2150 -49 l0 -99 -61 -7 c-79 -8 -1532 -8 -1553 0 -13 5 -16
24 -16 105 l0 98 815 1 815 0 0 -98z"/>
<path d="M3307 6676 c-7 -17 -6 -176 0 -192 7 -19 1019 -20 1025 -2 7 17 7
179 0 196 -7 19 -1018 17 -1025 -2z"/>
<path d="M3020 6266 c-133 -42 -217 -146 -225 -276 -9 -159 83 -284 240 -325
52 -13 158 -15 815 -13 l755 3 59 29 c70 34 122 85 156 152 36 73 34 187 -5
267 -36 74 -99 130 -177 156 -60 20 -78 21 -822 20 -534 -1 -772 -5 -796 -13z
m1557 -211 c69 -16 77 -137 11 -171 -43 -22 -1494 -22 -1537 1 -66 34 -61 139
8 168 21 9 218 11 762 10 404 -2 744 -5 756 -8z"/>
<path d="M1667 6063 c-9 -8 -9 -130 -1 -172 l7 -31 203 0 204 0 0 105 0 105
-203 0 c-112 0 -207 -3 -210 -7z"/>
<path d="M5560 5965 l0 -105 205 0 c238 0 218 -12 213 125 l-3 80 -207 3 -208
2 0 -105z"/>
<path d="M1670 5441 c-7 -14 -9 -163 -8 -463 l3 -443 515 0 515 0 2 445 c2
269 -1 451 -7 460 -8 13 -78 15 -509 18 -491 3 -500 2 -511 -17z m400 -200 c3
0 4 -112 3 -248 l-3 -248 -97 -3 -98 -3 2 238 c2 131 3 245 3 254 0 13 14 16
93 14 50 -2 94 -3 97 -4z m410 2 c0 -4 2 -120 3 -256 l2 -248 -100 3 c-55 2
-99 6 -97 11 1 4 2 116 2 250 l0 243 95 3 c52 1 95 -1 95 -6z"/>
<path d="M3316 5444 c-14 -14 -16 -66 -14 -462 l3 -447 515 0 515 0 2 449 c2
314 -1 454 -9 463 -8 10 -108 13 -504 13 -436 0 -494 -2 -508 -16z m394 -441
c0 -134 1 -246 3 -250 1 -5 -43 -9 -98 -11 l-100 -3 2 248 2 248 43 6 c24 4
67 6 96 5 l52 -1 0 -242z m410 228 c0 -9 1 -123 3 -254 l2 -238 -97 3 -98 3
-2 248 c-2 136 1 248 5 250 5 1 49 3 98 3 75 0 89 -2 89 -15z"/>
<path d="M4950 5441 c-7 -14 -9 -163 -8 -463 l3 -443 515 0 515 0 2 445 c2
269 -1 451 -7 460 -8 13 -78 15 -509 18 -491 3 -500 2 -511 -17z m400 -200 c3
0 4 -112 3 -248 l-3 -248 -97 -3 -98 -3 2 238 c2 131 3 245 3 254 0 13 14 16
93 14 50 -2 94 -3 97 -4z m410 2 c0 -4 2 -120 3 -256 l2 -248 -100 3 c-55 2
-99 6 -97 11 1 4 2 116 2 250 l0 243 95 3 c52 1 95 -1 95 -6z"/>
<path d="M1567 3396 c-8 -20 -9 -879 -1 -899 6 -16 51 -17 515 -17 l509 0 0
459 c0 409 -2 460 -16 465 -9 3 -238 6 -509 6 -417 0 -494 -2 -498 -14z m398
-205 c6 -1 9 -90 7 -251 l-3 -250 -99 0 -100 0 0 253 0 252 92 -2 c51 0 98 -2
103 -2z m413 -249 l2 -252 -100 0 -100 0 0 248 c0 137 2 251 4 253 2 2 46 4
98 4 l93 0 3 -253z"/>
<path d="M5056 3403 c-3 -4 -6 -213 -6 -465 l0 -458 515 0 515 0 0 465 0 466
-509 -1 c-280 -1 -512 -4 -515 -7z m389 -217 c6 -2 10 -93 9 -247 l-1 -244
-99 -3 -99 -3 3 253 3 253 87 -3 c48 -2 92 -5 97 -6z m425 -243 l0 -253 -100
0 -100 0 0 183 c0 100 -3 212 -6 249 l-7 67 94 3 c52 2 100 3 107 4 9 0 12
-56 12 -253z"/>
<path d="M1050 1248 l0 -107 103 3 102 2 0 104 0 104 -102 1 -103 0 0 -107z"/>
<path d="M3100 1254 c0 -118 -4 -114 105 -114 109 0 105 -4 105 114 l0 101
-105 0 -105 0 0 -101z"/>
<path d="M3614 1348 c-3 -4 -4 -50 -3 -102 l2 -94 56 -6 c31 -3 76 -4 101 -2
l45 4 0 103 0 103 -98 1 c-55 0 -101 -3 -103 -7z"/>
<path d="M4129 1346 c-10 -11 -12 -147 -3 -182 5 -20 13 -22 100 -23 93 -2 94
-2 104 24 15 39 13 175 -2 180 -28 9 -190 9 -199 1z"/>
<path d="M5255 1340 c-10 -26 -3 -185 9 -192 13 -9 158 -10 180 -2 13 5 16 24
16 108 l0 101 -100 0 c-78 0 -101 -3 -105 -15z"/>
<path d="M6894 1348 c-3 -4 -4 -50 -3 -102 l2 -94 53 -7 c30 -3 78 -3 107 0
l52 7 0 99 c0 59 -4 99 -10 100 -51 5 -198 2 -201 -3z"/>
<path d="M542 1152 l3 -107 100 0 100 0 0 105 0 105 -103 2 -103 2 3 -107z"/>
<path d="M2077 1247 c-7 -17 -7 -176 0 -194 4 -9 29 -13 97 -13 50 0 96 4 103
8 8 5 11 38 10 107 l-2 100 -101 3 c-80 3 -102 1 -107 -11z"/>
<path d="M4742 1151 l3 -106 103 -1 102 -1 0 107 0 106 -105 1 -106 1 3 -107z"/>
<path d="M5872 1151 l3 -106 103 -3 102 -3 0 111 0 111 -105 -2 -106 -3 3
-105z"/>
</g>
</svg>
