<?xml version="1.0" standalone="no"?>
<!DOCTYPE svg PUBLIC "-//W3C//DTD SVG 20010904//EN"
 "http://www.w3.org/TR/2001/REC-SVG-20010904/DTD/svg10.dtd">
<svg version="1.0" xmlns="http://www.w3.org/2000/svg"
 width="791.000000pt" height="800.000000pt" viewBox="0 0 791.000000 800.000000"
 preserveAspectRatio="xMidYMid meet">

<g transform="translate(0.000000,800.000000) scale(0.100000,-0.100000)"
fill="current" stroke="current">
<path d="M3840 7117 c-103 -24 -216 -111 -262 -201 -63 -124 -64 -273 -3 -391
l21 -40 -59 -95 c-33 -52 -94 -149 -135 -215 -76 -121 -91 -146 -154 -245 -19
-30 -65 -104 -103 -165 -37 -60 -101 -162 -141 -225 -40 -64 -76 -124 -80
-133 -6 -16 -52 -17 -646 -17 l-641 0 -59 64 c-41 45 -78 74 -126 98 -64 31
-73 33 -177 33 -101 0 -115 -2 -170 -29 -89 -44 -165 -121 -206 -209 -30 -66
-33 -80 -33 -167 0 -73 5 -107 21 -148 43 -107 138 -200 243 -237 71 -26 80
-27 162 -27 l77 0 52 -81 c28 -45 61 -98 74 -117 31 -48 121 -193 303 -485 49
-77 100 -159 115 -182 15 -24 27 -48 27 -54 0 -11 -56 -107 -150 -254 -31 -49
-139 -221 -238 -381 l-182 -291 -90 0 c-88 0 -110 -5 -199 -45 -59 -26 -145
-114 -175 -180 -37 -80 -45 -123 -42 -211 7 -148 95 -276 242 -348 57 -28 75
-32 152 -33 108 -1 141 6 219 50 53 30 153 125 153 146 0 8 1213 11 1255 2 27
-5 43 -25 120 -150 50 -79 101 -162 115 -183 14 -22 47 -75 73 -118 26 -43 66
-107 89 -143 23 -36 75 -119 116 -185 77 -124 91 -147 159 -254 l41 -63 -18
-32 c-49 -83 -65 -222 -36 -315 54 -170 205 -289 374 -295 194 -7 353 104 415
289 31 90 16 242 -31 320 l-18 30 77 125 c43 69 99 160 126 203 26 43 59 96
73 118 14 22 72 115 129 207 58 92 121 193 140 224 20 31 56 89 81 129 25 39
51 78 58 85 11 11 127 14 644 13 l631 -1 38 -48 c126 -159 345 -203 525 -104
270 148 283 536 23 704 -72 46 -187 75 -264 66 -49 -6 -55 -4 -66 16 -7 13
-32 55 -57 93 -25 39 -57 89 -71 112 -14 23 -57 90 -94 150 -37 59 -104 167
-148 238 -44 72 -91 146 -103 165 -71 110 -86 135 -85 149 0 9 22 50 49 91 27
41 70 110 97 153 26 43 59 96 73 118 14 22 72 115 129 207 58 92 119 190 136
217 18 28 44 70 60 96 l28 45 51 -7 c57 -8 167 11 219 37 97 50 162 121 205
224 64 155 23 332 -106 452 -85 78 -155 103 -287 102 -132 -1 -191 -27 -287
-125 l-68 -69 -635 0 -635 0 -37 61 c-21 33 -60 95 -87 137 -27 42 -61 96 -75
119 -14 23 -57 90 -94 150 -37 59 -104 167 -148 238 -44 72 -91 146 -103 165
-12 19 -34 53 -48 75 -13 22 -40 65 -60 95 l-35 55 22 41 c30 57 45 121 45
196 0 158 -87 294 -233 366 -78 39 -186 50 -277 29z m212 -234 c126 -91 112
-274 -26 -345 -105 -54 -244 7 -276 120 -27 97 5 178 91 230 48 30 60 33 111
30 45 -3 67 -11 100 -35z m-202 -568 c70 -17 222 -7 236 16 16 26 44 5 85 -63
24 -40 74 -122 113 -183 38 -60 80 -128 94 -150 14 -22 35 -56 48 -75 12 -19
57 -91 99 -160 68 -109 176 -282 251 -402 13 -21 36 -56 50 -78 l27 -40 668 0
c528 0 669 -3 670 -12 1 -7 1 -18 0 -24 -1 -7 10 -47 24 -90 18 -58 36 -92 68
-129 l44 -49 -60 -96 c-33 -52 -70 -111 -82 -130 -12 -19 -38 -60 -57 -90 -19
-30 -66 -104 -103 -165 -37 -60 -102 -164 -143 -230 -41 -66 -85 -136 -97
-155 -12 -19 -40 -64 -62 -99 l-41 -64 60 -96 c34 -53 95 -150 136 -216 41
-66 86 -138 100 -160 14 -22 35 -56 48 -75 12 -19 57 -91 99 -160 43 -69 104
-167 136 -218 33 -51 59 -95 59 -98 0 -2 -20 -31 -44 -64 -46 -62 -74 -131
-80 -194 -2 -20 -6 -39 -8 -42 -3 -2 -304 -4 -670 -4 l-664 0 -42 -68 c-24
-37 -79 -125 -124 -197 -93 -150 -112 -180 -160 -255 -19 -30 -66 -104 -103
-165 -106 -172 -216 -348 -235 -375 -9 -14 -27 -44 -40 -67 -26 -46 -30 -49
-62 -32 -61 33 -216 33 -300 1 -31 -13 -35 -9 -97 93 -58 95 -114 186 -196
315 -13 19 -51 81 -86 138 -35 56 -87 139 -116 185 -28 45 -64 102 -79 127
-15 25 -43 70 -62 100 -19 30 -45 71 -57 90 -12 19 -32 52 -46 72 l-24 37
-660 1 c-363 0 -665 0 -672 0 -7 0 -10 6 -7 14 6 16 -22 129 -41 167 -8 14
-30 48 -50 73 l-36 48 27 46 c15 26 43 72 62 102 62 97 164 261 297 475 38 61
84 135 103 165 19 30 45 71 57 90 12 19 37 60 57 90 l35 55 -28 45 c-16 25
-36 58 -45 74 -9 16 -42 69 -73 117 -31 49 -73 117 -95 151 -21 35 -49 79 -61
98 -12 19 -51 81 -86 138 -35 56 -87 139 -116 185 -119 189 -136 220 -127 232
5 7 26 34 46 61 39 51 69 133 72 194 l1 35 673 3 672 2 23 38 c13 20 55 87 92
147 38 61 84 135 103 165 81 127 179 284 318 507 49 78 101 162 116 185 15 24
37 60 48 81 18 32 25 38 43 32 12 -3 47 -12 77 -20z m-2522 -941 c17 -4 49
-21 70 -40 94 -80 103 -206 19 -292 -42 -43 -72 -57 -129 -61 -87 -5 -173 53
-201 134 -33 98 13 203 108 246 42 19 82 23 133 13z m5357 -13 c130 -58 158
-220 58 -323 -60 -62 -161 -79 -225 -40 -153 95 -149 284 7 365 40 22 111 21
160 -2z m-5343 -2657 c112 -35 168 -191 105 -291 -83 -131 -261 -132 -342 -2
-33 52 -36 138 -7 195 45 88 147 129 244 98z m5371 -21 c80 -47 114 -157 75
-244 -24 -55 -43 -76 -92 -101 -133 -68 -290 25 -289 172 0 94 50 164 140 195
42 14 121 4 166 -22z m-2672 -1535 c85 -48 124 -170 81 -255 -40 -77 -123
-125 -202 -116 -83 9 -169 89 -177 167 -20 172 149 288 298 204z"/>
<path d="M3551 5555 c-244 -391 -390 -615 -400 -615 -9 0 -314 0 -678 0 -447
0 -663 -4 -663 -11 0 -5 8 -22 19 -37 16 -24 88 -138 146 -232 12 -19 33 -53
47 -75 14 -22 61 -96 103 -165 70 -112 191 -306 250 -400 12 -19 38 -61 58
-92 21 -31 39 -63 42 -71 4 -8 -139 -245 -330 -551 -184 -295 -335 -541 -335
-546 0 -6 248 -10 658 -10 361 0 666 0 678 0 22 0 30 -10 179 -250 67 -108
175 -281 250 -400 45 -71 61 -98 146 -235 48 -77 117 -187 154 -244 l66 -104
45 74 c25 41 57 91 70 112 40 61 159 252 289 462 38 61 84 135 103 165 19 30
44 69 54 85 10 17 62 99 116 183 l97 154 678 -1 c436 0 677 3 677 9 0 6 -151
251 -335 546 -184 294 -335 538 -335 541 0 4 17 34 38 67 22 34 70 111 107
171 38 61 84 135 103 165 61 97 78 123 154 245 41 66 116 185 166 265 50 80
93 152 97 160 7 19 83 17 -701 19 l-651 1 -384 615 c-211 338 -386 615 -389
615 -3 0 -178 -277 -389 -615z m720 -308 c180 -287 333 -522 340 -523 8 0 254
-2 547 -2 l534 -2 -19 -30 c-25 -42 -279 -448 -368 -590 -149 -237 -155 -246
-155 -253 0 -3 122 -200 270 -438 149 -237 270 -434 270 -438 0 -3 -241 -5
-535 -3 -317 1 -543 -2 -553 -7 -10 -5 -35 -38 -56 -73 -21 -35 -50 -82 -64
-106 -120 -192 -299 -478 -378 -604 -13 -21 -35 -55 -48 -75 -13 -21 -44 -71
-69 -112 l-46 -73 -66 103 c-104 163 -253 401 -275 439 -11 19 -45 73 -74 120
-30 47 -74 117 -97 155 -24 39 -67 107 -96 153 l-53 83 -545 -3 c-300 -2 -545
0 -545 3 0 4 122 201 270 438 149 238 270 435 270 439 0 4 -28 51 -63 105 -34
54 -102 163 -152 242 -49 80 -101 163 -115 185 -14 22 -47 75 -73 117 -26 43
-68 109 -92 147 -25 39 -43 71 -41 73 2 2 247 5 546 6 l542 2 327 522 c179
288 328 523 331 523 3 0 152 -235 331 -523z"/>
<path d="M3482 4561 c-9 -5 -12 -35 -10 -107 l3 -99 515 0 515 0 3 99 c3 75 1
101 -10 107 -16 11 -999 11 -1016 0z"/>
<path d="M3339 4156 c-2 -2 -18 -6 -35 -9 -77 -12 -165 -82 -205 -164 -70
-145 -23 -312 112 -399 86 -54 106 -56 808 -52 613 4 648 5 695 23 99 40 185
147 202 252 15 99 -44 233 -128 291 -93 63 -76 62 -793 62 -358 0 -654 -2
-656 -4z m1325 -229 c37 -24 51 -78 31 -116 -33 -65 2 -62 -704 -61 -416 0
-649 3 -661 10 -62 33 -66 138 -6 169 15 8 204 12 631 14 727 2 679 4 709 -16z"/>
<path d="M3483 3332 c-9 -6 -11 -35 -9 -102 2 -52 4 -98 5 -102 1 -4 232 -6
514 -5 l512 2 1 95 c1 52 -1 101 -3 108 -4 9 -114 12 -507 12 -275 0 -506 -4
-513 -8z"/>
</g>
</svg>
