<?xml version="1.0" standalone="no"?>
<!DOCTYPE svg PUBLIC "-//W3C//DTD SVG 20010904//EN"
 "http://www.w3.org/TR/2001/REC-SVG-20010904/DTD/svg10.dtd">
<svg version="1.0" xmlns="http://www.w3.org/2000/svg"
 width="737.000000pt" height="985.000000pt" viewBox="0 0 737.000000 985.000000"
 preserveAspectRatio="xMidYMid meet">

<g transform="translate(0.000000,985.000000) scale(0.100000,-0.100000)"
fill="current" stroke="current">
<path d="M3699 8716 c-2 -2 -37 -7 -78 -10 -41 -4 -77 -8 -80 -10 -3 -2 -35
-7 -71 -11 -64 -7 -189 -36 -325 -76 -263 -77 -573 -238 -802 -415 -109 -85
-303 -272 -392 -379 -168 -201 -300 -422 -405 -677 -42 -102 -76 -198 -71
-198 2 0 -3 -19 -11 -42 -8 -24 -22 -74 -30 -113 -16 -68 -18 -72 -111 -166
l-95 -96 -174 -349 -174 -348 87 -89 c115 -117 169 -141 272 -123 34 6 55 20
92 56 27 27 51 60 55 74 3 14 11 26 17 26 6 0 8 -3 5 -6 -3 -3 0 -29 8 -57 7
-29 15 -63 18 -77 36 -168 123 -406 209 -568 138 -263 258 -425 482 -648 131
-130 170 -175 164 -187 -5 -8 -27 -66 -49 -128 -56 -156 -154 -402 -220 -554
-16 -35 -47 -115 -125 -320 -13 -33 -29 -79 -36 -102 l-12 -43 -624 0 -623 0
0 -105 0 -105 3285 0 3285 0 0 105 0 105 -412 2 -413 3 -52 205 -52 205 0 259
-1 258 38 -8 c56 -13 303 -10 329 4 16 9 36 57 84 204 35 106 69 204 75 217
16 31 13 36 -46 66 -129 65 -180 150 -273 450 -9 28 -26 95 -37 149 -29 133
-30 135 -35 180 -3 21 -7 42 -9 45 -2 3 -7 30 -11 58 -3 29 -10 66 -15 83 -5
16 -7 30 -5 30 2 0 -2 18 -10 41 -8 23 -13 44 -10 49 11 18 46 199 59 311 29
241 26 483 -9 693 -23 135 -48 253 -65 300 -10 31 -17 56 -15 56 2 0 -7 30
-21 68 -14 37 -35 92 -46 122 -45 125 -159 337 -271 505 -118 176 -367 436
-548 572 -229 172 -513 319 -764 396 -105 33 -293 76 -375 87 -47 7 -96 14
-110 16 -34 6 -446 15 -451 10z m433 -220 c51 -7 110 -16 135 -20 11 -3 38 -7
59 -10 22 -4 47 -9 56 -12 9 -3 27 -7 40 -10 13 -3 28 -6 33 -8 193 -52 297
-93 474 -183 364 -187 667 -463 896 -818 148 -228 268 -529 314 -785 6 -30 12
-64 14 -75 4 -18 13 -84 23 -170 10 -87 3 -408 -11 -480 -2 -11 -4 -33 -4 -49
l-1 -30 -32 30 c-60 56 -114 93 -194 133 -78 39 -209 86 -268 97 -17 3 -47 9
-66 14 -19 4 -62 12 -95 16 -33 4 -71 8 -85 10 -62 9 -412 12 -470 4 -36 -4
-95 -11 -133 -15 -37 -3 -102 -13 -145 -21 -42 -8 -93 -17 -112 -20 -19 -3
-60 -12 -91 -20 -72 -18 -70 -18 -59 9 5 12 19 65 30 117 40 190 44 198 104
259 31 31 55 58 54 61 -1 6 13 108 19 135 2 11 5 31 8 45 2 14 6 40 9 58 8 43
14 79 21 127 3 23 8 52 10 65 3 14 7 39 10 55 3 17 7 41 10 55 2 14 7 43 10
65 3 23 7 52 10 65 4 19 -14 43 -100 131 -98 101 -105 110 -105 148 0 23 3 41
6 41 7 0 103 -39 126 -51 24 -13 24 -13 38 24 7 17 21 51 31 73 39 89 40 88
-48 123 -43 18 -87 36 -98 41 -11 4 -28 11 -37 14 -16 5 -18 19 -18 104 l0 99
-43 40 c-83 77 -201 118 -359 127 -86 5 -86 5 -111 -67 -9 -26 -24 -67 -33
-92 l-16 -45 -132 0 -133 0 -2 -105 -2 -105 100 0 101 0 0 -170 0 -170 35 -39
c19 -21 35 -42 35 -47 0 -5 -31 -55 -68 -112 l-69 -102 -294 -196 c-162 -108
-305 -200 -319 -205 -14 -5 -34 -14 -45 -19 -11 -5 -90 -37 -175 -70 -85 -34
-169 -68 -187 -75 -27 -12 -33 -12 -44 1 -27 33 -250 173 -362 228 -65 31
-190 81 -277 111 -157 52 -161 53 -287 54 -70 1 -129 4 -131 6 -14 14 121 326
200 463 179 310 452 599 748 790 138 90 376 205 520 252 83 27 161 50 190 55
18 3 36 7 39 9 3 2 24 7 46 10 92 15 109 18 128 22 11 2 52 6 91 10 39 3 73 7
75 10 5 5 364 -4 413 -10z m116 -632 c17 -7 32 -17 32 -21 4 -421 5 -436 33
-497 17 -38 53 -85 102 -135 41 -43 73 -79 71 -82 -4 -4 -8 -27 -30 -164 -4
-22 -11 -62 -16 -90 -6 -27 -12 -67 -16 -89 -3 -21 -8 -48 -10 -60 -2 -11 -7
-41 -10 -66 -4 -35 -14 -54 -44 -85 -39 -40 -90 -135 -90 -168 0 -9 -11 -59
-25 -110 -13 -50 -27 -108 -30 -127 -3 -19 -12 -57 -20 -85 -8 -27 -16 -61
-19 -75 -3 -14 -8 -36 -11 -50 -30 -122 -36 -115 95 -118 109 -3 145 1 280 34
31 7 87 18 125 24 39 5 81 12 94 14 13 3 49 8 80 11 31 4 67 8 81 11 68 12
471 4 565 -11 161 -25 240 -47 330 -92 192 -95 284 -219 321 -433 2 -14 7 -37
10 -52 3 -15 7 -39 9 -55 4 -28 19 -106 30 -153 3 -14 10 -45 15 -70 62 -313
156 -539 276 -660 l44 -46 -27 -83 -27 -83 -66 4 c-68 5 -134 30 -183 70 -36
29 -100 30 -150 3 l-36 -19 -3 -85 -3 -85 -262 301 c-176 202 -271 304 -291
311 -42 14 -81 4 -128 -34 l-41 -33 104 -308 c83 -249 102 -314 95 -338 -7
-27 -16 -14 -141 205 -74 129 -145 255 -159 280 -13 25 -42 74 -62 110 -38 66
-56 98 -102 180 -38 67 -92 101 -169 107 -63 5 -65 4 -158 -51 -51 -31 -95
-56 -96 -56 -2 0 -32 -13 -67 -29 -116 -54 -237 -84 -418 -105 -19 -3 -226 -5
-458 -5 l-424 -1 7 -57 c9 -77 14 -121 20 -163 2 -19 7 -66 11 -105 3 -38 8
-74 10 -80 12 -25 -22 30 -84 138 -113 198 -177 267 -250 267 -81 0 -173 -81
-426 -375 l-25 -30 26 70 c14 39 29 79 34 90 4 11 24 63 44 115 19 52 42 110
50 128 21 46 20 49 -27 73 -24 12 -51 31 -61 43 -41 48 -93 194 -104 291 -2
22 -8 54 -12 70 -4 17 -8 82 -9 145 l-3 115 -190 383 c-223 447 -229 454 -368
475 -52 8 -120 -19 -381 -149 l-270 -135 -28 -55 -28 -55 -22 24 -23 25 131
263 132 264 131 133 132 132 131 0 c112 0 143 -4 210 -25 43 -14 88 -29 99
-35 11 -5 45 -19 75 -30 81 -31 253 -124 339 -183 41 -29 124 -95 185 -147
203 -173 267 -221 391 -292 135 -77 234 -108 345 -108 l75 0 132 133 132 132
4 150 c5 170 3 160 52 278 29 68 36 96 32 124 -8 46 -50 91 -91 95 -29 3 -25
7 76 76 107 72 109 74 193 201 46 70 92 145 101 167 26 63 5 176 -40 213 -13
11 -16 38 -16 144 0 120 3 139 31 222 17 49 32 96 35 103 4 14 35 9 92 -14z
m-663 -1396 c-4 -13 -10 -79 -12 -148 l-5 -125 -70 -71 c-61 -63 -74 -71 -102
-68 -76 5 -273 111 -398 213 l-58 46 43 20 c23 11 101 44 173 72 116 46 139
52 215 54 46 1 111 8 144 15 81 17 78 17 70 -8z m-1516 -825 l170 -342 1 -83
c1 -46 5 -108 10 -138 5 -30 11 -76 15 -102 14 -116 76 -281 133 -357 l26 -34
-20 -56 c-11 -30 -25 -56 -30 -58 -17 -6 -256 246 -332 348 -150 204 -267 424
-342 647 -40 118 -45 136 -56 192 -3 14 -12 54 -20 90 -30 128 -39 112 115
190 104 52 139 66 148 57 7 -7 89 -166 182 -354z m2804 -1015 c9 -18 31 -60
50 -93 166 -297 161 -286 146 -300 -18 -18 -207 -115 -289 -149 -215 -90 -445
-149 -667 -173 -78 -9 -416 -8 -453 0 -14 3 -44 6 -68 6 -51 1 -56 11 -66 116
-8 76 -15 143 -21 190 -2 17 -7 62 -10 100 -4 39 -9 73 -12 78 -2 4 137 7 309
8 172 0 329 2 348 4 53 4 133 16 139 19 3 2 27 7 53 10 25 4 65 13 87 21 23 8
45 14 49 15 47 2 270 103 342 154 19 14 38 25 41 26 3 0 13 -15 22 -32z
m-1900 -285 c52 -82 169 -304 164 -310 -6 -5 -38 4 -92 28 -11 4 -38 15 -60
24 -58 23 -215 99 -215 105 0 6 170 190 176 190 2 0 14 -17 27 -37z m2901
-408 l156 -180 0 -136 c0 -102 5 -154 19 -210 11 -41 22 -85 25 -99 2 -14 7
-32 10 -40 3 -8 8 -26 10 -40 7 -37 15 -69 21 -91 3 -10 8 -28 11 -39 5 -20 1
-20 -291 -20 l-296 0 6 48 c3 26 12 83 20 127 7 44 16 103 19 130 3 28 10 75
15 105 6 30 12 75 16 100 9 80 15 102 66 257 l50 152 -21 67 c-11 36 -20 69
-20 72 0 9 16 -8 184 -203z m-615 7 c36 -64 85 -152 109 -195 l45 -77 -12 -73
c-6 -39 -14 -92 -17 -117 -3 -25 -7 -54 -8 -65 -10 -55 -16 -95 -21 -140 -6
-50 -15 -107 -20 -135 -2 -8 -4 -25 -4 -38 l-1 -22 -827 2 -827 3 3 97 c2 81
-2 111 -23 180 -14 46 -39 128 -55 184 -17 56 -31 115 -31 132 l0 32 48 -6
c81 -10 414 -12 492 -3 163 18 271 36 360 60 41 11 83 22 93 24 21 5 191 62
222 75 11 5 45 19 75 32 79 33 260 123 295 147 17 11 32 20 35 20 3 0 34 -52
69 -117z m-2485 8 c79 -38 146 -70 150 -70 5 0 22 -7 39 -15 29 -13 209 -75
232 -79 77 -16 75 -14 122 -115 24 -53 52 -104 61 -115 9 -10 16 -20 14 -22
-2 -3 6 -35 17 -72 11 -37 29 -98 40 -136 15 -46 21 -96 21 -157 l0 -89 -700
0 c-385 0 -700 2 -700 4 0 8 134 355 157 406 16 33 84 126 266 360 50 63 100
127 111 142 12 15 23 27 24 27 2 1 68 -30 146 -69z"/>
<path d="M905 2660 c-3 -5 -5 -53 -4 -105 l2 -96 106 3 106 3 2 103 2 102
-104 0 c-57 0 -107 -4 -110 -10z"/>
<path d="M1727 2663 c-9 -8 -9 -150 -1 -180 6 -22 11 -23 108 -23 l103 0 2
105 2 105 -104 0 c-57 0 -107 -3 -110 -7z"/>
<path d="M2447 2663 c-9 -8 -9 -150 -1 -180 6 -22 11 -23 105 -23 l99 0 0 105
0 105 -98 0 c-54 0 -102 -3 -105 -7z"/>
<path d="M3677 2663 c-4 -3 -7 -51 -7 -105 l0 -98 105 0 105 0 0 105 0 105
-98 0 c-54 0 -102 -3 -105 -7z"/>
<path d="M4590 2565 l0 -105 110 0 111 0 -3 103 -3 102 -107 3 -108 3 0 -106z"/>
<path d="M5727 2663 c-9 -8 -9 -150 -1 -180 6 -22 11 -23 105 -23 l99 0 0 105
0 105 -98 0 c-54 0 -102 -3 -105 -7z"/>
<path d="M6545 2660 c-4 -6 -5 -53 -4 -105 l3 -95 103 0 103 0 0 105 0 105
-99 0 c-57 0 -103 -4 -106 -10z"/>
<path d="M1323 2462 c-8 -5 -11 -38 -10 -107 l2 -100 99 -3 c68 -3 101 0 106
8 6 10 7 175 2 203 -2 9 -183 9 -199 -1z"/>
<path d="M3173 2464 c-9 -4 -13 -36 -13 -108 l0 -102 105 -3 106 -2 -3 108 -3
108 -90 2 c-49 1 -96 -1 -102 -3z"/>
<path d="M4196 2454 c-12 -11 -14 -35 -12 -102 2 -48 4 -90 5 -93 0 -3 47 -6
104 -5 l102 1 0 105 0 105 -92 2 c-70 1 -96 -2 -107 -13z"/>
<path d="M5315 2462 c-3 -3 -5 -51 -5 -106 l0 -101 104 -3 c79 -3 104 -1 108
10 5 11 4 178 0 201 -2 9 -198 8 -207 -1z"/>
<path d="M6957 2464 c-4 -4 -7 -54 -7 -111 l0 -104 105 2 106 3 -3 105 -3 106
-95 3 c-53 1 -99 0 -103 -4z"/>
<path d="M613 2363 c-14 -5 -19 -199 -5 -205 4 -2 51 -2 105 0 l98 4 -2 91
c-1 51 -4 98 -7 105 -3 9 -28 12 -91 11 -47 -1 -92 -4 -98 -6z"/>
<path d="M2144 2362 c-13 -8 -19 -181 -7 -197 5 -5 51 -10 103 -10 52 0 98 5
103 10 12 16 6 189 -7 197 -6 4 -49 8 -96 8 -47 0 -90 -4 -96 -8z"/>
<path d="M4904 2356 c-3 -7 -3 -55 -2 -106 l3 -94 103 -1 c121 0 116 -6 110
126 l-3 84 -103 1 c-73 1 -105 -2 -108 -10z"/>
<path d="M6144 2362 c-13 -8 -19 -181 -7 -197 5 -5 52 -10 106 -10 l97 0 0
101 c0 84 -3 103 -16 108 -22 8 -167 7 -180 -2z"/>
</g>
</svg>
