<?xml version="1.0" standalone="no"?>
<!DOCTYPE svg PUBLIC "-//W3C//DTD SVG 20010904//EN"
 "http://www.w3.org/TR/2001/REC-SVG-20010904/DTD/svg10.dtd">
<svg version="1.0" xmlns="http://www.w3.org/2000/svg"
 width="929.000000pt" height="639.000000pt" viewBox="0 0 929.000000 639.000000"
 preserveAspectRatio="xMidYMid meet">

<g transform="translate(0.000000,639.000000) scale(0.100000,-0.100000)"
fill="current" stroke="current">
<path d="M2580 5519 c0 -67 -1 -69 -27 -75 -16 -3 -62 -15 -103 -26 -172 -44
-348 -33 -538 34 -94 33 -158 35 -234 7 -94 -34 -155 -86 -200 -172 l-23 -42
-2 -1050 c-2 -577 -3 -1056 -3 -1063 0 -11 -21 -13 -100 -10 l-100 3 0 -102
c0 -120 -4 -117 124 -111 46 2 76 -1 76 -7 0 -5 2 -68 4 -140 2 -71 1 -136 -1
-142 -4 -9 -34 -13 -104 -13 l-99 0 0 -104 0 -104 -202 0 -203 0 -3 -225 -2
-224 205 -256 205 -257 0 -135 0 -135 106 0 105 0 -2 203 -2 202 51 3 52 3 0
105 0 104 -54 0 c-46 0 -54 3 -51 18 2 9 4 54 4 100 l1 82 206 0 205 0 -3 103
-3 102 -204 5 -204 5 -1 97 -1 98 2868 0 2867 0 0 -100 0 -100 -205 0 -205 0
0 -105 0 -105 205 0 205 0 0 -90 c0 -49 1 -93 3 -97 1 -5 -22 -9 -50 -11 l-53
-3 0 -105 0 -104 53 0 52 0 0 -202 0 -203 108 -3 107 -3 0 720 0 720 -106 3
-105 3 -1 143 c0 78 1 145 3 147 3 2 45 5 94 6 50 1 96 4 103 6 8 4 12 34 12
104 0 72 -3 99 -12 100 -7 1 -55 0 -105 -1 -51 -1 -93 2 -93 7 0 4 -1 481 -3
1058 -2 1049 -2 1050 -23 1096 -52 111 -166 187 -296 196 -57 4 -81 1 -141
-20 -178 -64 -318 -80 -443 -52 -32 8 -70 16 -84 19 -149 32 -140 26 -140 100
l0 62 -105 1 -104 1 -3 -67 -3 -66 -38 -12 c-49 -16 -61 -19 -227 -48 -159
-28 -415 -8 -600 47 l-45 14 -3 66 -3 66 -102 -1 -102 0 -5 -66 -5 -66 -70
-12 c-38 -6 -86 -14 -105 -18 -20 -3 -46 -7 -59 -10 -41 -8 -254 -9 -311 -1
-68 9 -179 28 -240 41 -8 2 -18 4 -21 4 -3 1 -5 29 -5 64 l1 62 -100 2 c-113
2 -112 3 -111 -79 1 -27 -2 -48 -6 -48 -11 0 -9 0 -79 -16 -33 -8 -82 -17
-107 -20 -26 -2 -58 -7 -72 -10 -37 -7 -327 -6 -385 1 -93 12 -234 35 -250 41
-11 5 -15 22 -15 68 l0 62 -105 1 -105 1 0 -69z m-714 -274 c204 -72 434 -84
639 -32 11 3 32 8 48 12 l27 7 0 -1050 c0 -948 -2 -1050 -16 -1056 -21 -8
-868 -8 -888 0 -15 6 -16 104 -16 1037 l0 1030 35 33 c31 29 49 37 91 43 6 0
42 -10 80 -24z m5054 5 c75 -38 70 52 70 -1091 l0 -1026 -97 -7 c-54 -4 -261
-6 -460 -5 l-363 3 0 1057 c0 1053 0 1058 20 1053 11 -2 28 -6 38 -9 165 -46
358 -56 485 -25 116 29 188 50 206 60 25 15 59 12 101 -10z m-3985 -30 c150
-34 463 -31 665 6 83 15 100 15 100 2 0 -7 1 -482 3 -1054 l2 -1042 -95 -7
c-52 -3 -258 -5 -457 -4 l-363 3 0 1059 0 1059 51 -6 c28 -4 70 -11 94 -16z
m1090 4 c138 -26 340 -35 465 -20 69 8 136 18 175 27 22 4 46 9 53 9 9 0 12
-219 12 -1060 l0 -1060 -405 0 c-317 0 -405 3 -405 13 0 8 0 2065 0 2105 0 3
43 -3 105 -14z m1049 -18 c132 -27 175 -31 336 -30 162 0 197 4 344 35 49 10
93 19 98 19 4 0 8 -472 8 -1049 0 -947 -2 -1049 -16 -1055 -20 -8 -868 -8
-888 0 -14 6 -16 108 -16 1056 l0 1050 28 -5 c15 -3 63 -12 106 -21z m-2494
-2443 l0 -153 -460 0 -460 0 0 153 0 152 460 0 460 0 0 -152z m1120 137 c0 -8
2 -77 3 -153 l2 -137 -457 0 -458 0 0 153 0 152 455 0 c398 0 455 -2 455 -15z
m1030 -135 l0 -155 -405 2 -406 3 -1 145 -1 145 404 5 c222 3 405 6 407 8 1 1
2 -68 2 -153z m1130 -2 l0 -153 -460 0 -460 0 0 153 0 152 460 0 460 0 0 -152z
m1130 0 l0 -153 -460 0 -460 0 0 153 0 152 460 0 460 0 0 -152z m-5740 -770
c0 -112 -2 -203 -4 -203 -2 0 -47 54 -100 120 l-97 121 -2 79 -2 79 30 3 c17
2 63 3 103 4 l72 1 0 -204z"/>
<path d="M1865 4960 c-3 -5 -5 -53 -4 -105 l2 -95 258 0 259 0 0 105 0 105
-254 0 c-157 0 -257 -4 -261 -10z"/>
<path d="M6270 4865 l0 -105 258 2 257 3 3 103 3 102 -261 0 -260 0 0 -105z"/>
<path d="M2990 4865 l0 -105 258 2 257 3 3 103 3 102 -261 0 -260 0 0 -105z"/>
<path d="M4120 4865 l0 -105 205 0 205 0 0 105 0 105 -205 0 -205 0 0 -105z"/>
<path d="M5145 4960 c-3 -5 -5 -53 -4 -105 l2 -95 258 0 259 0 0 105 0 105
-254 0 c-157 0 -257 -4 -261 -10z"/>
<path d="M3191 2095 l-2 -105 1185 0 1186 0 0 68 c0 37 -3 84 -6 105 l-7 37
-1177 0 -1177 0 -2 -105z"/>
<path d="M2398 1989 c-318 -45 -610 -257 -742 -540 -63 -137 -68 -154 -93
-319 -59 -395 175 -815 552 -990 158 -74 244 -93 420 -92 121 0 145 3 255 33
185 50 352 153 471 291 268 311 321 717 143 1086 -133 274 -416 480 -724 528
-62 9 -223 11 -282 3z m252 -213 c66 -11 84 -16 93 -25 9 -9 0 -29 -109 -258
-53 -112 -54 -113 -88 -113 -31 0 -35 4 -49 43 -9 23 -36 99 -61 169 -25 70
-50 137 -56 148 -14 27 -11 31 37 37 21 3 39 6 40 7 4 3 162 -3 193 -8z m-456
-133 c8 -27 28 -84 44 -128 16 -44 40 -108 53 -142 l23 -62 -25 -20 c-14 -12
-33 -19 -45 -16 -17 4 -170 73 -317 144 l-37 18 28 39 c58 78 215 214 249 214
7 0 19 -21 27 -47z m877 -83 c55 -55 129 -155 129 -175 0 -6 -24 -19 -52 -29
-85 -29 -191 -67 -213 -76 -103 -43 -107 -43 -133 -16 l-25 24 36 84 c19 46
58 129 86 186 l51 103 33 -23 c17 -12 57 -47 88 -78z m-1081 -404 l175 -83 0
-38 0 -38 -110 -38 c-60 -22 -147 -52 -192 -68 -54 -19 -83 -25 -84 -18 0 7
-2 21 -4 32 -11 59 -11 163 1 232 16 88 20 103 31 103 4 0 87 -38 183 -84z
m1296 -8 c16 -71 -4 -348 -25 -348 -7 0 -149 65 -309 142 -61 29 -63 31 -60
65 l3 35 125 45 c69 24 136 48 150 53 14 4 41 15 60 24 47 21 47 21 56 -16z
m-667 -7 c83 -60 79 -190 -8 -246 -99 -64 -235 17 -226 135 3 53 23 86 70 118
42 28 119 25 164 -7z m-350 -365 l22 -24 -71 -148 c-40 -82 -79 -166 -87 -186
-19 -46 -25 -44 -125 50 -76 72 -155 179 -142 192 5 4 59 25 119 48 146 54
143 53 195 73 60 23 63 23 89 -5z m656 -56 c61 -29 139 -66 175 -82 35 -16 66
-31 68 -33 8 -7 -95 -130 -139 -165 -57 -47 -122 -90 -134 -90 -5 0 -23 37
-38 83 -16 45 -47 130 -68 190 l-40 107 28 24 c15 13 30 23 33 21 3 -1 55 -26
115 -55z m-367 -87 c20 -49 132 -354 132 -357 0 -15 -196 -22 -275 -11 -114
16 -113 12 -46 155 32 69 70 151 84 183 25 53 29 57 61 57 27 0 36 -5 44 -27z"/>
<path d="M6038 1995 c-1 -1 -26 -5 -54 -9 -206 -24 -441 -145 -580 -299 -55
-61 -154 -208 -173 -257 -7 -19 -19 -49 -27 -66 -14 -33 -41 -140 -52 -209 -4
-22 -7 -94 -6 -160 3 -355 204 -676 530 -842 54 -28 124 -58 154 -66 171 -47
385 -53 525 -15 22 6 46 13 53 14 8 1 44 15 80 30 227 95 407 268 518 498 24
49 31 69 60 171 34 120 36 332 5 443 -5 17 -8 32 -6 32 2 0 -2 15 -10 33 -7
17 -13 36 -13 40 0 19 -49 127 -84 186 -139 231 -364 395 -622 453 -76 17
-286 34 -298 23z m204 -219 c25 -3 58 -10 72 -16 31 -12 41 14 -113 -312 -31
-65 -34 -68 -67 -68 -24 0 -36 5 -40 18 -6 16 -30 82 -60 162 -62 167 -74 204
-70 208 3 2 25 7 48 9 24 3 44 6 45 7 3 3 141 -3 185 -8z m-474 -103 c5 -10
28 -74 52 -143 24 -69 46 -129 50 -135 4 -5 13 -27 19 -47 12 -36 11 -39 -15
-62 -19 -16 -33 -21 -44 -15 -8 5 -55 27 -105 50 -121 56 -239 111 -244 115
-8 7 85 117 133 158 51 44 125 94 138 95 4 1 11 -7 16 -16z m839 -66 c85 -71
200 -218 181 -232 -2 -1 -39 -14 -83 -29 -44 -15 -89 -31 -100 -36 -20 -9
-157 -58 -185 -67 -9 -2 -24 8 -36 24 l-21 28 85 183 c47 100 88 182 91 182 3
0 34 -24 68 -53z m-1106 -416 c57 -26 139 -65 182 -85 74 -34 77 -37 77 -70 0
-31 -4 -36 -42 -50 -24 -9 -104 -37 -178 -64 -74 -27 -142 -52 -152 -56 -13
-6 -17 1 -23 36 -10 55 -9 192 0 249 8 46 22 89 29 89 2 0 50 -22 107 -49z
m1381 -156 c0 -44 -2 -98 -6 -120 -8 -48 -26 -115 -30 -115 -2 0 -52 23 -112
51 -60 28 -142 66 -181 85 -70 32 -73 35 -73 67 l0 34 128 47 c70 26 147 56
172 66 74 30 84 29 93 -5 4 -16 8 -66 9 -110z m-696 114 c71 -34 103 -127 66
-195 -6 -10 -24 -32 -42 -49 -27 -26 -38 -30 -88 -29 -66 0 -101 18 -131 70
-41 69 -18 158 52 203 41 26 89 26 143 0z m-332 -375 c20 -28 21 -27 -77 -234
-22 -47 -48 -102 -57 -123 l-17 -38 -61 46 c-89 67 -206 215 -185 236 7 7 123
52 203 79 52 18 133 49 138 55 13 12 38 3 56 -21z m716 -81 c194 -90 189 -86
178 -106 -19 -37 -145 -161 -201 -199 -72 -49 -73 -48 -116 77 -16 50 -44 130
-62 178 l-31 88 23 22 24 23 45 -19 c25 -11 88 -39 140 -64z m-416 -80 c39
-104 79 -211 101 -275 l23 -67 -29 -6 c-81 -18 -313 -1 -342 25 -5 4 19 68 53
141 110 235 106 229 143 229 30 0 34 -4 51 -47z"/>
<path d="M3601 1685 l-3 -105 777 0 776 0 -2 105 -1 105 -772 0 -771 0 -4
-105z"/>
<path d="M3703 1278 l2 -103 618 -3 617 -2 0 105 0 105 -619 0 -619 0 1 -102z"/>
</g>
</svg>
