<?xml version="1.0" standalone="no"?>
<!DOCTYPE svg PUBLIC "-//W3C//DTD SVG 20010904//EN"
 "http://www.w3.org/TR/2001/REC-SVG-20010904/DTD/svg10.dtd">
<svg version="1.0" xmlns="http://www.w3.org/2000/svg"
 width="741.000000pt" height="895.000000pt" viewBox="0 0 741.000000 895.000000"
 preserveAspectRatio="xMidYMid meet">

<g transform="translate(0.000000,895.000000) scale(0.100000,-0.100000)"
fill="current" stroke="current">
<path d="M6767 7384 c-1 -1 -45 -5 -97 -9 -107 -8 -137 -11 -230 -19 -36 -4
-92 -9 -125 -11 -33 -3 -78 -7 -100 -10 -22 -2 -74 -7 -115 -10 -41 -4 -88 -8
-105 -9 -16 -2 -57 -6 -90 -10 -307 -31 -303 -31 -498 18 l-177 45 -398 5
c-316 5 -414 3 -482 -8 -113 -19 -167 -27 -300 -41 -36 -4 -68 -9 -72 -11 -4
-3 -40 -9 -80 -14 -40 -5 -93 -12 -117 -16 -25 -3 -62 -1 -85 6 -23 6 -59 16
-81 22 -22 5 -53 13 -70 18 -16 5 -41 11 -55 14 -14 3 -43 10 -65 16 -23 6
-191 13 -390 16 l-350 5 -180 -90 -180 -91 -90 90 -90 90 -649 0 -648 0 6 -42
c3 -24 8 -52 10 -63 2 -11 7 -40 10 -65 3 -25 8 -56 11 -70 10 -50 20 -107 30
-180 4 -24 8 -47 10 -50 1 -3 6 -25 9 -50 3 -25 8 -54 10 -65 5 -28 18 -118
19 -130 0 -19 -14 -146 -27 -235 -8 -56 -14 -102 -21 -160 -5 -41 -10 -75 -20
-150 -2 -14 -6 -50 -10 -80 -3 -30 -9 -73 -12 -95 -9 -55 -5 -100 11 -154 8
-25 28 -93 46 -149 l31 -104 -1 -286 c0 -158 -2 -296 -4 -307 -2 -11 -7 -51
-12 -90 -4 -38 -8 -72 -9 -75 -1 -6 -14 -115 -21 -180 -3 -25 -7 -63 -10 -85
-3 -22 -7 -58 -10 -80 -2 -22 -10 -76 -16 -120 -16 -108 -15 -135 7 -275 3
-14 9 -56 14 -95 13 -91 21 -144 27 -175 2 -14 7 -45 10 -70 3 -25 7 -56 9
-70 11 -71 18 -116 18 -125 0 -6 -23 -62 -52 -126 l-53 -116 5 -264 c4 -256 6
-289 28 -355 5 -17 12 -41 14 -53 2 -13 7 -31 10 -41 3 -10 8 -27 10 -37 3
-10 12 -47 21 -83 14 -58 14 -155 0 -178 -2 -4 -7 -23 -10 -42 -3 -19 -10 -60
-16 -90 -11 -54 -14 -68 -25 -120 -34 -155 -36 -198 -35 -681 1 -395 4 -490
15 -499 15 -12 1022 -10 1063 3 12 4 32 9 43 12 91 20 248 58 265 65 23 9 122
6 164 -4 14 -4 38 -9 53 -11 16 -2 40 -6 55 -10 33 -7 55 -11 112 -20 25 -4
54 -9 65 -11 11 -2 34 -7 50 -10 17 -3 48 -9 70 -14 48 -11 2088 -8 2125 3 24
7 71 16 115 22 11 1 36 5 55 9 19 3 49 8 65 11 323 53 293 53 480 5 66 -17
128 -33 138 -36 9 -2 27 -7 40 -11 12 -4 218 -7 457 -8 l435 0 1 25 c0 14 -3
39 -7 55 -4 17 -10 47 -13 68 -15 94 -18 114 -22 142 -3 17 -21 117 -39 223
l-33 193 53 159 c29 88 51 160 50 162 -2 2 -6 41 -9 88 -8 104 -16 220 -21
280 -21 246 -24 345 -13 395 6 28 10 43 23 95 3 11 7 30 10 41 2 12 9 36 14
53 6 17 13 42 15 56 3 14 10 47 16 74 5 27 8 81 5 120 -13 181 -14 188 -31
466 -4 58 -7 119 -6 135 0 17 -15 82 -35 145 -19 63 -42 136 -49 161 -11 33
-12 53 -5 73 6 14 8 26 5 26 -2 0 0 8 5 18 6 11 12 31 15 45 4 24 40 147 71
244 7 23 12 43 10 45 -2 2 -7 125 -11 273 -4 149 -8 284 -8 300 -1 17 4 51 10
78 7 26 13 50 13 52 2 12 13 65 27 125 9 36 17 72 19 80 2 8 10 39 17 68 14
53 14 54 -30 185 -24 73 -44 150 -44 172 -1 22 17 93 39 158 l40 118 2 362 c1
199 4 509 7 689 l5 328 -26 -2 c-14 -1 -27 -3 -28 -4z m-4598 -328 l114 -114
229 114 229 115 302 -4 c166 -1 312 -6 325 -10 28 -9 31 -10 182 -47 69 -17
136 -34 150 -38 14 -4 45 -5 70 -1 25 4 70 10 101 13 31 4 67 9 80 11 13 3 44
8 69 11 25 3 56 7 70 9 14 2 48 7 75 10 28 4 57 8 65 10 8 2 38 7 65 11 28 3
73 10 100 14 28 5 210 9 405 9 l355 1 205 -51 c234 -58 211 -55 315 -45 44 5
96 9 115 11 19 2 69 6 110 9 41 4 102 9 135 12 33 3 76 7 95 9 19 2 67 7 105
10 39 3 86 7 105 10 19 2 69 7 110 10 41 3 93 7 115 9 l40 4 -3 -549 -3 -550
-39 -122 c-70 -220 -69 -182 -12 -364 45 -149 48 -164 37 -199 -7 -22 -20 -75
-30 -119 -10 -44 -26 -115 -37 -157 -15 -65 -17 -101 -12 -240 3 -90 7 -233 8
-318 l1 -155 -58 -195 -58 -195 22 -70 c11 -38 34 -108 49 -155 28 -85 35
-129 45 -295 3 -49 8 -112 10 -140 2 -27 7 -106 11 -175 3 -69 8 -136 9 -149
3 -27 -16 -112 -79 -355 -14 -54 -24 -102 -22 -105 3 -4 7 -49 11 -101 3 -52
8 -117 10 -145 6 -66 13 -162 20 -260 3 -44 8 -105 10 -135 3 -46 -4 -80 -48
-210 l-52 -155 43 -254 c24 -139 41 -255 39 -257 -8 -8 -595 -4 -624 5 -18 5
-33 8 -33 5 0 -3 -8 0 -17 5 -10 5 -31 11 -48 14 -61 12 -91 18 -110 24 -11 4
-24 8 -30 9 -5 2 -19 5 -30 8 -11 3 -36 10 -54 15 -39 12 -33 13 -405 -50
l-239 -40 -1021 1 c-562 0 -1033 2 -1048 5 -16 3 -40 7 -55 10 -16 3 -53 10
-83 15 -30 5 -66 11 -80 14 -49 11 -125 25 -155 30 -16 2 -58 9 -92 15 -48 9
-73 9 -105 0 -24 -7 -50 -14 -58 -15 -8 -2 -32 -8 -52 -13 -215 -61 -218 -61
-650 -61 l-403 0 0 432 c0 238 3 447 7 463 4 17 10 41 13 55 2 14 7 36 10 50
3 14 7 36 10 50 3 14 7 36 10 50 3 14 7 36 10 50 3 14 10 50 17 80 12 59 14
121 4 157 -7 25 -6 25 -36 138 -12 44 -23 87 -25 95 -3 8 -9 33 -15 55 -6 22
-10 150 -11 285 l0 245 51 114 c52 115 56 142 35 221 -2 8 -6 44 -10 79 -3 35
-7 67 -9 70 -2 3 -7 31 -10 61 -4 30 -8 66 -11 80 -6 34 -33 223 -41 285 -3
28 -6 52 -7 55 0 3 3 32 7 65 5 33 10 78 12 100 2 22 6 56 9 75 3 19 17 124
30 232 14 108 29 223 33 255 4 32 7 186 7 343 l-1 285 -32 110 c-18 61 -35
117 -36 125 -2 8 -9 35 -16 59 -10 39 -8 114 6 186 2 11 7 40 9 65 3 25 8 63
11 85 3 22 8 54 10 70 20 162 20 161 28 215 15 103 18 127 21 173 1 26 -3 75
-10 110 -7 34 -16 82 -19 107 -3 25 -8 54 -10 65 -2 11 -7 38 -11 60 -9 51
-12 71 -19 117 -3 21 -6 41 -7 45 -1 4 -1 11 0 16 0 4 216 7 479 7 l477 0 114
-114z"/>
<path d="M1437 6764 c-4 -4 -7 -222 -7 -483 0 -522 -2 -504 59 -536 28 -14 69
-12 101 5 9 5 68 79 131 164 63 85 116 155 119 155 3 0 59 -72 125 -159 65
-88 127 -162 137 -166 44 -14 66 -12 96 6 62 38 63 43 62 543 -1 298 -5 456
-12 464 -11 14 -159 17 -190 5 -15 -6 -16 -35 -15 -299 1 -161 -1 -293 -5
-293 -3 0 -32 36 -65 79 -61 83 -84 101 -134 101 -46 0 -63 -13 -131 -103
l-63 -82 -5 300 -5 300 -95 3 c-53 1 -99 0 -103 -4z"/>
<path d="M2711 6758 c-114 -20 -223 -136 -249 -268 -4 -19 -7 -196 -7 -393 l0
-359 105 0 105 0 0 152 0 151 100 -3 99 -3 -3 -147 -3 -146 104 -4 c62 -2 106
1 111 7 4 5 7 159 6 340 -1 362 -8 428 -56 517 -63 115 -188 178 -312 156z
m106 -230 c35 -29 53 -138 44 -260 -1 -16 -13 -18 -96 -18 l-95 0 -1 28 c-4
181 4 219 56 261 22 16 31 18 53 10 14 -6 32 -15 39 -21z"/>
<path d="M3333 6753 c-61 -31 -61 -29 -63 -544 l-1 -467 98 -4 c54 -2 104 -2
112 0 10 4 12 48 9 233 -2 126 -2 229 -1 229 2 0 52 -99 113 -220 119 -237
131 -252 200 -244 22 3 46 16 65 34 l30 30 3 469 c2 425 1 470 -14 485 -13 14
-33 16 -108 14 l-91 -3 0 -232 c0 -127 -3 -229 -6 -227 -4 2 -52 95 -107 207
-56 111 -112 213 -125 225 -31 29 -75 35 -114 15z"/>
<path d="M4102 6761 c-10 -6 -13 -33 -11 -97 1 -49 4 -94 6 -100 2 -7 37 -11
91 -11 48 -1 93 -1 100 -2 9 -1 12 -90 12 -410 l0 -410 103 2 102 2 5 409 5
409 100 1 100 1 0 105 0 105 -300 2 c-165 1 -306 -2 -313 -6z"/>
<path d="M4917 6764 c-9 -10 -9 -1024 1 -1024 4 0 121 -2 260 -3 l253 -2 -3
105 -3 105 -140 2 c-77 1 -144 2 -150 2 -6 1 -10 40 -9 97 l0 96 150 2 149 1
3 106 3 106 -123 1 c-68 1 -137 2 -153 2 l-30 0 3 83 c2 45 4 88 5 96 2 10 33
13 150 13 l147 1 0 107 0 108 -253 1 c-139 1 -256 -1 -260 -5z"/>
<path d="M5637 6763 c-4 -3 -7 -236 -7 -517 l0 -511 177 2 c170 2 178 3 231
30 85 43 177 161 200 256 4 18 7 124 7 237 0 189 -2 209 -23 260 -43 108 -136
201 -230 231 -39 13 -344 23 -355 12z m320 -229 c13 -8 35 -34 51 -57 27 -42
27 -43 27 -217 0 -96 -3 -187 -8 -203 -4 -15 -24 -45 -43 -67 -34 -37 -40 -40
-90 -40 l-54 0 0 304 0 304 47 -4 c26 -3 58 -12 70 -20z"/>
<path d="M1580 4300 l0 -1130 260 0 260 0 0 105 0 105 -155 0 -155 0 0 920 0
920 668 2 667 3 3 103 4 102 -776 0 -776 0 0 -1130z"/>
<path d="M4552 5328 l3 -103 668 -3 667 -2 0 -920 0 -920 -155 0 -155 0 0
-105 0 -105 260 0 260 0 0 1130 0 1130 -776 0 -776 0 4 -102z"/>
<path d="M3525 5396 c-75 -28 -111 -70 -157 -186 -14 -36 -39 -94 -55 -130
-17 -36 -38 -86 -48 -112 l-18 -48 -113 0 -114 0 0 -105 0 -105 134 0 135 0
-7 -37 c-8 -45 -8 -171 0 -227 4 -22 1 -55 -7 -75 -13 -38 -14 -109 -1 -148 4
-13 4 -23 -1 -24 -4 -1 -21 -2 -38 -3 -16 -2 -77 -6 -135 -11 -58 -4 -121 -9
-140 -10 -66 -4 -105 -16 -187 -55 -209 -99 -381 -268 -449 -443 -23 -58 -24
-72 -24 -284 l0 -223 105 0 105 0 0 205 c0 136 4 213 12 232 39 92 151 211
268 284 101 64 122 69 335 85 50 3 93 8 97 10 11 7 16 -9 22 -67 3 -30 8 -70
11 -89 8 -59 14 -103 20 -155 3 -27 7 -66 10 -85 2 -19 7 -60 10 -90 3 -30 8
-66 10 -80 6 -32 13 -81 20 -150 3 -30 7 -64 10 -75 2 -11 4 -23 4 -28 1 -4
18 -5 39 -3 20 3 64 8 97 12 71 7 77 10 71 32 -3 10 -8 42 -11 72 -3 30 -8 66
-10 80 -2 14 -6 50 -10 80 -3 30 -8 71 -10 90 -3 19 -8 55 -10 80 -3 25 -8 56
-10 70 -2 14 -7 49 -10 78 l-6 52 55 -35 c46 -29 155 -80 164 -75 1 0 18 -2
36 -6 75 -14 185 -10 271 10 50 11 105 35 158 69 l58 37 -6 -52 c-3 -29 -8
-64 -10 -78 -2 -14 -7 -45 -10 -70 -2 -25 -7 -61 -10 -80 -2 -19 -7 -60 -10
-90 -4 -30 -8 -66 -10 -80 -2 -14 -7 -50 -10 -80 -3 -30 -8 -62 -11 -72 -6
-22 0 -25 71 -32 33 -4 77 -9 98 -12 20 -2 37 -1 38 3 0 5 2 17 4 28 3 11 7
45 10 75 7 69 14 118 20 150 2 14 7 50 10 80 3 30 8 71 10 90 3 19 7 58 10 85
3 28 7 61 9 75 3 21 10 72 21 155 1 11 3 32 4 48 l1 27 63 -6 c34 -3 80 -7
102 -9 130 -10 370 -146 494 -280 68 -74 71 -88 71 -315 l0 -200 105 0 106 0
-1 228 -1 228 -36 73 c-103 214 -470 451 -735 476 -60 6 -115 13 -171 21 -33
5 -37 8 -31 27 13 39 12 110 -1 148 -8 20 -11 53 -7 75 8 56 8 182 0 227 l-7
37 135 0 134 0 0 105 0 105 -113 0 -113 0 -79 188 c-43 103 -89 202 -102 220
-57 77 -149 92 -294 48 -105 -32 -132 -32 -233 -2 -100 29 -162 36 -201 22z
m315 -250 c88 0 117 4 176 25 l71 26 16 -36 c45 -105 97 -232 97 -238 0 -2
-162 -3 -360 -3 -198 0 -360 1 -360 3 0 6 52 133 97 238 l16 36 71 -26 c59
-21 88 -25 176 -25z m347 -488 c4 -29 7 -73 7 -98 l1 -45 -355 0 -355 0 1 45
c0 25 3 69 7 98 l8 52 339 0 339 0 8 -52z m13 -365 c0 -5 -18 -66 -41 -137
-47 -143 -73 -183 -148 -220 -108 -55 -237 -54 -347 2 -70 36 -97 77 -143 218
-23 71 -41 132 -41 137 0 4 162 7 360 7 198 0 360 -3 360 -7z"/>
<path d="M2780 3349 l0 -179 105 0 105 0 0 178 0 177 -105 2 -105 1 0 -179z"/>
<path d="M4678 3522 c-16 -3 -18 -20 -18 -178 l0 -174 105 0 105 0 0 168 c0
92 -4 172 -8 177 -7 9 -146 15 -184 7z"/>
<path d="M2945 2861 c-82 -21 -163 -88 -206 -171 -34 -65 -34 -195 -1 -263 32
-63 96 -124 163 -153 l54 -23 1345 0 c1340 0 1345 1 1398 21 30 12 73 40 97
63 65 64 88 115 93 212 4 75 2 88 -23 139 -34 70 -89 126 -152 156 l-48 23
-1345 2 c-740 0 -1358 -2 -1375 -6z m2678 -212 c75 -39 75 -139 0 -178 -16 -8
-384 -11 -1323 -11 -1205 0 -1304 1 -1331 17 -69 41 -57 148 21 176 8 3 599 6
1313 6 938 1 1304 -2 1320 -10z"/>
<path d="M3120 1945 l0 -105 413 0 414 0 1 105 0 105 -414 0 -414 0 0 -105z"/>
<path d="M4143 1945 l0 -105 619 0 618 0 0 105 0 105 -619 0 -618 0 0 -105z"/>
<path d="M2710 1535 l0 -105 1081 0 1080 0 -3 103 -3 102 -1077 3 -1078 2 0
-105z"/>
</g>
</svg>
