<?xml version="1.0" standalone="no"?>
<!DOCTYPE svg PUBLIC "-//W3C//DTD SVG 20010904//EN"
 "http://www.w3.org/TR/2001/REC-SVG-20010904/DTD/svg10.dtd">
<svg version="1.0" xmlns="http://www.w3.org/2000/svg"
 width="985.000000pt" height="887.000000pt" viewBox="0 0 985.000000 887.000000"
 preserveAspectRatio="xMidYMid meet">

<g transform="translate(0.000000,887.000000) scale(0.100000,-0.100000)"
fill="current" stroke="current">
<path d="M4959 7706 c-2 -2 -44 -7 -94 -11 -49 -3 -103 -8 -120 -11 -16 -2
-48 -6 -70 -9 -100 -14 -98 -14 -241 -45 -572 -123 -1131 -426 -1568 -850
-219 -212 -427 -479 -574 -735 -37 -66 -162 -321 -162 -332 0 -3 -7 -21 -16
-41 -9 -21 -20 -46 -25 -57 -12 -28 -66 -186 -74 -215 -1 -3 -11 -36 -23 -75
-11 -38 -23 -81 -26 -95 -3 -14 -10 -47 -16 -74 -5 -26 -14 -64 -19 -85 -5
-20 -12 -58 -16 -86 -3 -27 -10 -68 -14 -90 -5 -22 -9 -47 -9 -55 0 -8 -4 -49
-8 -90 -17 -146 -11 -585 11 -740 28 -206 35 -239 105 -505 14 -53 70 -219 85
-252 8 -17 15 -34 15 -38 0 -3 9 -25 19 -48 11 -23 30 -67 44 -97 83 -185 142
-294 237 -436 258 -385 559 -688 939 -943 164 -111 288 -178 524 -285 170 -77
490 -173 692 -207 33 -5 71 -12 85 -14 14 -3 45 -8 70 -11 25 -3 47 -8 50 -9
12 -7 270 -20 395 -20 197 0 353 14 580 51 178 29 457 110 640 186 258 108
411 189 604 321 522 357 926 837 1168 1387 13 30 28 64 33 75 22 46 69 176 94
260 15 50 32 101 36 115 10 26 54 212 64 265 6 33 12 68 21 130 3 23 7 51 10
63 20 104 29 605 13 737 -21 176 -50 361 -64 407 -5 18 -13 50 -20 88 -2 14
-8 36 -13 50 -5 14 -14 45 -21 70 -16 56 -45 148 -58 180 -6 14 -27 68 -48
120 -208 533 -599 1043 -1069 1397 -81 60 -253 179 -290 199 -11 6 -57 32
-102 57 -45 26 -84 47 -87 47 -2 0 -53 23 -113 51 -59 28 -119 56 -133 61 -14
6 -34 15 -45 19 -41 18 -221 80 -255 88 -19 5 -62 16 -95 26 -33 9 -67 18 -75
20 -8 1 -33 8 -55 13 -42 12 -78 19 -135 28 -19 3 -60 9 -90 14 -30 5 -75 12
-100 15 -25 3 -61 8 -80 11 -43 6 -505 16 -511 10z m291 -358 l0 -153 -100 0
-100 0 0 153 0 152 100 0 100 0 0 -152z m-410 -12 l0 -154 -27 -6 c-16 -3 -48
-8 -73 -11 -42 -5 -55 -7 -120 -20 -14 -3 -38 -8 -55 -11 -16 -3 -63 -14 -105
-25 -41 -12 -82 -22 -91 -24 -19 -4 -166 -53 -194 -65 -47 -20 -108 -41 -110
-38 -4 3 -116 201 -134 235 -10 20 -8 23 21 37 94 43 301 113 433 147 79 21
96 25 145 34 14 3 36 7 50 10 34 7 80 15 175 30 44 7 81 13 83 14 1 1 2 -68 2
-153z m690 139 c74 -9 137 -19 185 -29 11 -3 54 -12 95 -20 154 -32 361 -99
533 -171 l38 -16 -37 -67 c-21 -37 -53 -95 -71 -129 -19 -35 -39 -63 -44 -63
-6 0 -22 6 -37 14 -33 16 -288 103 -322 109 -14 3 -43 10 -65 15 -22 6 -56 14
-75 17 -19 3 -53 10 -75 15 -22 5 -60 11 -85 15 -25 3 -54 7 -65 9 -11 3 -26
5 -32 5 -10 1 -13 39 -13 157 0 85 3 153 8 151 4 -3 32 -8 62 -12z m-1711
-493 c29 -51 52 -94 50 -96 -8 -5 -76 -44 -121 -69 l-47 -26 -70 122 c-38 67
-70 127 -71 132 -1 6 13 19 32 29 18 10 55 31 83 47 l49 27 21 -36 c12 -21 45
-79 74 -130z m2844 119 c42 -25 77 -49 77 -54 0 -6 -27 -57 -60 -114 -33 -58
-60 -108 -60 -112 0 -4 -5 -12 -11 -18 -8 -8 -21 -6 -48 9 -58 33 -126 71
-130 74 -5 5 143 264 149 261 3 -1 40 -22 83 -46z m-1623 -881 c0 -420 -2
-765 -4 -767 -2 -2 -16 -6 -32 -9 -71 -11 -134 -28 -197 -51 -81 -30 -77 -32
-135 72 -21 39 -89 158 -152 265 -62 107 -171 296 -243 420 -71 124 -137 239
-147 255 -96 165 -160 280 -160 286 0 4 30 22 68 39 223 107 443 178 657 214
141 23 155 25 245 32 47 3 87 8 89 10 2 2 6 2 8 1 2 -2 3 -347 3 -767z m430
746 c22 -4 66 -11 138 -21 198 -29 722 -215 722 -257 0 -4 -22 -45 -49 -90
-41 -71 -156 -269 -223 -388 -11 -19 -44 -75 -73 -125 -29 -49 -62 -106 -73
-125 -10 -19 -70 -123 -132 -230 -62 -107 -134 -232 -159 -278 -52 -94 -38
-90 -161 -47 -41 14 -95 28 -120 31 -25 3 -54 7 -65 9 -20 4 -20 12 -20 771
l0 766 95 -6 c52 -3 106 -8 120 -10z m-2026 -152 c36 -63 67 -123 70 -132 4
-12 -15 -33 -66 -72 -174 -134 -372 -334 -494 -499 l-45 -60 -35 20 c-36 20
-73 41 -164 92 -30 16 -57 32 -59 33 -13 11 158 222 294 363 61 62 151 148
200 191 85 73 222 180 230 180 2 0 33 -52 69 -116z m3631 2 c180 -145 374
-344 523 -538 29 -37 52 -71 52 -75 0 -4 -40 -29 -88 -55 -48 -26 -106 -59
-128 -73 l-42 -25 -50 68 c-122 163 -347 388 -507 505 -42 32 -54 45 -49 60 5
17 28 58 107 194 l31 53 26 -17 c14 -9 70 -53 125 -97z m-3231 -339 c32 -56
91 -158 131 -227 40 -69 98 -170 130 -225 32 -55 66 -113 75 -130 9 -16 43
-75 75 -130 32 -55 66 -113 75 -130 9 -16 38 -65 64 -108 25 -43 46 -80 46
-83 0 -2 23 -41 50 -88 28 -47 50 -87 50 -89 0 -2 -51 -56 -114 -119 l-113
-114 -224 129 c-123 70 -249 142 -279 159 -30 17 -91 53 -135 79 -44 25 -96
56 -115 66 -19 11 -96 55 -170 98 -218 126 -323 186 -362 208 l-38 21 21 34
c79 135 299 387 455 521 112 97 291 230 309 231 6 0 37 -46 69 -103z m2749 61
c256 -172 551 -474 695 -709 l22 -36 -38 -20 c-37 -20 -211 -120 -267 -153
-39 -23 -217 -125 -275 -158 -25 -14 -61 -35 -80 -47 -19 -12 -55 -33 -80 -47
-63 -35 -298 -170 -405 -233 -49 -29 -109 -64 -133 -77 l-44 -24 -115 115
-116 116 20 35 c10 19 55 96 98 170 71 121 272 470 379 656 211 368 262 454
269 454 4 0 36 -19 70 -42z m-4028 -536 c17 -10 61 -35 98 -56 37 -20 81 -45
96 -54 l28 -17 -43 -74 c-24 -41 -48 -79 -53 -84 -6 -6 -56 18 -135 63 -69 40
-126 74 -126 75 0 10 93 165 98 165 4 0 21 -8 37 -18z m5239 -29 c14 -27 34
-61 45 -78 12 -16 21 -33 21 -37 0 -3 -21 -19 -47 -34 -130 -74 -204 -114
-211 -114 -4 0 -18 19 -29 43 -12 23 -33 61 -47 83 l-26 42 68 36 c37 20 94
52 127 71 33 19 63 35 67 35 4 0 19 -21 32 -47z m-5297 -410 l93 -54 -16 -37
c-50 -116 -127 -368 -148 -487 -3 -16 -8 -41 -11 -55 -2 -13 -7 -42 -10 -65
-3 -22 -8 -59 -11 -82 l-6 -41 -82 -7 c-65 -5 -142 -4 -218 4 -4 1 -5 13 -3
29 2 15 12 74 21 132 16 109 74 361 100 440 8 25 38 107 66 182 l52 136 40
-20 c23 -11 83 -45 133 -75z m5559 -173 c14 -41 27 -82 29 -90 1 -8 9 -35 16
-60 7 -25 14 -49 15 -55 2 -5 6 -23 9 -40 3 -16 11 -48 17 -70 5 -22 12 -51
14 -65 2 -14 7 -41 11 -60 8 -44 9 -50 18 -133 6 -54 5 -71 -6 -78 -22 -14
-289 -10 -289 5 0 34 -23 189 -36 241 -8 33 -16 69 -18 80 -20 96 -80 284
-141 438 -4 10 -3 17 4 17 6 0 48 22 93 49 46 27 101 58 123 70 l39 21 39 -98
c21 -53 49 -131 63 -172z m-5151 206 c11 -7 36 -23 55 -33 19 -11 86 -50 149
-87 62 -36 115 -66 117 -66 1 0 60 -34 129 -75 70 -41 128 -75 130 -75 2 0 32
-17 66 -38 35 -22 84 -50 109 -64 25 -14 88 -50 140 -80 52 -31 160 -92 240
-138 80 -46 149 -86 153 -90 5 -4 -1 -29 -12 -55 -24 -54 -61 -199 -61 -239
l0 -26 -770 0 -771 0 6 53 c3 28 7 73 10 100 13 129 18 158 30 217 3 14 7 35
10 48 2 13 6 31 9 40 3 9 7 28 10 42 2 14 9 43 15 65 6 22 11 45 12 50 1 6 6
21 11 35 6 14 27 72 47 130 40 111 128 300 140 300 3 0 15 -6 26 -14z m4537
-59 c71 -138 131 -300 177 -479 26 -103 35 -143 47 -218 2 -14 6 -34 9 -46 4
-19 14 -128 19 -221 l3 -43 -769 0 -768 0 -1 23 c0 12 -2 29 -4 37 -2 8 -5 26
-8 40 -16 77 -29 125 -41 149 -34 67 -36 64 85 133 118 67 125 70 234 135 68
40 101 58 195 111 25 14 61 35 80 47 19 12 60 36 91 53 31 17 155 88 275 158
121 70 235 136 254 147 19 11 44 26 55 33 11 8 22 14 25 14 3 0 22 -33 42 -73z
m-2226 -314 c-18 -45 -48 -164 -44 -169 3 -2 18 -7 34 -10 15 -3 31 -7 36 -10
10 -6 38 -12 99 -20 l47 -6 8 53 c4 30 9 57 10 62 1 4 2 21 3 37 1 37 12 37
82 4 82 -39 167 -104 241 -182 101 -107 101 -101 3 -150 l-84 -41 28 -68 c16
-37 34 -80 41 -95 l12 -26 82 35 c44 19 86 37 93 39 9 5 14 -6 28 -66 16 -69
23 -263 11 -320 -23 -109 -57 -210 -71 -210 -3 0 -16 7 -29 15 -19 13 -143 65
-153 65 -5 0 -44 -92 -41 -95 2 -1 40 -19 86 -40 45 -21 82 -42 82 -46 0 -15
-81 -109 -139 -160 -58 -51 -213 -149 -236 -149 -10 0 -40 79 -50 131 -11 58
-11 58 -68 44 -29 -8 -69 -16 -91 -19 -53 -8 -55 -11 -46 -53 5 -21 11 -67 15
-102 l7 -63 -99 5 c-54 3 -113 9 -132 12 -91 18 -241 80 -241 99 0 6 23 44 50
85 28 40 50 77 50 80 0 4 -20 19 -44 35 -24 15 -56 41 -72 57 l-28 29 -73 -71
c-83 -83 -77 -84 -148 15 -70 100 -117 213 -140 334 -4 25 -9 24 103 24 68 1
82 3 84 17 4 38 5 187 1 197 -2 6 -40 11 -96 12 -100 1 -95 -3 -84 62 20 117
92 260 182 361 l32 36 52 -78 52 -78 36 22 c20 11 61 44 92 73 l56 53 -62 63
c-35 35 -63 66 -63 70 0 3 33 22 73 41 74 37 164 63 252 74 28 3 51 6 52 7 1
0 29 -1 63 -2 49 -3 60 -7 56 -19z m-2848 -798 l3 -101 -151 -3 c-82 -1 -150
1 -151 6 -1 11 -1 175 0 191 1 11 31 13 149 10 l147 -3 3 -100z m5830 98 c14
-3 17 -18 17 -96 0 -51 -4 -95 -8 -98 -5 -3 -73 -7 -153 -8 l-144 -2 0 106 0
106 135 -2 c75 0 144 -3 153 -6z m-4077 -225 c1 -47 24 -140 55 -225 13 -37
23 -67 22 -68 -9 -5 -89 -51 -118 -67 -19 -11 -78 -45 -130 -75 -52 -31 -126
-74 -165 -96 -38 -22 -87 -51 -107 -64 -21 -12 -39 -23 -41 -23 -3 0 -56 -30
-118 -67 -63 -36 -177 -102 -254 -146 -77 -44 -171 -99 -210 -122 -38 -23 -95
-56 -126 -73 l-56 -31 -20 37 c-35 64 -129 295 -153 377 -26 90 -70 265 -75
300 -3 22 -8 47 -10 55 -8 31 -27 205 -29 273 l-2 37 768 0 768 0 1 -22z
m3574 -25 c-12 -154 -29 -280 -50 -373 -3 -14 -8 -36 -11 -50 -14 -70 -29
-119 -97 -310 -46 -131 -124 -303 -136 -296 -3 2 -51 29 -106 61 -55 32 -114
66 -132 76 -31 17 -456 263 -518 299 -16 10 -88 51 -160 92 -71 41 -165 96
-208 122 -43 25 -80 46 -83 46 -3 0 -48 26 -111 65 -2 1 6 26 17 57 16 46 57
187 59 203 1 3 1 16 1 30 l0 25 769 0 769 0 -3 -47z m-5308 -167 c1 -1 5 -24
8 -52 6 -52 7 -62 26 -154 32 -163 90 -362 148 -507 l20 -51 -126 -71 c-70
-39 -129 -71 -132 -71 -12 0 -87 195 -130 341 -17 57 -35 118 -40 134 -9 28
-15 55 -26 115 -3 14 -7 36 -10 50 -10 46 -20 104 -31 185 -3 22 -7 48 -10 58
-4 11 2 20 15 25 16 6 281 4 288 -2z m5806 4 c5 0 6 -3 4 -7 -3 -5 -8 -35 -12
-68 -17 -153 -56 -335 -114 -525 -43 -140 -110 -310 -122 -310 -7 0 -240 129
-252 140 -4 4 2 29 13 56 58 134 149 457 165 589 10 75 17 119 20 124 2 5 189
5 298 1z m-3817 -368 c39 -43 91 -93 116 -112 l44 -34 -91 -160 c-50 -89 -136
-237 -190 -331 -54 -93 -123 -213 -153 -265 -30 -52 -70 -122 -90 -155 -48
-83 -71 -123 -97 -170 -13 -22 -48 -82 -79 -134 -30 -51 -57 -99 -59 -105 -9
-27 -251 159 -416 319 -155 151 -369 415 -372 458 0 5 94 63 208 129 230 134
703 406 772 446 25 13 68 38 95 55 28 16 65 38 81 47 17 10 57 34 90 53 33 19
62 36 65 36 3 1 37 -34 76 -77z m1666 42 c34 -20 77 -44 93 -54 17 -10 89 -51
160 -92 72 -41 153 -88 181 -105 27 -17 70 -41 95 -55 24 -14 89 -51 144 -83
55 -32 121 -70 146 -84 25 -14 134 -77 242 -139 l196 -114 -26 -41 c-141 -226
-438 -528 -682 -696 -60 -41 -77 -49 -87 -39 -7 7 -47 74 -90 148 -85 150 -87
153 -169 295 -32 55 -66 114 -75 130 -18 31 -257 445 -318 550 -19 33 -46 80
-60 105 -14 25 -30 52 -35 61 -8 12 13 39 104 131 63 64 115 117 116 117 0 1
30 -15 65 -35z m-1190 -345 c53 -14 61 -16 121 -25 26 -3 50 -10 52 -15 3 -4
6 -350 8 -769 l2 -761 -90 6 c-49 3 -102 8 -116 11 -14 2 -41 6 -60 8 -19 3
-43 7 -54 10 -11 2 -49 9 -85 16 -137 26 -314 80 -471 145 -105 43 -198 89
-199 99 0 5 14 31 30 58 17 26 30 50 30 52 0 2 17 33 38 67 22 35 50 84 64
109 14 25 60 105 103 179 42 74 85 149 95 165 10 17 66 114 125 216 58 101
117 203 130 225 12 23 51 90 85 148 l61 106 45 -19 c24 -11 63 -24 86 -31z
m769 -56 c118 -204 321 -558 346 -603 14 -25 38 -65 53 -90 15 -25 55 -92 87
-150 33 -58 94 -165 136 -238 43 -73 75 -137 72 -142 -3 -5 -43 -27 -88 -48
-287 -137 -575 -212 -907 -238 l-75 -5 0 765 c0 673 2 767 15 770 8 2 31 7 50
10 19 3 46 9 60 12 14 3 36 7 50 10 18 4 125 45 137 53 1 0 29 -47 64 -106z
m-2897 -314 c25 -45 46 -84 46 -88 0 -8 -65 -48 -171 -105 l-87 -47 -48 88
c-26 48 -43 88 -38 90 5 2 63 35 129 73 66 38 121 69 122 70 1 0 22 -36 47
-81z m4984 20 c20 -11 62 -35 92 -52 30 -16 57 -31 58 -33 2 -1 -18 -41 -44
-88 -43 -78 -49 -84 -68 -74 -83 42 -236 132 -236 139 0 4 14 31 30 59 17 28
30 53 30 56 0 2 7 16 16 29 l16 24 34 -20 c19 -10 51 -28 72 -40z m-4703 -425
c93 -113 313 -329 423 -413 80 -63 91 -77 73 -96 -9 -10 -41 -66 -102 -178
l-32 -57 -36 27 c-211 156 -435 371 -589 567 -56 70 -102 131 -102 135 0 6 96
63 235 139 16 9 23 7 38 -11 10 -12 52 -63 92 -113z m4513 61 c67 -38 122 -72
122 -75 0 -3 -42 -59 -92 -125 -146 -188 -388 -422 -598 -578 l-35 -26 -67
117 c-37 64 -70 124 -73 132 -4 11 21 37 82 85 126 99 338 309 440 436 48 60
90 108 94 107 3 -2 61 -34 127 -73z m-3739 -711 c44 -25 81 -47 81 -49 0 -2
-22 -43 -105 -190 -15 -27 -31 -54 -35 -59 -7 -7 -89 32 -156 74 -21 13 -21
13 19 84 22 39 54 97 71 128 17 32 34 58 37 58 4 0 43 -21 88 -46z m2887 -85
c80 -141 83 -123 -27 -184 -33 -19 -65 -35 -70 -35 -5 0 -20 21 -34 48 -26 48
-38 69 -88 155 -33 56 -34 54 61 104 30 15 56 32 59 36 12 19 32 -6 99 -124z
m-2508 -93 c84 -32 111 -41 268 -86 93 -26 186 -45 329 -65 81 -12 75 0 75
-167 l0 -150 -52 7 c-29 4 -60 9 -68 10 -8 2 -40 6 -70 10 -30 4 -89 15 -130
25 -41 11 -86 21 -100 24 -14 3 -43 10 -65 16 -22 6 -47 12 -55 15 -89 23
-355 120 -373 135 -8 7 10 43 74 152 16 27 29 51 29 54 0 11 33 54 41 54 5 0
49 -15 97 -34z m2141 -91 c69 -118 77 -145 47 -145 -12 0 -64 -20 -131 -50
-47 -22 -326 -105 -367 -110 -4 -1 -22 -6 -40 -11 -18 -5 -46 -12 -63 -14 -16
-3 -52 -10 -80 -15 -27 -6 -66 -12 -85 -14 -19 -3 -56 -8 -82 -11 l-48 -7 0
155 0 155 58 5 c52 5 148 20 197 32 11 2 60 13 108 24 83 19 289 86 360 116
17 8 37 14 43 15 6 0 44 -56 83 -125z m-1059 -239 l0 -151 -100 0 -100 0 0
146 c0 80 2 148 5 151 3 3 48 5 100 5 l95 -1 0 -150z"/>
<path d="M5057 4829 c-42 -10 -127 -51 -170 -83 -16 -11 -46 -45 -68 -74 -121
-169 -101 -402 46 -541 50 -48 116 -88 159 -97 136 -29 173 -28 265 6 172 66
271 210 271 393 -1 219 -170 394 -390 402 -41 1 -92 -1 -113 -6z m192 -229
c114 -65 133 -226 37 -319 -30 -29 -99 -58 -136 -56 -113 6 -199 95 -200 205
0 30 9 60 26 89 58 103 173 137 273 81z"/>
</g>
</svg>
